<?xml version="1.0" encoding="UTF-8" standalone="no"?>
<!-- Created with Inkscape (http://www.inkscape.org/) -->

<svg
   xmlns:dc="http://purl.org/dc/elements/1.1/"
   xmlns:cc="http://creativecommons.org/ns#"
   xmlns:rdf="http://www.w3.org/1999/02/22-rdf-syntax-ns#"
   xmlns:svg="http://www.w3.org/2000/svg"
   xmlns="http://www.w3.org/2000/svg"
   xmlns:sodipodi="http://sodipodi.sourceforge.net/DTD/sodipodi-0.dtd"
   xmlns:inkscape="http://www.inkscape.org/namespaces/inkscape"
   width="250mm"
   height="135mm"
   viewBox="0 0 250 135"
   version="1.1"
   id="svg8"
   inkscape:version="0.92.3 (2405546, 2018-03-11)"
   sodipodi:docname="hershey_hello.svg">
  <sodipodi:namedview
     id="base"
     pagecolor="#ffffff"
     bordercolor="#666666"
     borderopacity="1.0"
     inkscape:pageopacity="0.0"
     inkscape:pageshadow="2"
     inkscape:zoom="1.4"
     inkscape:cx="559.2618"
     inkscape:cy="254.23955"
     inkscape:document-units="mm"
     inkscape:current-layer="layer1"
     showgrid="false"
     inkscape:window-width="1920"
     inkscape:window-height="1009"
     inkscape:window-x="-8"
     inkscape:window-y="-8"
     inkscape:window-maximized="1" />
  <defs
     id="defs2" />
  <metadata
     id="metadata5">
    <rdf:RDF>
      <cc:Work
         rdf:about="">
        <dc:format>image/svg+xml</dc:format>
        <dc:type
           rdf:resource="http://purl.org/dc/dcmitype/StillImage" />
        <dc:title />
      </cc:Work>
    </rdf:RDF>
  </metadata>
  <g
     inkscape:label="Layer 1"
     inkscape:groupmode="layer"
     id="layer1"
     transform="translate(0,-162)">
    <path
       style="opacity:0.81800022;fill:none;fill-opacity:1;fill-rule:evenodd;stroke:#000000;stroke-width:0.26458332;stroke-opacity:1"
       d="m 205.56823,255.04657 -9.4141,-2.9113 -7.73526,6.10466 -0.14031,-9.85299 -8.1962,-5.47022 9.32739,-3.17819 2.66973,-9.48544 5.90495,7.88876 9.84618,-0.3921 -5.67792,8.05371 z"
       id="path3750"
       inkscape:connector-curvature="0" />
    <path
       style="fill:none;stroke:#000000;stroke-width:0.26458332px;stroke-linecap:butt;stroke-linejoin:miter;stroke-opacity:1"
       d="m 144.00893,234.25595 c -0.70581,-0.20449 -1.0301,-0.18899 -1.7009,-0.18899 -0.37797,0 -0.75595,0 -1.13393,0 -0.12599,0 -0.27314,-0.0699 -0.37797,0 -0.11721,0.0781 -0.0894,0.27837 -0.18899,0.37797 -0.0996,0.0996 -0.27837,0.0894 -0.37798,0.18899 -0.46425,0.0674 -0.0785,0.40121 -0.18898,0.56697 -0.0988,0.14825 -0.27914,0.22972 -0.37798,0.37797 -0.0271,0.0406 0,0.63412 0,0.75596 0,0.50396 0,1.00793 0,1.5119 0,0.18899 -0.0598,0.38767 0,0.56696 0.0282,0.0845 0.16081,0.10447 0.18899,0.18899 0.0398,0.11953 0,0.25199 0,0.37798 0,0.063 -0.0564,0.16082 0,0.18899 0.11269,0.0563 0.25198,0 0.37797,0 0.063,0.12599 0.0718,0.29984 0.18899,0.37797 0.10483,0.0699 0.25199,0 0.37798,0 0.18899,0 0.38362,-0.0458 0.56696,0 0.0864,0.0216 0.10447,0.16082 0.18899,0.18899 0.0865,0.0288 0.83946,0 0.94494,0 0.063,0 0.13657,0.0349 0.18899,0 0.14825,-0.0988 0.25198,-0.25198 0.37798,-0.37798 0.063,-0.063 0.16081,-0.10447 0.18898,-0.18898 0.0399,-0.11953 -0.0699,-0.27315 0,-0.37798 0.0781,-0.11721 0.29984,-0.0718 0.37798,-0.18899 0.0699,-0.10483 0,-0.25198 0,-0.37797 0,-0.063 0,-0.12599 0,-0.18899 0,-0.10549 0.0288,-0.85843 0,-0.94494 -0.0282,-0.0845 -0.16082,-0.10447 -0.18899,-0.18899 -0.0369,-0.11057 0,-0.97171 0,-1.13393 0,-0.12599 0.0699,-0.27314 0,-0.37798 -0.0781,-0.1172 -0.27837,-0.0894 -0.37797,-0.18898 -0.21717,-0.21716 -0.18899,-0.33423 -0.18899,-0.56697"
       id="path4569"
       inkscape:connector-curvature="0" />
    <path
       style="fill:none;stroke:#000000;stroke-width:0.26458332px;stroke-linecap:butt;stroke-linejoin:miter;stroke-opacity:1"
       d="m 152.13541,235.76785 c -0.62996,0 -1.25992,0 -1.88988,0 -0.12599,0 -0.27314,-0.0699 -0.37797,0 -0.11721,0.0781 -0.0718,0.29984 -0.18899,0.37798 -0.71816,0.47877 -0.23939,-0.36538 -0.37798,0.18899 -0.0483,0.19326 -0.0865,0.39614 -0.18899,0.56696 -0.0917,0.15279 -0.25198,0.25198 -0.37797,0.37798 -0.063,0.063 -0.16082,0.10447 -0.18899,0.18898 -0.0398,0.11953 0,0.25199 0,0.37798 0,0.25199 0,0.50397 0,0.75595 0,0.50397 0,1.00794 0,1.51191 0,0.0324 -0.0231,1.06462 0,1.13393 0.0282,0.0845 0.16082,0.10447 0.18899,0.18898 0.0398,0.11953 -0.0398,0.25845 0,0.37798 0.0282,0.0845 0.12599,0.12599 0.18899,0.18899 0.12599,0.12599 0.22972,0.27914 0.37797,0.37797 0.0524,0.035 0.12599,0 0.18899,0 0.12599,0 0.25198,0 0.37798,0 0.063,0 0.12922,0.0199 0.18898,0 0.13364,-0.0445 0.24435,-0.14444 0.37798,-0.18898 0.0598,-0.0199 0.12923,0.0199 0.18899,0 0.13363,-0.0446 0.24434,-0.14445 0.37798,-0.18899 0.18898,-0.063 0.37797,0.12599 0.56696,0 0.11721,-0.0781 0.0894,-0.27837 0.18899,-0.37798 0.0996,-0.0996 0.29984,-0.0718 0.37797,-0.18899 0.0699,-0.10483 -0.0398,-0.25844 0,-0.37797 0.0282,-0.0845 0.16082,-0.10447 0.18899,-0.18899 0.04,-0.12008 -0.0542,-0.86368 0,-0.94494 0.0781,-0.11721 0.29984,-0.0718 0.37798,-0.18899 0.007,-0.0109 0,-0.90937 0,-0.94494 0,-0.20275 0.0416,-1.19799 0,-1.32292 -0.0445,-0.13363 -0.14445,-0.24434 -0.18899,-0.37797 -0.0199,-0.0598 0.0349,-0.13658 0,-0.18899 -0.0988,-0.14825 -0.32163,-0.20894 -0.37798,-0.37798 -0.0797,-0.23905 0.21879,-0.63093 0,-0.75595 -0.38287,-0.21878 -0.89244,0.0957 -1.32291,0 -1.03199,0.41283 -0.1625,-0.49514 -0.37798,-0.56696 -0.17929,-0.0598 -0.37798,0 -0.56696,0"
       id="path4571"
       inkscape:connector-curvature="0" />
    <path
       style="fill:none;stroke:#000000;stroke-width:0.26458332px;stroke-linecap:butt;stroke-linejoin:miter;stroke-opacity:1"
       d="m 133.42559,246.91815 c 3.13554,-0.63869 0.43081,0.93274 0.75595,1.32292 0.28518,0.3422 0.67768,0.58858 0.94495,0.94494 0.11952,0.15937 0.0901,0.394 0.18898,0.56696 0.15628,0.27348 0.414,0.48061 0.56697,0.75595 0.16475,0.29656 0.19818,0.65726 0.37797,0.94494 0.94563,1.51301 0.22283,-0.49928 1.13393,1.32292 0.0564,0.11269 -0.0648,0.26994 0,0.37798 0.13751,0.22918 0.39303,0.36403 0.56697,0.56696 0.20498,0.23915 0.39224,0.49387 0.56696,0.75595 0.0781,0.11721 0.0808,0.2878 0.18899,0.37798 0.28219,0.23515 0.6393,0.36321 0.94494,0.56696 0.0741,0.0494 0.12599,0.126 0.18899,0.18899 0.18899,0.18899 0.33778,0.42946 0.56696,0.56697 0.10804,0.0648 0.27315,-0.0699 0.37798,0 0.1172,0.0781 0.10099,0.26798 0.18899,0.37797 1.66721,2.08401 -0.17697,-0.10618 0.94494,0.56697 0.22918,0.13751 0.37797,0.37797 0.56696,0.56696 0.063,0.063 0.10447,0.16081 0.18899,0.18899 0.11953,0.0398 0.261,-0.0468 0.37798,0 0.21088,0.0843 0.38525,0.24169 0.56696,0.37797 0.0713,0.0535 0.10447,0.16082 0.18899,0.18899 0.11953,0.0398 0.25198,0 0.37797,0 0.18899,0 0.37798,0 0.56697,0 0.063,0 0.13264,-0.0282 0.18899,0 1.66616,0.83308 -0.82105,-0.0109 1.5119,0.37798 0.0879,0.0147 0.10447,0.16081 0.18899,0.18899 0.17009,0.0567 0.39687,-0.0567 0.56696,0 0.32184,0.10728 0.61583,0.29569 0.94494,0.37797 0.24446,0.0611 0.50397,0 0.75596,0 0.56696,0 1.13392,0 1.70089,0 0.18899,0 0.37798,0 0.56696,0 0.18899,0 0.38165,0.0371 0.56697,0 0.13813,-0.0276 0.24434,-0.14444 0.37797,-0.18899 0.0598,-0.0199 0.12599,0 0.18899,0 0.33598,0 0.63984,0.0399 0.94494,-0.18898 0.11269,-0.0845 0.063,-0.31498 0.18899,-0.37798 0.16904,-0.0845 0.38165,0.0371 0.56696,0 0.13813,-0.0276 0.24435,-0.14444 0.37798,-0.18899 0.0598,-0.0199 0.14444,0.0445 0.18899,0 0.16061,-0.16061 0.21737,-0.40635 0.37798,-0.56696 0.0445,-0.0446 0.14444,0.0445 0.18898,0 0.16061,-0.16061 0.21737,-0.40636 0.37798,-0.56697 0.0445,-0.0445 0.16081,0.0564 0.18899,0 0.0563,-0.11269 -0.0891,-0.28888 0,-0.37797 0.0891,-0.0891 0.26528,0.0563 0.37797,0 0.0564,-0.0282 -0.0199,-0.12923 0,-0.18899 0.0445,-0.13364 0.0894,-0.27837 0.18899,-0.37798 0.0996,-0.0996 0.27837,-0.0894 0.37798,-0.18898 0.0996,-0.0996 0.11651,-0.25719 0.18899,-0.37798 0.11686,-0.19477 0.23256,-0.39248 0.37797,-0.56697 0.18899,-0.18898 0.37798,-0.37797 0.56697,-0.56696 0.063,-0.18899 0.0695,-0.40759 0.18898,-0.56696 0.0845,-0.11269 0.29346,-0.0763 0.37798,-0.18899 0.11953,-0.15937 0.0865,-0.39614 0.18899,-0.56697 0.0917,-0.15278 0.27914,-0.22972 0.37798,-0.37797 0.0521,-0.0782 -0.0455,-0.61941 0,-0.75595 0.41997,-1.25992 -0.105,0.44097 0.56696,-0.56697 0.12599,-0.18899 -0.063,-0.37798 0,-0.56696 0.0445,-0.13364 0.14444,-0.24434 0.18899,-0.37798 0.0199,-0.0598 0,-0.12599 0,-0.18899 0,-0.12599 0,-0.25198 0,-0.37797 0,-0.44098 0,-0.88195 0,-1.32292 0,-0.37798 0,-0.75595 0,-1.13393 0,-0.12599 0.0563,-0.26528 0,-0.37798 -0.0282,-0.0563 -0.12599,0 -0.18899,0 -0.18899,0 -0.37798,0 -0.56696,0 -0.18899,0 -0.38768,0.0598 -0.56697,0 -0.0845,-0.0282 -0.10447,-0.16081 -0.18899,-0.18898 -0.17929,-0.0598 -0.37797,0 -0.56696,0 -0.37798,0 -0.75595,0 -1.13393,0 -0.12599,0 -0.28889,-0.0891 -0.37798,0 -0.0891,0.0891 0,0.25198 0,0.37797 0,0.44097 0,0.88195 0,1.32292 0,0.12599 0,0.25198 0,0.37798 0,0.063 0.0153,0.12787 0,0.18898 -0.0483,0.19327 -0.14992,0.37163 -0.18898,0.56697 -0.0247,0.12354 0.0891,0.28889 0,0.37797 -0.0891,0.0891 -0.26529,-0.0563 -0.37798,0 -0.0564,0.0282 0,0.126 0,0.18899 0,0.12599 0.0398,0.25845 0,0.37798 -0.0282,0.0845 -0.16082,0.10447 -0.18899,0.18899 -0.04,0.12007 0.0542,0.86367 0,0.94494 -0.36878,0.55318 -0.26642,0.0387 -0.56696,0.18899 -0.20316,0.10157 -0.35608,0.29362 -0.56697,0.37797 -0.13499,0.054 -0.40497,-0.027 -0.56696,0 -0.31685,0.0528 -0.6262,0.14915 -0.94494,0.18899 -0.3398,0.0425 -0.95422,0 -1.32292,0 -0.31498,0 -0.62996,0 -0.94494,0 -0.063,0 -0.16081,-0.0564 -0.18899,0 -0.0563,0.11269 0.0891,0.28889 0,0.37798 -0.0891,0.0891 -0.25198,0 -0.37797,0 -0.44098,0 -0.88195,0 -1.32292,0 -0.31498,0 -0.62996,0 -0.94494,0 -0.18899,0 -0.38767,0.0598 -0.56696,0 -0.0845,-0.0282 -0.10448,-0.16082 -0.18899,-0.18899 -0.11953,-0.0398 -0.25845,0.0398 -0.37798,0 -0.0845,-0.0282 -0.10447,-0.16082 -0.18899,-0.18899 -0.11952,-0.0398 -0.27314,0.0699 -0.37797,0 -0.11721,-0.0781 -0.0894,-0.27837 -0.18899,-0.37798 -0.0996,-0.0996 -0.24434,-0.14444 -0.37798,-0.18898 -0.0598,-0.0199 -0.14444,0.0445 -0.18899,0 -0.1606,-0.16061 -0.26111,-0.3722 -0.37797,-0.56697 -0.0725,-0.12079 -0.0718,-0.29984 -0.18899,-0.37798 -0.10483,-0.0699 -0.25845,0.0399 -0.37798,0 -0.0845,-0.0282 -0.12599,-0.12599 -0.18898,-0.18898 -0.126,-0.12599 -0.22973,-0.27914 -0.37798,-0.37798 -0.0524,-0.0349 -0.12599,0 -0.18899,0 -0.12599,-0.063 -0.27837,-0.0894 -0.37797,-0.18899 -0.0996,-0.0996 -0.0894,-0.27837 -0.18899,-0.37797 -0.0996,-0.0996 -0.29984,-0.0718 -0.37798,-0.18899 -0.0699,-0.10483 0.0891,-0.28889 0,-0.37798 -0.14086,-0.14086 -0.4076,-0.0695 -0.56696,-0.18899 -0.11269,-0.0845 -0.0894,-0.27837 -0.18899,-0.37797 -0.0674,-0.46425 -0.40121,-0.0785 -0.56697,-0.18899 -0.14825,-0.0988 -0.25198,-0.25198 -0.37797,-0.37798 -0.063,-0.063 -0.10447,-0.16081 -0.18899,-0.18898 -0.11953,-0.0399 -0.27314,0.0699 -0.37798,0 -0.75478,-0.5032 0.0514,-0.20632 -0.18898,-0.56697 0.46635,-0.57216 -0.51406,-0.32507 -0.56697,-0.37798 -0.0445,-0.0445 0.0349,-0.13657 0,-0.18898 -0.0988,-0.14826 -0.25198,-0.25199 -0.37797,-0.37798 -0.063,-0.063 -0.10448,-0.16081 -0.18899,-0.18899 -0.11953,-0.0398 -0.27315,0.0699 -0.37798,0 -0.1172,-0.0781 -0.0718,-0.29984 -0.18899,-0.37797 -0.10483,-0.0699 -0.25845,0.0398 -0.37797,0 -0.4954,-0.16514 0.11835,-0.25963 -0.18899,-0.56697 -0.0891,-0.0891 -0.25845,0.0399 -0.37798,0 -0.0845,-0.0282 -0.12599,-0.12599 -0.18899,-0.18899 -0.12599,-0.12599 -0.27914,-0.22972 -0.37797,-0.37797 -0.035,-0.0524 0.0445,-0.14444 0,-0.18899 -0.0445,-0.0445 -0.12599,0 -0.18899,0 -0.56696,0 -1.13393,0 -1.70089,0 -0.126,0 -0.27315,-0.0699 -0.37798,0 -0.38507,0.25671 -0.0457,0.80166 -0.18899,0.94494 -0.0891,0.0891 -0.26528,-0.0563 -0.37797,0 -0.0321,0.0161 0.0281,0.75595 0,0.75595 -0.063,0 0,-0.12599 0,-0.18899"
       id="path4573"
       inkscape:connector-curvature="0" />
    <path
       style="fill:none;stroke:#000000;stroke-width:0.26458332px;stroke-linecap:butt;stroke-linejoin:miter;stroke-opacity:1"
       d="m 136.07143,231.7991 c -0.31498,0.31498 -0.65977,0.60274 -0.94494,0.94494 -0.0403,0.0484 0.0199,0.12923 0,0.18899 -0.0446,0.13363 -0.14445,0.24434 -0.18899,0.37798 -0.0199,0.0598 0,0.12599 0,0.18898 0,0.126 0,0.25199 0,0.37798 0,0.56696 0,1.13393 0,1.70089 0,1.29591 -0.0138,0.45386 -0.37798,2.45685 -0.0225,0.12396 0,0.25198 0,0.37797 0,0.18899 0,0.37798 0,0.56697 0,0.063 0.0153,0.12787 0,0.18899 -0.48408,1.93634 0.24345,-1.48631 -0.75595,1.5119 -0.0797,0.23905 0,0.50397 0,0.75595 0,1.47414 -0.0598,-0.35858 0.18899,1.13393 0.0518,0.3107 0,0.62996 0,0.94494 0,0.18899 0.0458,0.38362 0,0.56697 -0.0216,0.0864 -0.16739,0.10256 -0.18899,0.18899 -0.0458,0.18334 0.0458,0.38361 0,0.56696 -0.0823,0.32912 -0.25886,0.6273 -0.37798,0.94494 -0.0699,0.18653 -0.11051,0.38386 -0.18899,0.56696 -0.11097,0.25895 -0.30058,0.48507 -0.37797,0.75596 -0.0519,0.18171 0,0.37797 0,0.56696 0,0.18899 0,0.37798 0,0.56697 0,0.12599 0.0398,0.25845 0,0.37797 -0.0282,0.0845 -0.16082,0.10447 -0.18899,0.18899 -0.0398,0.11953 0,0.25198 0,0.37798 0,0.063 0.0349,0.13657 0,0.18898 -0.0988,0.14826 -0.2863,0.22519 -0.37798,0.37798 -0.10249,0.17082 -0.0999,0.38879 -0.18898,0.56696 -0.10158,0.20316 -0.2764,0.36381 -0.37798,0.56697 -0.0282,0.0563 0,0.12599 0,0.18899 0,0.18898 0.0311,0.38055 0,0.56696 -0.0328,0.1965 -0.14992,0.37162 -0.18899,0.56697 -0.0247,0.12354 0.0648,0.26993 0,0.37797 -0.39474,0.65791 -0.70156,0.40379 -0.94494,1.13393 -0.0598,0.17929 0.0311,0.38055 0,0.56696 -0.0327,0.1965 -0.15624,0.37047 -0.18899,0.56697 -0.0311,0.18642 0.0598,0.38767 0,0.56696 -0.0718,0.21548 -0.2764,0.36381 -0.37797,0.56697 -0.0282,0.0563 0,0.12599 0,0.18899 0,0.12599 0,0.25198 0,0.37797 0,0.44097 0,0.88195 0,1.32292 0,0.50397 0,1.00794 0,1.5119 0,0.16378 -0.0365,0.64648 0,0.75596 0.12141,0.36424 0.44438,0.75799 0.75595,0.94494 0.10804,0.0648 0.26994,-0.0648 0.37798,0 0.22918,0.13751 0.35314,0.4066 0.56696,0.56696 0.0504,0.0378 0.12599,0 0.18899,0 0.31498,0 0.62996,0 0.94494,0 0.063,0 0.12922,-0.0199 0.18899,0 0.26382,0.0879 0.77242,0.43758 0.94494,0.56696 0.53155,0.39867 -0.34905,0.0145 0.75595,0.56697 0.17818,0.0891 0.38044,0.11904 0.56696,0.18899 0.31765,0.11911 0.63611,0.23759 0.94494,0.37797 0.38472,0.17487 0.77157,0.34955 1.13393,0.56697 0.2701,0.16205 0.46812,0.43903 0.75595,0.56696 0.29354,0.13046 0.64307,0.0792 0.94495,0.18899 0.39714,0.14442 0.75595,0.37798 1.13392,0.56696 0.25199,0.126 0.48611,0.29703 0.75596,0.37798 0.36702,0.11011 0.76424,0.0882 1.13392,0.18899 0.32729,0.0893 0.62311,0.2707 0.94495,0.37797 0.2464,0.0821 0.51721,0.0867 0.75595,0.18899 0.20877,0.0895 0.35607,0.29362 0.56696,0.37798 0.11698,0.0468 0.25443,-0.0247 0.37798,0 0.19534,0.0391 0.3737,0.14067 0.56696,0.18899 0.25199,0.063 0.25199,-0.12599 0.56697,0 0.21089,0.0844 0.34523,0.3287 0.56696,0.37797 0.36898,0.082 0.75595,0 1.13393,0 0.62996,0 1.25992,0 1.88988,0 0.50397,0 1.00794,0 1.51191,0 0.37797,0 0.77049,0.10384 1.13392,0 0.13545,-0.0387 0.0554,-0.33343 0.18899,-0.37797 0.29882,-0.0996 0.63746,0.0683 0.94494,0 0.27502,-0.0611 0.49701,-0.267 0.75595,-0.37798 0.18311,-0.0785 0.38879,-0.0999 0.56697,-0.18899 0.20315,-0.10158 0.35429,-0.29822 0.56696,-0.37797 1.93645,-0.72617 -0.10161,0.55233 2.07887,-0.75596 0.27009,-0.16205 0.48586,-0.40491 0.75595,-0.56696 0.36237,-0.21742 0.78232,-0.33255 1.13393,-0.56696 0.40938,-0.27293 0.69909,-0.71474 1.13393,-0.94495 0.65166,-0.34499 1.40114,-0.46549 2.07887,-0.75595 0.20877,-0.0895 0.35149,-0.30615 0.56697,-0.37797 0.17928,-0.0598 0.38054,0.0311 0.56696,0 0.1965,-0.0328 0.3737,-0.14068 0.56696,-0.18899 0.0611,-0.0153 0.13658,0.0349 0.18899,0 0.80724,-0.53816 0.24196,-0.15891 0.37798,-0.56697 0.0445,-0.13363 0.11651,-0.25718 0.18899,-0.37797 0.11686,-0.19477 0.27639,-0.36381 0.37797,-0.56697 0.0282,-0.0563 -0.041,-0.14115 0,-0.18898 0.34787,-0.40586 0.81321,-0.7063 1.13393,-1.13393 0.25356,-0.33808 0.37798,-0.75596 0.56697,-1.13393 0.18898,-0.37798 0.45577,-0.72623 0.56696,-1.13393 0.0829,-0.30388 -0.0391,-0.63239 0,-0.94494 0.0247,-0.19767 0.14067,-0.3737 0.18899,-0.56697 0.0153,-0.0611 0,-0.12599 0,-0.18898 0,-0.12599 0,-0.25199 0,-0.37798 0,-0.25198 0.0414,-0.5074 0,-0.75595 -0.0528,-0.31685 -0.14915,-0.6262 -0.18899,-0.94494 -0.0469,-0.37506 0,-0.75595 0,-1.13393 0,-0.25198 0.0741,-0.51511 0,-0.75595 -0.18246,-0.593 -0.59609,-1.10141 -0.75595,-1.7009 -0.0974,-0.36521 0.0917,-0.76723 0,-1.13392 -0.1025,-0.40998 -0.4005,-0.74551 -0.56697,-1.13393 -0.21202,-0.49472 -0.35995,-1.01507 -0.56696,-1.51191 -0.10836,-0.26005 -0.28889,-0.48868 -0.37798,-0.75595 -0.10158,-0.30473 -0.15351,-0.62569 -0.18899,-0.94494 -0.0278,-0.25044 0.0797,-0.5169 0,-0.75595 -0.11615,-0.34848 -0.38857,-0.62384 -0.56696,-0.94494 -0.13682,-0.24628 -0.267,-0.49701 -0.37798,-0.75596 -0.0785,-0.1831 -0.12599,-0.37797 -0.18898,-0.56696 -0.18899,-0.37798 -0.3921,-0.74922 -0.56697,-1.13393 -0.14038,-0.30883 -0.21553,-0.64712 -0.37797,-0.94494 -0.4239,-0.77713 -1.12039,-1.61478 -1.7009,-2.26786 -0.17756,-0.19976 -0.40288,-0.35599 -0.56696,-0.56696 -0.2789,-0.35858 -0.45206,-0.79627 -0.75595,-1.13393 -0.26984,-0.29982 -0.6751,-0.45613 -0.94494,-0.75595 -0.3039,-0.33766 -0.46514,-0.78495 -0.75596,-1.13393 -0.3422,-0.41064 -0.77273,-0.73989 -1.13393,-1.13393 -0.33246,-0.36269 -0.58225,-0.80146 -0.94494,-1.13393 -0.39947,-0.36618 -0.89975,-0.60641 -1.32291,-0.94494 -0.41741,-0.33392 -0.68917,-0.83742 -1.13393,-1.13393 -0.16575,-0.1105 -0.38879,-0.0999 -0.56697,-0.18898 -0.32854,-0.16428 -0.63344,-0.37229 -0.94494,-0.56697 -0.19261,-0.12038 -0.3638,-0.2764 -0.56696,-0.37798 -0.17818,-0.0891 -0.394,-0.0901 -0.56696,-0.18898 -0.27348,-0.15628 -0.46644,-0.44289 -0.75596,-0.56697 -0.17371,-0.0744 -0.37797,0 -0.56696,0 -0.18899,0 -0.37798,0 -0.56697,0 -0.75595,0 -1.5119,0 -2.26785,0 -0.56697,0 -1.14052,-0.0862 -1.7009,0 -0.39378,0.0606 -0.7474,0.28135 -1.13392,0.37798 -1.29556,0.32389 -1.01098,-0.004 -2.26786,0.56696 -0.3344,0.152 -0.59973,0.44144 -0.94494,0.56697 -0.36012,0.13095 -0.75459,0.13479 -1.13393,0.18899 -0.0624,0.009 -0.13657,-0.035 -0.18899,0 -0.14825,0.0988 -0.21861,0.29829 -0.37797,0.37797 -0.23232,0.11616 -0.52364,0.0728 -0.75596,0.18899 -0.15937,0.0797 -0.22519,0.2863 -0.37797,0.37798 -0.17082,0.10249 -0.38879,0.0999 -0.56697,0.18898 -0.20315,0.10158 -0.36381,0.2764 -0.56696,0.37798 -0.17818,0.0891 -0.38879,0.0999 -0.56697,0.18899 -0.20315,0.10158 -0.3638,0.2764 -0.56696,0.37797 -0.17818,0.0891 -0.3737,0.14068 -0.56696,0.18899 -0.0611,0.0153 -0.13658,-0.0349 -0.18899,0 -0.37064,0.24709 -0.57431,0.69785 -0.94494,0.94494 -0.16576,0.1105 -0.40121,0.0785 -0.56697,0.18899 -1.03828,0.69219 -0.25152,0.31441 -0.75595,0.94494 -0.16696,0.2087 -0.35826,0.4 -0.56696,0.56697 -0.11,0.088 -0.29984,0.0718 -0.37798,0.18898 -0.0699,0.10484 0.0398,0.25845 0,0.37798 -0.16513,0.4954 -0.25963,-0.11835 -0.56696,0.18899 -0.0891,0.0891 -0.0891,0.28889 0,0.37797 0.063,0.063 0.12599,-0.25198 0.18898,-0.18898 0.063,0.063 -0.12599,0.12599 -0.18898,0.18898"
       id="path4575"
       inkscape:connector-curvature="0" />
    <path
       style="opacity:0.81800022;fill:none;fill-opacity:1;fill-rule:evenodd;stroke:#000000;stroke-width:0.26458332;stroke-opacity:1"
       d="M 120.19643,250.6979 A 14.174108,12.473214 0 0 1 106.02232,263.17112 14.174108,12.473214 0 0 1 91.848211,250.6979 14.174108,12.473214 0 0 1 106.02232,238.22469 14.174108,12.473214 0 0 1 120.19643,250.6979 Z"
       id="path4577"
       inkscape:connector-curvature="0" />
    <path
       style="opacity:0.81800022;fill:none;fill-opacity:1;fill-rule:evenodd;stroke:#000000;stroke-width:0.26458332;stroke-opacity:1"
       d="m 99.974701,243.70535 h 6.803569 v 7.74851 h -6.803569 z"
       id="rect4579"
       inkscape:connector-curvature="0" />
    <path
       style="fill:none;stroke:#000000;stroke-width:0.26458332px;stroke-linecap:butt;stroke-linejoin:miter;stroke-opacity:1"
       d="m 64.633928,233.31101 6.992559,7.74851 7.9375,-7.37054"
       id="path4632"
       inkscape:connector-curvature="0" />
    <path
       style="fill:none;stroke:#000000;stroke-width:0.26458332px;stroke-linecap:butt;stroke-linejoin:miter;stroke-opacity:1"
       d="m 71.626485,241.05952 2e-6,13.22916"
       id="path4634"
       inkscape:connector-curvature="0" />
    <path
       inkscape:connector-curvature="0"
       style="opacity:0.81800022;fill:none;fill-opacity:1;fill-rule:evenodd;stroke:#000000;stroke-width:0.26458332;stroke-opacity:1"
       d="m 49.615263,249.60371 -9.414106,-2.9113 -7.735257,6.10466 -0.14031,-9.85299 -8.196198,-5.47022 9.327388,-3.17819 2.669728,-9.48544 5.904953,7.88876 9.846181,-0.3921 -5.677927,8.05371 z"
       id="path3750-0" />
    <g
       inkscape:label="Hershey Text"
       transform="matrix(0.97784953,0,0,0.97784953,57.784443,181.42032)"
       id="g4897">
      <path
         inkscape:connector-curvature="0"
         d="M -7,-12 V 9 M 7,-12 V 9 M -7,-2 H 7"
         style="fill:none;stroke:#000000"
         transform="translate(11)"
         id="path4879" />
      <path
         inkscape:connector-curvature="0"
         d="M -6,1 H 6 V -1 L 5,-3 4,-4 2,-5 h -3 l -2,1 -2,2 -1,3 v 2 l 1,3 2,2 2,1 H 2 L 4,8 6,6"
         style="fill:none;stroke:#000000"
         transform="translate(31)"
         id="path4881" />
      <path
         inkscape:connector-curvature="0"
         d="M 0,-12 V 9"
         style="fill:none;stroke:#000000"
         transform="translate(44)"
         id="path4883" />
      <path
         inkscape:connector-curvature="0"
         d="M 0,-12 V 9"
         style="fill:none;stroke:#000000"
         transform="translate(52)"
         id="path4885" />
      <path
         inkscape:connector-curvature="0"
         d="m -1,-5 -2,1 -2,2 -1,3 v 2 l 1,3 2,2 2,1 H 2 L 4,8 6,6 7,3 V 1 L 6,-2 4,-4 2,-5 h -3"
         style="fill:none;stroke:#000000"
         transform="translate(65)"
         id="path4887" />
      <path
         inkscape:connector-curvature="0"
         d=""
         style="fill:none;stroke:#000000"
         transform="translate(83)"
         id="path4889" />
      <path
         inkscape:connector-curvature="0"
         d="M -7,-12 V 9 m 0,-21 h 9 l 3,1 1,1 1,2 v 3 l -1,2 -1,1 -3,1 h -9"
         style="fill:none;stroke:#000000"
         transform="translate(102)"
         id="path4891" />
      <path
         inkscape:connector-curvature="0"
         d="m -1,-12 1,1 1,-1 -1,-1 -1,1 m 1,7 V 9"
         style="fill:none;stroke:#000000"
         transform="translate(116)"
         id="path4893" />
      <path
         inkscape:connector-curvature="0"
         d="M 0,-12 V 2 M 0,7 -1,8 0,9 1,8 0,7"
         style="fill:none;stroke:#000000"
         transform="translate(125)"
         id="path4895" />
    </g>
    <g
       id="g20663"
       transform="matrix(0.26458333,0,0,0.26458333,50.340101,197.79346)"
       inkscape:label="Hershey Text">
      <path
         id="path20583"
         transform="translate(13)"
         style="fill:none;stroke:#000000"
         d="m 6,-12 -2,2 -2,3 -3,5 -2,3 -3,4 -3,3 -2,1 h -2 L -14,8 V 6 l 1,-1 1,1 -1,1 M 6,-12 5,-8 3,2 2,9 M 6,-12 3,9 M 2,9 V 7 L 1,4 0,2 -2,0 -4,-1 h -2 l -1,1 v 2 l 1,3 3,3 3,1 H 4 L 6,8"
         inkscape:connector-curvature="0" />
      <path
         id="path20585"
         transform="translate(29)"
         style="fill:none;stroke:#000000"
         d="M 2,1 1,2 H 2 V 1 L 1,0 h -2 l -2,1 -1,1 -1,2 v 2 l 1,2 2,1 H 1 L 4,7 6,4 M -1,0 -3,2 -4,4 v 3 l 2,2"
         inkscape:connector-curvature="0" />
      <path
         id="path20587"
         transform="translate(41)"
         style="fill:none;stroke:#000000"
         d="M 2,1 1,2 H 2 V 1 L 1,0 h -2 l -2,1 -1,1 -1,2 v 2 l 1,2 2,1 H 1 L 4,7 6,4 M -1,0 -3,2 -4,4 v 3 l 2,2"
         inkscape:connector-curvature="0" />
      <path
         id="path20589"
         transform="translate(54)"
         style="fill:none;stroke:#000000"
         d="m 0,0 h -2 l -2,1 -1,1 -1,2 v 2 l 1,2 2,1 h 2 L 1,8 2,7 3,5 V 3 L 2,1 0,0 -1,1 V 3 L 0,5 2,6 H 4 L 6,5 7,4 M -2,0 -4,2 -5,4 v 3 l 2,2"
         inkscape:connector-curvature="0" />
      <path
         id="path20591"
         transform="translate(67)"
         style="fill:none;stroke:#000000"
         d="m -6,4 2,-3 2,-1 2,1 v 2 l -2,6 m 0,-9 1,1 V 3 L -3,9 M 0,3 2,1 4,0 H 5 L 4,3 M 4,0 V 3 L 5,5 H 6 L 8,4"
         inkscape:connector-curvature="0" />
      <path
         id="path20593"
         transform="translate(82)"
         style="fill:none;stroke:#000000"
         d="M 3,3 2,1 0,0 h -2 l -2,1 -1,1 -1,2 v 2 l 1,2 2,1 h 2 L 1,8 2,6 M -2,0 -4,2 -5,4 v 3 l 2,2 M 8,-12 2,6 V 8 L 4,9 6,8 7,7 9,4 M 9,-12 3,6 v 2 l 1,1"
         inkscape:connector-curvature="0" />
      <path
         id="path20595"
         transform="translate(95)"
         style="fill:none;stroke:#000000"
         d="M 1,-6 0,-5 1,-4 2,-5 1,-6 M -1,0 -3,6 V 8 L -1,9 1,8 2,7 4,4 M 0,0 -2,6 v 2 l 1,1"
         inkscape:connector-curvature="0" />
      <path
         id="path20597"
         transform="translate(108)"
         style="fill:none;stroke:#000000"
         d="m -9,4 2,-3 2,-1 2,1 v 2 l -2,6 m 0,-9 1,1 V 3 L -6,9 M -3,3 -1,1 1,0 H 2 L 4,1 V 3 L 3,6 V 8 L 4,9 M 2,0 3,1 V 3 L 2,6 V 8 L 4,9 6,8 7,7 9,4"
         inkscape:connector-curvature="0" />
      <path
         id="path20599"
         transform="translate(124)"
         style="fill:none;stroke:#000000"
         d="M 3,3 2,1 0,0 h -2 l -2,1 -1,1 -1,2 v 2 l 1,2 2,1 h 2 L 1,8 2,6 M -2,0 -4,2 -5,4 v 3 l 2,2 M 4,0 -2,18 M 5,0 2,9 l -2,5 -2,4 -1,2 -2,1 -1,-1 V 18 L -5,15 -3,13 0,11 4,9 7,7 9,4"
         inkscape:connector-curvature="0" />
      <path
         id="path20601"
         transform="translate(141)"
         style="fill:none;stroke:#000000"
         d=""
         inkscape:connector-curvature="0" />
      <path
         id="path20603"
         transform="translate(153)"
         style="fill:none;stroke:#000000"
         d="M -4,4 -2,1 0,-3 M 3,-12 -3,6 V 8 L -1,9 1,8 2,7 4,4 M 4,-12 -2,6 v 2 l 1,1 M -2,-4 h 6"
         inkscape:connector-curvature="0" />
      <path
         id="path20605"
         transform="translate(164)"
         style="fill:none;stroke:#000000"
         d="m 0,0 h -2 l -2,1 -1,1 -1,2 v 2 l 1,2 2,1 h 2 L 1,8 2,7 3,5 V 3 L 2,1 0,0 -1,1 V 3 L 0,5 2,6 H 4 L 6,5 7,4 M -2,0 -4,2 -5,4 v 3 l 2,2"
         inkscape:connector-curvature="0" />
      <path
         id="path20607"
         transform="translate(179)"
         style="fill:none;stroke:#000000"
         d=""
         inkscape:connector-curvature="0" />
      <path
         id="path20609"
         transform="translate(194)"
         style="fill:none;stroke:#000000"
         d="M 3,3 2,1 0,0 h -2 l -2,1 -1,1 -1,2 v 2 l 1,2 2,1 h 2 L 1,8 2,6 M -2,0 -4,2 -5,4 v 3 l 2,2 M 4,0 2,6 V 8 L 4,9 6,8 7,7 9,4 M 5,0 3,6 v 2 l 1,1"
         inkscape:connector-curvature="0" />
      <path
         id="path20611"
         transform="translate(207)"
         style="fill:none;stroke:#000000"
         d="M -4,4 -2,1 0,-3 M 3,-12 -3,6 V 8 L -1,9 1,8 2,7 4,4 M 4,-12 -2,6 v 2 l 1,1"
         inkscape:connector-curvature="0" />
      <path
         id="path20613"
         transform="translate(215)"
         style="fill:none;stroke:#000000"
         d="M -4,4 -2,1 0,-3 M 3,-12 -3,6 V 8 L -1,9 1,8 2,7 4,4 M 4,-12 -2,6 v 2 l 1,1"
         inkscape:connector-curvature="0" />
      <path
         id="path20615"
         transform="translate(227)"
         style="fill:none;stroke:#000000"
         d=""
         inkscape:connector-curvature="0" />
      <path
         id="path20617"
         transform="translate(241)"
         style="fill:none;stroke:#000000"
         d="m -6,4 2,-3 2,-4 M 1,-12 -6,9 M 2,-12 -5,9 M 3,0 V 1 H 4 L 3,0 H 2 L 0,2 -3,3 m 0,0 3,1 1,4 1,1 M -3,3 -1,4 0,8 2,9 H 3 L 6,7 8,4"
         inkscape:connector-curvature="0" />
      <path
         id="path20619"
         transform="translate(258)"
         style="fill:none;stroke:#000000"
         d="m -9,4 2,-3 2,-1 2,1 v 2 l -2,6 m 0,-9 1,1 V 3 L -6,9 M -3,3 -1,1 1,0 H 2 L 4,1 V 3 L 3,6 V 8 L 4,9 M 2,0 3,1 V 3 L 2,6 V 8 L 4,9 6,8 7,7 9,4"
         inkscape:connector-curvature="0" />
      <path
         id="path20621"
         transform="translate(274)"
         style="fill:none;stroke:#000000"
         d="m 0,0 h -2 l -2,1 -1,1 -1,2 v 2 l 1,2 2,1 h 2 L 1,8 2,7 3,5 V 3 L 2,1 0,0 -1,1 V 3 L 0,5 2,6 H 4 L 6,5 7,4 M -2,0 -4,2 -5,4 v 3 l 2,2"
         inkscape:connector-curvature="0" />
      <path
         id="path20623"
         transform="translate(291)"
         style="fill:none;stroke:#000000"
         d="m -6,0 -2,2 -1,3 v 3 l 2,1 h 1 L -4,8 -2,6 M -5,0 -7,2 -8,5 v 3 l 1,1 M 0,0 -2,6 V 8 L 0,9 H 1 L 3,8 5,6 6,3 V 0 M 1,0 -1,6 V 8 L 0,9 M 6,0 7,4 8,5 h 1 l 2,-1"
         inkscape:connector-curvature="0" />
      <path
         id="path20625"
         transform="translate(311)"
         style="fill:none;stroke:#000000"
         d="m -9,4 2,-3 2,-1 2,1 v 2 l -2,6 m 0,-9 1,1 V 3 L -6,9 M -3,3 -1,1 1,0 H 2 L 4,1 V 3 L 3,6 V 8 L 4,9 M 2,0 3,1 V 3 L 2,6 V 8 L 4,9 6,8 7,7 9,4"
         inkscape:connector-curvature="0" />
      <path
         id="path20627"
         transform="translate(328)"
         style="fill:none;stroke:#000000"
         d=""
         inkscape:connector-curvature="0" />
      <path
         id="path20629"
         transform="translate(340)"
         style="fill:none;stroke:#000000"
         d="M -4,4 -2,1 0,-3 M 3,-12 -3,6 V 8 L -1,9 1,8 2,7 4,4 M 4,-12 -2,6 v 2 l 1,1"
         inkscape:connector-curvature="0" />
      <path
         id="path20631"
         transform="translate(351)"
         style="fill:none;stroke:#000000"
         d="M 3,3 2,1 0,0 h -2 l -2,1 -1,1 -1,2 v 2 l 1,2 2,1 h 2 L 1,8 2,6 M -2,0 -4,2 -5,4 v 3 l 2,2 M 4,0 2,6 V 8 L 4,9 6,8 7,7 9,4 M 5,0 3,6 v 2 l 1,1"
         inkscape:connector-curvature="0" />
      <path
         id="path20633"
         transform="translate(370)"
         style="fill:none;stroke:#000000"
         d="m -6,0 -2,2 -1,3 v 3 l 2,1 h 1 L -4,8 -2,6 M -5,0 -7,2 -8,5 v 3 l 1,1 M 0,0 -2,6 V 8 L 0,9 H 1 L 3,8 5,6 6,3 V 0 M 1,0 -1,6 V 8 L 0,9 M 6,0 7,4 8,5 h 1 l 2,-1"
         inkscape:connector-curvature="0" />
      <path
         id="path20635"
         transform="translate(385)"
         style="fill:none;stroke:#000000"
         d="m -4,4 2,-3 1,-2 V 1 L 2,3 3,5 V 7 L 2,8 0,9 M -1,1 1,3 2,5 V 7 L 0,9 M -4,8 -2,9 H 3 L 6,7 8,4"
         inkscape:connector-curvature="0" />
      <path
         id="path20637"
         transform="translate(407)"
         style="fill:none;stroke:#000000"
         d=""
         inkscape:connector-curvature="0" />
      <path
         id="path20639"
         transform="translate(422)"
         style="fill:none;stroke:#000000"
         d="m 0,0 h -2 l -2,1 -1,1 -1,2 v 2 l 1,2 2,1 h 2 L 1,8 2,7 3,5 V 3 L 2,1 0,0 -1,1 V 3 L 0,5 2,6 H 4 L 6,5 7,4 M -2,0 -4,2 -5,4 v 3 l 2,2"
         inkscape:connector-curvature="0" />
      <path
         id="path20641"
         transform="translate(432)"
         style="fill:none;stroke:#000000"
         d="m 0,0 3,-3 2,-3 1,-3 v -2 l -1,-1 -2,1 -1,2 -9,27 v 2 l 1,1 2,-1 1,-3 1,-9 1,1 H 1 L 3,8 4,7 6,4 M 2,-9 1,-4 0,0 l -3,9 -2,5 -2,4"
         inkscape:connector-curvature="0" />
      <path
         id="path20643"
         transform="translate(446)"
         style="fill:none;stroke:#000000"
         d=""
         inkscape:connector-curvature="0" />
      <path
         id="path20645"
         transform="translate(461)"
         style="fill:none;stroke:#000000"
         d="M 3,3 2,1 0,0 h -2 l -2,1 -1,1 -1,2 v 2 l 1,2 2,1 h 2 L 1,8 2,6 M -2,0 -4,2 -5,4 v 3 l 2,2 M 4,0 2,6 V 8 L 4,9 6,8 7,7 9,4 M 5,0 3,6 v 2 l 1,1"
         inkscape:connector-curvature="0" />
      <path
         id="path20647"
         transform="translate(477)"
         style="fill:none;stroke:#000000"
         d="m -4,0 -1,2 -1,3 v 3 l 2,1 h 1 L 0,8 2,6 3,3 V 0 m -6,0 -1,2 -1,3 v 3 l 1,1 M 3,0 4,4 5,5 H 6 L 8,4"
         inkscape:connector-curvature="0" />
      <path
         id="path20649"
         transform="translate(489)"
         style="fill:none;stroke:#000000"
         d="M 1,-6 0,-5 1,-4 2,-5 1,-6 M -1,0 -3,6 V 8 L -1,9 1,8 2,7 4,4 M 0,0 -2,6 v 2 l 1,1"
         inkscape:connector-curvature="0" />
      <path
         id="path20651"
         transform="translate(500)"
         style="fill:none;stroke:#000000"
         d="M 3,3 2,1 0,0 h -2 l -2,1 -1,1 -1,2 v 2 l 1,2 2,1 h 2 L 1,8 2,6 M -2,0 -4,2 -5,4 v 3 l 2,2 M 4,0 2,6 V 8 L 4,9 6,8 7,7 9,4 M 5,0 3,6 v 2 l 1,1"
         inkscape:connector-curvature="0" />
      <path
         id="path20653"
         transform="translate(513)"
         style="fill:none;stroke:#000000"
         d="M -4,4 -2,1 0,-3 M 3,-12 -3,6 V 8 L -1,9 1,8 2,7 4,4 M 4,-12 -2,6 v 2 l 1,1 M -2,-4 h 6"
         inkscape:connector-curvature="0" />
      <path
         id="path20655"
         transform="translate(521)"
         style="fill:none;stroke:#000000"
         d="M 1,-6 0,-5 1,-4 2,-5 1,-6 M -1,0 -3,6 V 8 L -1,9 1,8 2,7 4,4 M 0,0 -2,6 v 2 l 1,1"
         inkscape:connector-curvature="0" />
      <path
         id="path20657"
         transform="translate(532)"
         style="fill:none;stroke:#000000"
         d="m 0,0 h -2 l -2,1 -1,1 -1,2 v 2 l 1,2 2,1 h 2 L 1,8 2,7 3,5 V 3 L 2,1 0,0 -1,1 V 3 L 0,5 2,6 H 4 L 6,5 7,4 M -2,0 -4,2 -5,4 v 3 l 2,2"
         inkscape:connector-curvature="0" />
      <path
         id="path20659"
         transform="translate(548)"
         style="fill:none;stroke:#000000"
         d="m -9,4 2,-3 2,-1 2,1 v 2 l -2,6 m 0,-9 1,1 V 3 L -6,9 M -3,3 -1,1 1,0 H 2 L 4,1 V 3 L 3,6 V 8 L 4,9 M 2,0 3,1 V 3 L 2,6 V 8 L 4,9 6,8 7,7 9,4"
         inkscape:connector-curvature="0" />
      <path
         id="path20661"
         transform="translate(562)"
         style="fill:none;stroke:#000000"
         d="m -2,9 -1,-1 1,-1 1,1 v 1 l -1,2 -2,2"
         inkscape:connector-curvature="0" />
    </g>
    <g
       inkscape:label="Hershey Text"
       transform="matrix(0.26458333,0,0,0.26458333,44.405875,207.39406)"
       id="g20883">
      <path
         d="M -4,4 -2,1 0,-3 M 3,-12 -3,6 V 8 L -1,9 1,8 2,7 4,4 M 4,-12 -2,6 v 2 l 1,1 M -2,-4 h 6"
         style="fill:none;stroke:#000000"
         transform="translate(4)"
         id="path20795"
         inkscape:connector-curvature="0" />
      <path
         d="m -6,4 2,-3 2,-4 M 1,-12 -6,9 M 2,-12 -5,9 M -3,3 -1,1 1,0 H 2 L 4,1 V 3 L 3,6 V 8 L 4,9 M 2,0 3,1 V 3 L 2,6 V 8 L 4,9 6,8 7,7 9,4"
         style="fill:none;stroke:#000000"
         transform="translate(14)"
         id="path20797"
         inkscape:connector-curvature="0" />
      <path
         d="M -3,7 -1,6 0,5 1,3 V 1 L 0,0 h -1 l -2,1 -1,1 -1,2 v 2 l 1,2 2,1 H 1 L 4,7 6,4 M -1,0 -3,2 -4,4 v 3 l 2,2"
         style="fill:none;stroke:#000000"
         transform="translate(29)"
         id="path20799"
         inkscape:connector-curvature="0" />
      <path
         d="m -6,4 2,-3 2,-1 2,1 v 2 l -2,6 m 0,-9 1,1 V 3 L -3,9 M 0,3 2,1 4,0 H 5 L 4,3 M 4,0 V 3 L 5,5 H 6 L 8,4"
         style="fill:none;stroke:#000000"
         transform="translate(41)"
         id="path20801"
         inkscape:connector-curvature="0" />
      <path
         d="M -3,7 -1,6 0,5 1,3 V 1 L 0,0 h -1 l -2,1 -1,1 -1,2 v 2 l 1,2 2,1 H 1 L 4,7 6,4 M -1,0 -3,2 -4,4 v 3 l 2,2"
         style="fill:none;stroke:#000000"
         transform="translate(55)"
         id="path20803"
         inkscape:connector-curvature="0" />
      <path
         d=""
         style="fill:none;stroke:#000000"
         transform="translate(69)"
         id="path20805"
         inkscape:connector-curvature="0" />
      <path
         d="M 1,-6 0,-5 1,-4 2,-5 1,-6 M -1,0 -3,6 V 8 L -1,9 1,8 2,7 4,4 M 0,0 -2,6 v 2 l 1,1"
         style="fill:none;stroke:#000000"
         transform="translate(81)"
         id="path20807"
         inkscape:connector-curvature="0" />
      <path
         d="m -4,4 2,-3 1,-2 V 1 L 2,3 3,5 V 7 L 2,8 0,9 M -1,1 1,3 2,5 V 7 L 0,9 M -4,8 -2,9 H 3 L 6,7 8,4"
         style="fill:none;stroke:#000000"
         transform="translate(89)"
         id="path20809"
         inkscape:connector-curvature="0" />
      <path
         d=""
         style="fill:none;stroke:#000000"
         transform="translate(105)"
         id="path20811"
         inkscape:connector-curvature="0" />
      <path
         d="m -9,4 2,-3 2,-1 2,1 v 2 l -2,6 m 0,-9 1,1 V 3 L -6,9 M -3,3 -1,1 1,0 H 2 L 4,1 V 3 L 3,6 V 8 L 4,9 M 2,0 3,1 V 3 L 2,6 V 8 L 4,9 6,8 7,7 9,4"
         style="fill:none;stroke:#000000"
         transform="translate(122)"
         id="path20813"
         inkscape:connector-curvature="0" />
      <path
         d="m 0,0 h -2 l -2,1 -1,1 -1,2 v 2 l 1,2 2,1 h 2 L 1,8 2,7 3,5 V 3 L 2,1 0,0 -1,1 V 3 L 0,5 2,6 H 4 L 6,5 7,4 M -2,0 -4,2 -5,4 v 3 l 2,2"
         style="fill:none;stroke:#000000"
         transform="translate(138)"
         id="path20815"
         inkscape:connector-curvature="0" />
      <path
         d=""
         style="fill:none;stroke:#000000"
         transform="translate(153)"
         id="path20817"
         inkscape:connector-curvature="0" />
      <path
         d="m -6,0 -2,2 -1,3 v 3 l 2,1 h 1 L -4,8 -2,6 M -5,0 -7,2 -8,5 v 3 l 1,1 M 0,0 -2,6 V 8 L 0,9 H 1 L 3,8 5,6 6,3 V 0 M 1,0 -1,6 V 8 L 0,9 M 6,0 7,4 8,5 h 1 l 2,-1"
         style="fill:none;stroke:#000000"
         transform="translate(171)"
         id="path20819"
         inkscape:connector-curvature="0" />
      <path
         d="M 3,3 2,1 0,0 h -2 l -2,1 -1,1 -1,2 v 2 l 1,2 2,1 h 2 L 1,8 2,6 M -2,0 -4,2 -5,4 v 3 l 2,2 M 4,0 2,6 V 8 L 4,9 6,8 7,7 9,4 M 5,0 3,6 v 2 l 1,1"
         style="fill:none;stroke:#000000"
         transform="translate(189)"
         id="path20821"
         inkscape:connector-curvature="0" />
      <path
         d="m -4,0 -2,6 v 2 l 2,1 h 1 L -1,8 1,6 3,3 M -3,0 -5,6 v 2 l 1,1 M 4,0 -2,18 M 5,0 2,9 l -2,5 -2,4 -1,2 -2,1 -1,-1 V 18 L -5,15 -3,13 0,11 4,9 7,7 9,4"
         style="fill:none;stroke:#000000"
         transform="translate(205)"
         id="path20823"
         inkscape:connector-curvature="0" />
      <path
         d=""
         style="fill:none;stroke:#000000"
         transform="translate(222)"
         id="path20825"
         inkscape:connector-curvature="0" />
      <path
         d="M 3,3 2,1 0,0 h -2 l -2,1 -1,1 -1,2 v 2 l 1,2 2,1 h 2 L 1,8 2,6 M -2,0 -4,2 -5,4 v 3 l 2,2 M 4,0 2,6 V 8 L 4,9 6,8 7,7 9,4 M 5,0 3,6 v 2 l 1,1"
         style="fill:none;stroke:#000000"
         transform="translate(237)"
         id="path20827"
         inkscape:connector-curvature="0" />
      <path
         d=""
         style="fill:none;stroke:#000000"
         transform="translate(254)"
         id="path20829"
         inkscape:connector-curvature="0" />
      <path
         d="m -6,4 2,-3 2,-4 m 3,-9 -6,18 v 2 l 2,1 h 1 L 0,8 2,6 3,3 V 0 L 4,4 5,5 H 6 L 8,4 M 2,-12 -4,6 v 2 l 1,1"
         style="fill:none;stroke:#000000"
         transform="translate(268)"
         id="path20831"
         inkscape:connector-curvature="0" />
      <path
         d="M -3,7 -1,6 0,5 1,3 V 1 L 0,0 h -1 l -2,1 -1,1 -1,2 v 2 l 1,2 2,1 H 1 L 4,7 6,4 M -1,0 -3,2 -4,4 v 3 l 2,2"
         style="fill:none;stroke:#000000"
         transform="translate(282)"
         id="path20833"
         inkscape:connector-curvature="0" />
      <path
         d="M -3,7 -1,6 0,5 1,3 V 1 L 0,0 h -1 l -2,1 -1,1 -1,2 v 2 l 1,2 2,1 H 1 L 4,7 6,4 M -1,0 -3,2 -4,4 v 3 l 2,2"
         style="fill:none;stroke:#000000"
         transform="translate(294)"
         id="path20835"
         inkscape:connector-curvature="0" />
      <path
         d=""
         style="fill:none;stroke:#000000"
         transform="translate(314)"
         id="path20837"
         inkscape:connector-curvature="0" />
      <path
         d="m -4,4 2,-3 1,-2 V 1 L 2,3 3,5 V 7 L 2,8 0,9 M -1,1 1,3 2,5 V 7 L 0,9 M -4,8 -2,9 H 3 L 6,7 8,4"
         style="fill:none;stroke:#000000"
         transform="translate(326)"
         id="path20839"
         inkscape:connector-curvature="0" />
      <path
         d="m -6,4 2,-3 2,-4 M 1,-12 -6,9 M 2,-12 -5,9 M -3,3 -1,1 1,0 H 2 L 4,1 V 3 L 3,6 V 8 L 4,9 M 2,0 3,1 V 3 L 2,6 V 8 L 4,9 6,8 7,7 9,4"
         style="fill:none;stroke:#000000"
         transform="translate(340)"
         id="path20841"
         inkscape:connector-curvature="0" />
      <path
         d="m 0,0 h -2 l -2,1 -1,1 -1,2 v 2 l 1,2 2,1 h 2 L 1,8 2,7 3,5 V 3 L 2,1 0,0 -1,1 V 3 L 0,5 2,6 H 4 L 6,5 7,4 M -2,0 -4,2 -5,4 v 3 l 2,2"
         style="fill:none;stroke:#000000"
         transform="translate(356)"
         id="path20843"
         inkscape:connector-curvature="0" />
      <path
         d="m -4,0 -2,6 v 2 l 2,1 h 1 L -1,8 1,6 3,3 M -3,0 -5,6 v 2 l 1,1 M 4,0 2,6 V 8 L 4,9 6,8 7,7 9,4 M 5,0 3,6 v 2 l 1,1"
         style="fill:none;stroke:#000000"
         transform="translate(370)"
         id="path20845"
         inkscape:connector-curvature="0" />
      <path
         d="M -4,4 -2,1 0,-3 M 3,-12 -3,6 V 8 L -1,9 1,8 2,7 4,4 M 4,-12 -2,6 v 2 l 1,1"
         style="fill:none;stroke:#000000"
         transform="translate(383)"
         id="path20847"
         inkscape:connector-curvature="0" />
      <path
         d="M 3,3 2,1 0,0 h -2 l -2,1 -1,1 -1,2 v 2 l 1,2 2,1 h 2 L 1,8 2,6 M -2,0 -4,2 -5,4 v 3 l 2,2 M 8,-12 2,6 V 8 L 4,9 6,8 7,7 9,4 M 9,-12 3,6 v 2 l 1,1"
         style="fill:none;stroke:#000000"
         transform="translate(394)"
         id="path20849"
         inkscape:connector-curvature="0" />
      <path
         d=""
         style="fill:none;stroke:#000000"
         transform="translate(411)"
         id="path20851"
         inkscape:connector-curvature="0" />
      <path
         d="m -6,4 2,-3 2,-4 m 3,-9 -6,18 v 2 l 2,1 h 1 L 0,8 2,6 3,3 V 0 L 4,4 5,5 H 6 L 8,4 M 2,-12 -4,6 v 2 l 1,1"
         style="fill:none;stroke:#000000"
         transform="translate(425)"
         id="path20853"
         inkscape:connector-curvature="0" />
      <path
         d="M -3,7 -1,6 0,5 1,3 V 1 L 0,0 h -1 l -2,1 -1,1 -1,2 v 2 l 1,2 2,1 H 1 L 4,7 6,4 M -1,0 -3,2 -4,4 v 3 l 2,2"
         style="fill:none;stroke:#000000"
         transform="translate(439)"
         id="path20855"
         inkscape:connector-curvature="0" />
      <path
         d=""
         style="fill:none;stroke:#000000"
         transform="translate(453)"
         id="path20857"
         inkscape:connector-curvature="0" />
      <path
         d="M 3,3 2,1 0,0 h -2 l -2,1 -1,1 -1,2 v 2 l 1,2 2,1 h 2 L 1,8 2,6 M -2,0 -4,2 -5,4 v 3 l 2,2 M 4,0 2,6 V 8 L 4,9 6,8 7,7 9,4 M 5,0 3,6 v 2 l 1,1"
         style="fill:none;stroke:#000000"
         transform="translate(468)"
         id="path20859"
         inkscape:connector-curvature="0" />
      <path
         d="m -6,4 2,-3 2,-4 m 3,-9 -6,18 v 2 l 2,1 h 1 L 0,8 2,6 3,3 V 0 L 4,4 5,5 H 6 L 8,4 M 2,-12 -4,6 v 2 l 1,1"
         style="fill:none;stroke:#000000"
         transform="translate(483)"
         id="path20861"
         inkscape:connector-curvature="0" />
      <path
         d="M -4,4 -2,1 0,-3 M 3,-12 -3,6 V 8 L -1,9 1,8 2,7 4,4 M 4,-12 -2,6 v 2 l 1,1"
         style="fill:none;stroke:#000000"
         transform="translate(495)"
         id="path20863"
         inkscape:connector-curvature="0" />
      <path
         d="M -3,7 -1,6 0,5 1,3 V 1 L 0,0 h -1 l -2,1 -1,1 -1,2 v 2 l 1,2 2,1 H 1 L 4,7 6,4 M -1,0 -3,2 -4,4 v 3 l 2,2"
         style="fill:none;stroke:#000000"
         transform="translate(505)"
         id="path20865"
         inkscape:connector-curvature="0" />
      <path
         d=""
         style="fill:none;stroke:#000000"
         transform="translate(519)"
         id="path20867"
         inkscape:connector-curvature="0" />
      <path
         d="M -4,4 -2,1 0,-3 M 3,-12 -3,6 V 8 L -1,9 1,8 2,7 4,4 M 4,-12 -2,6 v 2 l 1,1 M -2,-4 h 6"
         style="fill:none;stroke:#000000"
         transform="translate(531)"
         id="path20869"
         inkscape:connector-curvature="0" />
      <path
         d="m 0,0 h -2 l -2,1 -1,1 -1,2 v 2 l 1,2 2,1 h 2 L 1,8 2,7 3,5 V 3 L 2,1 0,0 -1,1 V 3 L 0,5 2,6 H 4 L 6,5 7,4 M -2,0 -4,2 -5,4 v 3 l 2,2"
         style="fill:none;stroke:#000000"
         transform="translate(542)"
         id="path20871"
         inkscape:connector-curvature="0" />
      <path
         d=""
         style="fill:none;stroke:#000000"
         transform="translate(557)"
         id="path20873"
         inkscape:connector-curvature="0" />
      <path
         d="m 0,0 3,-3 2,-3 1,-3 v -2 l -1,-1 -2,1 -1,2 -9,27 v 2 l 1,1 2,-1 1,-3 1,-9 1,1 H 1 L 3,8 4,7 6,4 M 2,-9 1,-4 0,0 l -3,9 -2,5 -2,4"
         style="fill:none;stroke:#000000"
         transform="translate(568)"
         id="path20875"
         inkscape:connector-curvature="0" />
      <path
         d="M -4,4 -2,1 0,-3 M 3,-12 -3,6 V 8 L -1,9 1,8 2,7 4,4 M 4,-12 -2,6 v 2 l 1,1"
         style="fill:none;stroke:#000000"
         transform="translate(578)"
         id="path20877"
         inkscape:connector-curvature="0" />
      <path
         d="m -4,0 -2,6 v 2 l 2,1 h 1 L -1,8 1,6 3,3 M -3,0 -5,6 v 2 l 1,1 M 4,0 -2,18 M 5,0 2,9 l -2,5 -2,4 -1,2 -2,1 -1,-1 V 18 L -5,15 -3,13 0,11 4,9 7,7 9,4"
         style="fill:none;stroke:#000000"
         transform="translate(589)"
         id="path20879"
         inkscape:connector-curvature="0" />
      <path
         d="M -2,7 -3,8 -2,9 -1,8 -2,7"
         style="fill:none;stroke:#000000"
         transform="translate(603)"
         id="path20881"
         inkscape:connector-curvature="0" />
    </g>
    <g
       id="g21237"
       transform="matrix(0.26458333,0,0,0.26458333,13.032163,216.75934)"
       inkscape:label="Hershey Text">
      <path
         id="path21105"
         transform="translate(9)"
         style="fill:none;stroke:#000000"
         d="M 5,-10 3,-7 1,-2 -1,3 -2,5 -4,8 -6,9 M 7,-6 5,-4 2,-3 h -3 l -2,-1 -1,-2 v -2 l 1,-2 2,-1 4,-1 H 7 L 5,-10 4,-8 2,-2 0,4 -1,6 -3,8 -6,9 H -8 L -9,8 V 6 l 1,-1 1,1 -1,1"
         inkscape:connector-curvature="0" />
      <path
         id="path21107"
         transform="translate(20)"
         style="fill:none;stroke:#000000"
         d="M -4,4 -2,1 0,-3 M 3,-12 -3,6 V 8 L -1,9 1,8 2,7 4,4 M 4,-12 -2,6 v 2 l 1,1 M -2,-4 h 6"
         inkscape:connector-curvature="0" />
      <path
         id="path21109"
         transform="translate(28)"
         style="fill:none;stroke:#000000"
         d="m -4,4 2,-3 1,-2 V 1 L 2,3 3,5 V 7 L 2,8 0,9 M -1,1 1,3 2,5 V 7 L 0,9 M -4,8 -2,9 H 3 L 6,7 8,4"
         inkscape:connector-curvature="0" />
      <path
         id="path21111"
         transform="translate(44)"
         style="fill:none;stroke:#000000"
         d=""
         inkscape:connector-curvature="0" />
      <path
         id="path21113"
         transform="translate(62)"
         style="fill:none;stroke:#000000"
         d="m -6,0 -2,2 -1,3 v 3 l 2,1 h 1 L -4,8 -2,6 M -5,0 -7,2 -8,5 v 3 l 1,1 M 0,0 -2,6 V 8 L 0,9 H 1 L 3,8 5,6 6,3 V 0 M 1,0 -1,6 V 8 L 0,9 M 6,0 7,4 8,5 h 1 l 2,-1"
         inkscape:connector-curvature="0" />
      <path
         id="path21115"
         transform="translate(77)"
         style="fill:none;stroke:#000000"
         d="M 1,-6 0,-5 1,-4 2,-5 1,-6 M -1,0 -3,6 V 8 L -1,9 1,8 2,7 4,4 M 0,0 -2,6 v 2 l 1,1"
         inkscape:connector-curvature="0" />
      <path
         id="path21117"
         transform="translate(90)"
         style="fill:none;stroke:#000000"
         d="m -9,4 2,-3 2,-1 2,1 v 2 l -2,6 m 0,-9 1,1 V 3 L -6,9 M -3,3 -1,1 1,0 H 2 L 4,1 V 3 L 3,6 V 8 L 4,9 M 2,0 3,1 V 3 L 2,6 V 8 L 4,9 6,8 7,7 9,4"
         inkscape:connector-curvature="0" />
      <path
         id="path21119"
         transform="translate(106)"
         style="fill:none;stroke:#000000"
         d="M 3,3 2,1 0,0 h -2 l -2,1 -1,1 -1,2 v 2 l 1,2 2,1 h 2 L 1,8 2,6 M -2,0 -4,2 -5,4 v 3 l 2,2 M 4,0 -2,18 M 5,0 2,9 l -2,5 -2,4 -1,2 -2,1 -1,-1 V 18 L -5,15 -3,13 0,11 4,9 7,7 9,4"
         inkscape:connector-curvature="0" />
      <path
         id="path21121"
         transform="translate(119)"
         style="fill:none;stroke:#000000"
         d="m -4,4 2,-3 1,-2 V 1 L 2,3 3,5 V 7 L 2,8 0,9 M -1,1 1,3 2,5 V 7 L 0,9 M -4,8 -2,9 H 3 L 6,7 8,4"
         inkscape:connector-curvature="0" />
      <path
         id="path21123"
         transform="translate(135)"
         style="fill:none;stroke:#000000"
         d=""
         inkscape:connector-curvature="0" />
      <path
         id="path21125"
         transform="translate(150)"
         style="fill:none;stroke:#000000"
         d="M 3,3 2,1 0,0 h -2 l -2,1 -1,1 -1,2 v 2 l 1,2 2,1 h 2 L 1,8 2,6 M -2,0 -4,2 -5,4 v 3 l 2,2 M 4,0 2,6 V 8 L 4,9 6,8 7,7 9,4 M 5,0 3,6 v 2 l 1,1"
         inkscape:connector-curvature="0" />
      <path
         id="path21127"
         transform="translate(165)"
         style="fill:none;stroke:#000000"
         d="m -6,4 2,-3 2,-1 2,1 v 2 l -2,6 m 0,-9 1,1 V 3 L -3,9 M 0,3 2,1 4,0 H 5 L 4,3 M 4,0 V 3 L 5,5 H 6 L 8,4"
         inkscape:connector-curvature="0" />
      <path
         id="path21129"
         transform="translate(179)"
         style="fill:none;stroke:#000000"
         d="M -3,7 -1,6 0,5 1,3 V 1 L 0,0 h -1 l -2,1 -1,1 -1,2 v 2 l 1,2 2,1 H 1 L 4,7 6,4 M -1,0 -3,2 -4,4 v 3 l 2,2"
         inkscape:connector-curvature="0" />
      <path
         id="path21131"
         transform="translate(193)"
         style="fill:none;stroke:#000000"
         d=""
         inkscape:connector-curvature="0" />
      <path
         id="path21133"
         transform="translate(205)"
         style="fill:none;stroke:#000000"
         d="M -4,4 -2,1 0,-3 M 3,-12 -3,6 V 8 L -1,9 1,8 2,7 4,4 M 4,-12 -2,6 v 2 l 1,1 M -2,-4 h 6"
         inkscape:connector-curvature="0" />
      <path
         id="path21135"
         transform="translate(216)"
         style="fill:none;stroke:#000000"
         d="m 0,0 h -2 l -2,1 -1,1 -1,2 v 2 l 1,2 2,1 h 2 L 1,8 2,7 3,5 V 3 L 2,1 0,0 -1,1 V 3 L 0,5 2,6 H 4 L 6,5 7,4 M -2,0 -4,2 -5,4 v 3 l 2,2"
         inkscape:connector-curvature="0" />
      <path
         id="path21137"
         transform="translate(230)"
         style="fill:none;stroke:#000000"
         d="m 0,0 h -2 l -2,1 -1,1 -1,2 v 2 l 1,2 2,1 h 2 L 1,8 2,7 3,5 V 3 L 2,1 0,0 -1,1 V 3 L 0,5 2,6 H 4 L 6,5 7,4 M -2,0 -4,2 -5,4 v 3 l 2,2"
         inkscape:connector-curvature="0" />
      <path
         id="path21139"
         transform="translate(245)"
         style="fill:none;stroke:#000000"
         d=""
         inkscape:connector-curvature="0" />
      <path
         id="path21141"
         transform="translate(257)"
         style="fill:none;stroke:#000000"
         d="m -4,4 2,-3 1,-2 V 1 L 2,3 3,5 V 7 L 2,8 0,9 M -1,1 1,3 2,5 V 7 L 0,9 M -4,8 -2,9 H 3 L 6,7 8,4"
         inkscape:connector-curvature="0" />
      <path
         id="path21143"
         transform="translate(278)"
         style="fill:none;stroke:#000000"
         d="m -13,4 2,-3 2,-1 2,1 v 2 l -2,6 m 0,-9 1,1 v 2 l -2,6 m 3,-6 2,-2 2,-1 h 1 l 2,1 v 2 l -2,6 m 0,-9 1,1 V 3 L -3,9 M 0,3 2,1 4,0 H 5 L 7,1 V 3 L 6,6 V 8 L 7,9 M 5,0 6,1 V 3 L 5,6 V 8 L 7,9 9,8 10,7 12,4"
         inkscape:connector-curvature="0" />
      <path
         id="path21145"
         transform="translate(297)"
         style="fill:none;stroke:#000000"
         d="M 3,3 2,1 0,0 h -2 l -2,1 -1,1 -1,2 v 2 l 1,2 2,1 h 2 L 1,8 2,6 M -2,0 -4,2 -5,4 v 3 l 2,2 M 4,0 2,6 V 8 L 4,9 6,8 7,7 9,4 M 5,0 3,6 v 2 l 1,1"
         inkscape:connector-curvature="0" />
      <path
         id="path21147"
         transform="translate(310)"
         style="fill:none;stroke:#000000"
         d="M -4,4 -2,1 0,-3 M 3,-12 -3,6 V 8 L -1,9 1,8 2,7 4,4 M 4,-12 -2,6 v 2 l 1,1"
         inkscape:connector-curvature="0" />
      <path
         id="path21149"
         transform="translate(318)"
         style="fill:none;stroke:#000000"
         d="M -4,4 -2,1 0,-3 M 3,-12 -3,6 V 8 L -1,9 1,8 2,7 4,4 M 4,-12 -2,6 v 2 l 1,1"
         inkscape:connector-curvature="0" />
      <path
         id="path21151"
         transform="translate(330)"
         style="fill:none;stroke:#000000"
         d=""
         inkscape:connector-curvature="0" />
      <path
         id="path21153"
         transform="translate(342)"
         style="fill:none;stroke:#000000"
         d="M -4,4 -2,1 0,-3 M 3,-12 -3,6 V 8 L -1,9 1,8 2,7 4,4 M 4,-12 -2,6 v 2 l 1,1 M -2,-4 h 6"
         inkscape:connector-curvature="0" />
      <path
         id="path21155"
         transform="translate(353)"
         style="fill:none;stroke:#000000"
         d="m 0,0 h -2 l -2,1 -1,1 -1,2 v 2 l 1,2 2,1 h 2 L 1,8 2,7 3,5 V 3 L 2,1 0,0 -1,1 V 3 L 0,5 2,6 H 4 L 6,5 7,4 M -2,0 -4,2 -5,4 v 3 l 2,2"
         inkscape:connector-curvature="0" />
      <path
         id="path21157"
         transform="translate(368)"
         style="fill:none;stroke:#000000"
         d=""
         inkscape:connector-curvature="0" />
      <path
         id="path21159"
         transform="translate(383)"
         style="fill:none;stroke:#000000"
         d="M 3,3 2,1 0,0 h -2 l -2,1 -1,1 -1,2 v 2 l 1,2 2,1 h 2 L 1,8 2,6 M -2,0 -4,2 -5,4 v 3 l 2,2 M 4,0 -2,18 M 5,0 2,9 l -2,5 -2,4 -1,2 -2,1 -1,-1 V 18 L -5,15 -3,13 0,11 4,9 7,7 9,4"
         inkscape:connector-curvature="0" />
      <path
         id="path21161"
         transform="translate(398)"
         style="fill:none;stroke:#000000"
         d="M -3,7 -1,6 0,5 1,3 V 1 L 0,0 h -1 l -2,1 -1,1 -1,2 v 2 l 1,2 2,1 H 1 L 4,7 6,4 M -1,0 -3,2 -4,4 v 3 l 2,2"
         inkscape:connector-curvature="0" />
      <path
         id="path21163"
         transform="translate(408)"
         style="fill:none;stroke:#000000"
         d="M -4,4 -2,1 0,-3 M 3,-12 -3,6 V 8 L -1,9 1,8 2,7 4,4 M 4,-12 -2,6 v 2 l 1,1 M -2,-4 h 6"
         inkscape:connector-curvature="0" />
      <path
         id="path21165"
         transform="translate(426)"
         style="fill:none;stroke:#000000"
         d=""
         inkscape:connector-curvature="0" />
      <path
         id="path21167"
         transform="translate(438)"
         style="fill:none;stroke:#000000"
         d="M 1,-6 0,-5 1,-4 2,-5 1,-6 M -1,0 -3,6 V 8 L -1,9 1,8 2,7 4,4 M 0,0 -2,6 v 2 l 1,1"
         inkscape:connector-curvature="0" />
      <path
         id="path21169"
         transform="translate(446)"
         style="fill:none;stroke:#000000"
         d="M -4,4 -2,1 0,-3 M 3,-12 -3,6 V 8 L -1,9 1,8 2,7 4,4 M 4,-12 -2,6 v 2 l 1,1 M -2,-4 h 6"
         inkscape:connector-curvature="0" />
      <path
         id="path21171"
         transform="translate(454)"
         style="fill:none;stroke:#000000"
         d="m -4,4 2,-3 1,-2 V 1 L 2,3 3,5 V 7 L 2,8 0,9 M -1,1 1,3 2,5 V 7 L 0,9 M -4,8 -2,9 H 3 L 6,7 8,4"
         inkscape:connector-curvature="0" />
      <path
         id="path21173"
         transform="translate(470)"
         style="fill:none;stroke:#000000"
         d=""
         inkscape:connector-curvature="0" />
      <path
         id="path21175"
         transform="translate(481)"
         style="fill:none;stroke:#000000"
         d="m 0,0 3,-3 2,-3 1,-3 v -2 l -1,-1 -2,1 -1,2 -9,27 v 2 l 1,1 2,-1 1,-3 1,-9 1,1 H 1 L 3,8 4,7 6,4 M 2,-9 1,-4 0,0 l -3,9 -2,5 -2,4"
         inkscape:connector-curvature="0" />
      <path
         id="path21177"
         transform="translate(494)"
         style="fill:none;stroke:#000000"
         d="M 3,3 2,1 0,0 h -2 l -2,1 -1,1 -1,2 v 2 l 1,2 2,1 h 2 L 1,8 2,6 M -2,0 -4,2 -5,4 v 3 l 2,2 M 4,0 2,6 V 8 L 4,9 6,8 7,7 9,4 M 5,0 3,6 v 2 l 1,1"
         inkscape:connector-curvature="0" />
      <path
         id="path21179"
         transform="translate(507)"
         style="fill:none;stroke:#000000"
         d="M -4,4 -2,1 0,-3 M 3,-12 -3,6 V 8 L -1,9 1,8 2,7 4,4 M 4,-12 -2,6 v 2 l 1,1 M -2,-4 h 6"
         inkscape:connector-curvature="0" />
      <path
         id="path21181"
         transform="translate(519)"
         style="fill:none;stroke:#000000"
         d=""
         inkscape:connector-curvature="0" />
      <path
         id="path21183"
         transform="translate(531)"
         style="fill:none;stroke:#000000"
         d="M -4,4 -2,1 0,-3 M 3,-12 -3,6 V 8 L -1,9 1,8 2,7 4,4 M 4,-12 -2,6 v 2 l 1,1"
         inkscape:connector-curvature="0" />
      <path
         id="path21185"
         transform="translate(539)"
         style="fill:none;stroke:#000000"
         d="M 1,-6 0,-5 1,-4 2,-5 1,-6 M -1,0 -3,6 V 8 L -1,9 1,8 2,7 4,4 M 0,0 -2,6 v 2 l 1,1"
         inkscape:connector-curvature="0" />
      <path
         id="path21187"
         transform="translate(547)"
         style="fill:none;stroke:#000000"
         d="M -4,4 -2,1 0,-3 M 3,-12 -3,6 V 8 L -1,9 1,8 2,7 4,4 M 4,-12 -2,6 v 2 l 1,1 M -2,-4 h 6"
         inkscape:connector-curvature="0" />
      <path
         id="path21189"
         transform="translate(555)"
         style="fill:none;stroke:#000000"
         d="M -4,4 -2,1 0,-3 M 3,-12 -3,6 V 8 L -1,9 1,8 2,7 4,4 M 4,-12 -2,6 v 2 l 1,1 M -2,-4 h 6"
         inkscape:connector-curvature="0" />
      <path
         id="path21191"
         transform="translate(563)"
         style="fill:none;stroke:#000000"
         d="M -4,4 -2,1 0,-3 M 3,-12 -3,6 V 8 L -1,9 1,8 2,7 4,4 M 4,-12 -2,6 v 2 l 1,1"
         inkscape:connector-curvature="0" />
      <path
         id="path21193"
         transform="translate(573)"
         style="fill:none;stroke:#000000"
         d="M -3,7 -1,6 0,5 1,3 V 1 L 0,0 h -1 l -2,1 -1,1 -1,2 v 2 l 1,2 2,1 H 1 L 4,7 6,4 M -1,0 -3,2 -4,4 v 3 l 2,2"
         inkscape:connector-curvature="0" />
      <path
         id="path21195"
         transform="translate(587)"
         style="fill:none;stroke:#000000"
         d=""
         inkscape:connector-curvature="0" />
      <path
         id="path21197"
         transform="translate(601)"
         style="fill:none;stroke:#000000"
         d="m -6,4 2,-3 2,-4 m 3,-9 -6,18 v 2 l 2,1 h 1 L 0,8 2,6 3,3 V 0 L 4,4 5,5 H 6 L 8,4 M 2,-12 -4,6 v 2 l 1,1"
         inkscape:connector-curvature="0" />
      <path
         id="path21199"
         transform="translate(616)"
         style="fill:none;stroke:#000000"
         d="m 0,0 h -2 l -2,1 -1,1 -1,2 v 2 l 1,2 2,1 h 2 L 1,8 2,7 3,5 V 3 L 2,1 0,0 -1,1 V 3 L 0,5 2,6 H 4 L 6,5 7,4 M -2,0 -4,2 -5,4 v 3 l 2,2"
         inkscape:connector-curvature="0" />
      <path
         id="path21201"
         transform="translate(630)"
         style="fill:none;stroke:#000000"
         d="M 3,3 2,1 0,0 h -2 l -2,1 -1,1 -1,2 v 2 l 1,2 2,1 h 2 L 1,8 2,6 M -2,0 -4,2 -5,4 v 3 l 2,2 M 8,-12 2,6 V 8 L 4,9 6,8 7,7 9,4 M 9,-12 3,6 v 2 l 1,1"
         inkscape:connector-curvature="0" />
      <path
         id="path21203"
         transform="translate(646)"
         style="fill:none;stroke:#000000"
         d="m -4,0 -2,6 v 2 l 2,1 h 1 L -1,8 1,6 3,3 M -3,0 -5,6 v 2 l 1,1 M 4,0 -2,18 M 5,0 2,9 l -2,5 -2,4 -1,2 -2,1 -1,-1 V 18 L -5,15 -3,13 0,11 4,9 7,7 9,4"
         inkscape:connector-curvature="0" />
      <path
         id="path21205"
         transform="translate(663)"
         style="fill:none;stroke:#000000"
         d=""
         inkscape:connector-curvature="0" />
      <path
         id="path21207"
         transform="translate(678)"
         style="fill:none;stroke:#000000"
         d="m 0,0 h -2 l -2,1 -1,1 -1,2 v 2 l 1,2 2,1 h 2 L 1,8 2,7 3,5 V 3 L 2,1 0,0 -1,1 V 3 L 0,5 2,6 H 4 L 6,5 7,4 M -2,0 -4,2 -5,4 v 3 l 2,2"
         inkscape:connector-curvature="0" />
      <path
         id="path21209"
         transform="translate(688)"
         style="fill:none;stroke:#000000"
         d="m 0,0 3,-3 2,-3 1,-3 v -2 l -1,-1 -2,1 -1,2 -9,27 v 2 l 1,1 2,-1 1,-3 1,-9 1,1 H 1 L 3,8 4,7 6,4 M 2,-9 1,-4 0,0 l -3,9 -2,5 -2,4"
         inkscape:connector-curvature="0" />
      <path
         id="path21211"
         transform="translate(697)"
         style="fill:none;stroke:#000000"
         d="m 0,0 3,-3 2,-3 1,-3 v -2 l -1,-1 -2,1 -1,2 -9,27 v 2 l 1,1 2,-1 1,-3 1,-9 1,1 H 1 L 3,8 4,7 6,4 M 2,-9 1,-4 0,0 l -3,9 -2,5 -2,4"
         inkscape:connector-curvature="0" />
      <path
         id="path21213"
         transform="translate(711)"
         style="fill:none;stroke:#000000"
         d=""
         inkscape:connector-curvature="0" />
      <path
         id="path21215"
         transform="translate(723)"
         style="fill:none;stroke:#000000"
         d="M -4,4 -2,1 0,-3 M 3,-12 -3,6 V 8 L -1,9 1,8 2,7 4,4 M 4,-12 -2,6 v 2 l 1,1 M -2,-4 h 6"
         inkscape:connector-curvature="0" />
      <path
         id="path21217"
         transform="translate(733)"
         style="fill:none;stroke:#000000"
         d="m -6,4 2,-3 2,-4 M 1,-12 -6,9 M 2,-12 -5,9 M -3,3 -1,1 1,0 H 2 L 4,1 V 3 L 3,6 V 8 L 4,9 M 2,0 3,1 V 3 L 2,6 V 8 L 4,9 6,8 7,7 9,4"
         inkscape:connector-curvature="0" />
      <path
         id="path21219"
         transform="translate(748)"
         style="fill:none;stroke:#000000"
         d="M -3,7 -1,6 0,5 1,3 V 1 L 0,0 h -1 l -2,1 -1,1 -1,2 v 2 l 1,2 2,1 H 1 L 4,7 6,4 M -1,0 -3,2 -4,4 v 3 l 2,2"
         inkscape:connector-curvature="0" />
      <path
         id="path21221"
         transform="translate(762)"
         style="fill:none;stroke:#000000"
         d=""
         inkscape:connector-curvature="0" />
      <path
         id="path21223"
         transform="translate(777)"
         style="fill:none;stroke:#000000"
         d="M 3,3 2,1 0,0 h -2 l -2,1 -1,1 -1,2 v 2 l 1,2 2,1 h 2 L 1,8 2,6 M -2,0 -4,2 -5,4 v 3 l 2,2 M 4,0 -2,18 M 5,0 2,9 l -2,5 -2,4 -1,2 -2,1 -1,-1 V 18 L -5,15 -3,13 0,11 4,9 7,7 9,4"
         inkscape:connector-curvature="0" />
      <path
         id="path21225"
         transform="translate(792)"
         style="fill:none;stroke:#000000"
         d="m -6,4 2,-3 2,-1 2,1 v 2 l -2,6 m 0,-9 1,1 V 3 L -3,9 M 0,3 2,1 4,0 H 5 L 4,3 M 4,0 V 3 L 5,5 H 6 L 8,4"
         inkscape:connector-curvature="0" />
      <path
         id="path21227"
         transform="translate(807)"
         style="fill:none;stroke:#000000"
         d="m 0,0 h -2 l -2,1 -1,1 -1,2 v 2 l 1,2 2,1 h 2 L 1,8 2,7 3,5 V 3 L 2,1 0,0 -1,1 V 3 L 0,5 2,6 H 4 L 6,5 7,4 M -2,0 -4,2 -5,4 v 3 l 2,2"
         inkscape:connector-curvature="0" />
      <path
         id="path21229"
         transform="translate(821)"
         style="fill:none;stroke:#000000"
         d="m -4,0 -2,6 v 2 l 2,1 h 1 L -1,8 1,6 3,3 M -3,0 -5,6 v 2 l 1,1 M 4,0 2,6 V 8 L 4,9 6,8 7,7 9,4 M 5,0 3,6 v 2 l 1,1"
         inkscape:connector-curvature="0" />
      <path
         id="path21231"
         transform="translate(839)"
         style="fill:none;stroke:#000000"
         d="m -9,4 2,-3 2,-1 2,1 v 2 l -2,6 m 0,-9 1,1 V 3 L -6,9 M -3,3 -1,1 1,0 H 2 L 4,1 V 3 L 3,6 V 8 L 4,9 M 2,0 3,1 V 3 L 2,6 V 8 L 4,9 6,8 7,7 9,4"
         inkscape:connector-curvature="0" />
      <path
         id="path21233"
         transform="translate(855)"
         style="fill:none;stroke:#000000"
         d="M 3,3 2,1 0,0 h -2 l -2,1 -1,1 -1,2 v 2 l 1,2 2,1 h 2 L 1,8 2,6 M -2,0 -4,2 -5,4 v 3 l 2,2 M 8,-12 2,6 V 8 L 4,9 6,8 7,7 9,4 M 9,-12 3,6 v 2 l 1,1"
         inkscape:connector-curvature="0" />
      <path
         id="path21235"
         transform="translate(869)"
         style="fill:none;stroke:#000000"
         d="M -2,7 -3,8 -2,9 -1,8 -2,7"
         inkscape:connector-curvature="0" />
    </g>
  </g>
</svg>
