<?xml version="1.0" encoding="UTF-8" standalone="no"?>
<svg
   xmlns:dc="http://purl.org/dc/elements/1.1/"
   xmlns:cc="http://creativecommons.org/ns#"
   xmlns:rdf="http://www.w3.org/1999/02/22-rdf-syntax-ns#"
   xmlns:svg="http://www.w3.org/2000/svg"
   xmlns="http://www.w3.org/2000/svg"
   xmlns:sodipodi="http://sodipodi.sourceforge.net/DTD/sodipodi-0.dtd"
   xmlns:inkscape="http://www.inkscape.org/namespaces/inkscape"
   width="210mm"
   height="297mm"
   viewBox="0 0 210 297"
   version="1.1"
   id="svg8"
   inkscape:version="1.0.2 (e86c870879, 2021-01-15)"
   sodipodi:docname="converted.svg">
  <defs
     id="defs2" />
  <sodipodi:namedview
     id="base"
     pagecolor="#ffffff"
     bordercolor="#666666"
     borderopacity="1.0"
     inkscape:pageopacity="0.0"
     inkscape:pageshadow="2"
     inkscape:zoom="2.8"
     inkscape:cx="366.13371"
     inkscape:cy="278.14232"
     inkscape:document-units="mm"
     inkscape:current-layer="text1919"
     inkscape:document-rotation="0"
     showgrid="false"
     inkscape:window-width="1024"
     inkscape:window-height="704"
     inkscape:window-x="0"
     inkscape:window-y="36"
     inkscape:window-maximized="1" />
  <metadata
     id="metadata5">
    <rdf:RDF>
      <cc:Work
         rdf:about="">
        <dc:format>image/svg+xml</dc:format>
        <dc:type
           rdf:resource="http://purl.org/dc/dcmitype/StillImage" />
        <dc:title />
      </cc:Work>
    </rdf:RDF>
  </metadata>
  <g
     inkscape:label="Layer 1"
     inkscape:groupmode="layer"
     id="layer1">
    <g
       aria-label="hello wurld"
       id="text1919"
       style="font-size:7.7611px;font-family:'Bitstream Vera Serif';-inkscape-font-specification:'Bitstream Vera Serif';fill:#000000;stroke-width:0.264583">
      <path
         d="m 61.55047,71.059525 v -0.401698 h 0.629073 v -5.093222 h -0.666969 v -0.401697 h 1.364256 v 2.584507 q 0.193269,-0.409277 0.500227,-0.617705 0.310747,-0.208428 0.720024,-0.208428 0.666969,0 0.981506,0.382749 0.314537,0.38275 0.314537,1.193724 v 2.160072 h 0.621494 v 0.401698 h -1.925117 v -0.401698 h 0.602547 v -1.940275 q 0,-0.738972 -0.181901,-1.008033 -0.178111,-0.272852 -0.640442,-0.272852 -0.485069,0 -0.738972,0.352433 -0.253903,0.352433 -0.253903,1.026982 v 1.841745 h 0.606336 v 0.401698 z"
         style="stroke-width:0.264583;fill:none;stroke:#000000;stroke-opacity:1"
         id="path9" />
      <path
         d="m 70.437081,69.11925 h -3.005153 v 0.03032 q 0,0.814764 0.306958,1.23162 0.306957,0.413067 0.905714,0.413067 0.458542,0 0.750341,-0.238745 0.295589,-0.242535 0.413066,-0.716235 h 0.560861 q -0.166743,0.66318 -0.617705,0.996665 -0.447173,0.333485 -1.178565,0.333485 -0.882977,0 -1.4211,-0.579809 -0.534334,-0.583598 -0.534334,-1.546156 0,-0.954979 0.526755,-1.538578 0.526754,-0.583598 1.383203,-0.583598 0.913294,0 1.402152,0.56465 0.488859,0.560861 0.507807,1.633318 z m -0.822343,-0.401698 q -0.02274,-0.704865 -0.299379,-1.061088 -0.272851,-0.360012 -0.788237,-0.360012 -0.481279,0 -0.757919,0.360012 -0.276641,0.360012 -0.337275,1.061088 z"
         style="stroke-width:0.264583;fill:none;stroke:#000000;stroke-opacity:1"
         id="path11" />
      <path
         d="m 72.415252,70.657827 h 0.65939 v 0.401698 h -2.027436 v -0.401698 h 0.670759 v -5.093222 h -0.670759 v -0.401697 h 1.368046 z"
         style="stroke-width:0.264583;fill:none;stroke:#000000;stroke-opacity:1"
         id="path13" />
      <path
         d="m 74.897439,70.657827 h 0.65939 v 0.401698 h -2.027436 v -0.401698 h 0.67076 v -5.093222 h -0.67076 v -0.401697 h 1.368046 z"
         style="stroke-width:0.264583;fill:none;stroke:#000000;stroke-opacity:1"
         id="path15" />
      <path
         d="m 78.122389,70.794253 q 0.56086,0 0.84508,-0.443384 0.28801,-0.443383 0.28801,-1.307411 0,-0.864029 -0.28801,-1.303623 -0.28422,-0.443383 -0.84508,-0.443383 -0.560861,0 -0.848871,0.443383 -0.28422,0.439594 -0.28422,1.303623 0,0.864028 0.28801,1.307411 0.28801,0.443384 0.845081,0.443384 z m 0,0.37517 q -0.879187,0 -1.413521,-0.579809 -0.534334,-0.583598 -0.534334,-1.546156 0,-0.962559 0.530544,-1.542367 0.534334,-0.579809 1.417311,-0.579809 0.882976,0 1.41352,0.579809 0.534334,0.579808 0.534334,1.542367 0,0.962558 -0.534334,1.546156 -0.530544,0.579809 -1.41352,0.579809 z"
         style="stroke-width:0.264583;fill:none;stroke:#000000;stroke-opacity:1"
         id="path17" />
      <path
         d="m 86.652777,67.03118 1.030771,3.145368 0.909504,-2.739881 H 88.009454 V 67.03118 h 1.458996 v 0.405487 h -0.447173 l -1.197514,3.622858 H 87.243955 L 86.25108,68.046793 85.254415,71.059525 H 84.697344 L 83.50362,67.436667 H 83.052658 V 67.03118 h 1.822797 v 0.405487 h -0.651811 l 0.901925,2.739881 1.03835,-3.145368 z"
         style="stroke-width:0.264583;fill:none;stroke:#000000;stroke-opacity:1"
         id="path19" />
      <path
         d="m 92.318228,67.03118 h 1.303622 v 3.626647 h 0.659391 v 0.401698 H 92.924564 V 70.34708 q -0.19327,0.401697 -0.500227,0.613915 -0.306958,0.208428 -0.712445,0.208428 -0.670759,0 -0.989085,-0.37896 Q 90.40827,70.407713 90.40827,69.59295 V 67.436667 H 89.779196 V 67.03118 h 1.33015 v 2.345762 q 0,0.735183 0.178111,1.008034 0.181901,0.272851 0.644232,0.272851 0.485069,0 0.738972,-0.356222 0.253903,-0.356223 0.253903,-1.034561 v -1.830377 h -0.606336 z"
         style="stroke-width:0.264583;fill:none;stroke:#000000;stroke-opacity:1"
         id="path21" />
      <path
         d="m 98.27927,67.023601 v 1.008034 h -0.401698 q -0.01895,-0.299379 -0.166742,-0.447173 -0.147794,-0.147795 -0.432014,-0.147795 -0.515386,0 -0.792027,0.356223 -0.272851,0.356222 -0.272851,1.023192 v 1.841745 h 0.807185 v 0.401698 h -2.133545 v -0.401698 h 0.629074 v -3.228739 h -0.66697 V 67.03118 h 1.364256 v 0.716235 q 0.204639,-0.420646 0.526755,-0.621495 0.322115,-0.204638 0.784447,-0.204638 0.170532,0 0.356222,0.02653 0.18948,0.02653 0.397908,0.07579 z"
         style="stroke-width:0.264583;fill:none;stroke:#000000;stroke-opacity:1"
         id="path23" />
      <path
         d="m 99.870902,70.657827 h 0.659388 v 0.401698 h -2.027433 v -0.401698 h 0.670759 v -5.093222 h -0.670759 v -0.401697 h 1.368045 z"
         style="stroke-width:0.264583;fill:none;stroke:#000000;stroke-opacity:1"
         id="path25" />
      <path
         d="m 104.83528,70.657827 h 0.66696 v 0.401698 h -1.36425 v -0.629074 q -0.20464,0.37896 -0.52297,0.560861 -0.31453,0.178111 -0.78065,0.178111 -0.74277,0 -1.21646,-0.587388 -0.46992,-0.591178 -0.46992,-1.538577 0,-0.9474 0.46992,-1.534788 0.46991,-0.587388 1.21646,-0.587388 0.46612,0 0.78065,0.181901 0.31833,0.178111 0.52297,0.557071 v -2.095649 h -0.65939 v -0.401697 h 1.35668 z m -0.69729,-1.413521 v -0.397908 q 0,-0.723813 -0.28043,-1.106563 -0.27664,-0.382749 -0.80719,-0.382749 -0.53812,0 -0.81476,0.424435 -0.27285,0.424435 -0.27285,1.261937 0,0.833711 0.27285,1.261936 0.27664,0.428225 0.81476,0.428225 0.53055,0 0.80719,-0.37896 0.28043,-0.38275 0.28043,-1.110353 z"
         style="stroke-width:0.264583;fill:none;stroke:#000000;stroke-opacity:1"
         id="path27" />
    </g>
  </g>
</svg>
