<?xml version="1.0" encoding="UTF-8" standalone="no"?>
<!-- Created with Inkscape (http://www.inkscape.org/) -->

<svg
   sodipodi:docname="hershey_hello.svg"
   inkscape:version="1.2.2 (b0a8486541, 2022-12-01)"
   id="svg8"
   version="1.1"
   viewBox="0 0 250 135"
   height="135mm"
   width="250mm"
   xmlns:inkscape="http://www.inkscape.org/namespaces/inkscape"
   xmlns:sodipodi="http://sodipodi.sourceforge.net/DTD/sodipodi-0.dtd"
   xmlns="http://www.w3.org/2000/svg"
   xmlns:svg="http://www.w3.org/2000/svg"
   xmlns:rdf="http://www.w3.org/1999/02/22-rdf-syntax-ns#"
   xmlns:cc="http://creativecommons.org/ns#"
   xmlns:dc="http://purl.org/dc/elements/1.1/">
  <sodipodi:namedview
     id="base"
     pagecolor="#ffffff"
     bordercolor="#666666"
     borderopacity="1.0"
     inkscape:pageopacity="0.0"
     inkscape:pageshadow="2"
     inkscape:zoom="1.4"
     inkscape:cx="429.64286"
     inkscape:cy="255.71429"
     inkscape:document-units="mm"
     inkscape:current-layer="layer1"
     showgrid="false"
     inkscape:window-width="1920"
     inkscape:window-height="1009"
     inkscape:window-x="-8"
     inkscape:window-y="-8"
     inkscape:window-maximized="1"
     inkscape:showpageshadow="2"
     inkscape:pagecheckerboard="0"
     inkscape:deskcolor="#d1d1d1"
     showguides="false" />
  <defs
     id="defs2">
    <rect
       x="398.57143"
       y="38.571429"
       width="303.57143"
       height="101.42857"
       id="rect13521" />
    <rect
       x="139.28571"
       y="156.42857"
       width="226.42858"
       height="70"
       id="rect10126" />
    <rect
       x="773.57143"
       y="-11.428571"
       width="208.57143"
       height="139.28571"
       id="rect1435" />
    <rect
       x="780.71429"
       y="10"
       width="261.42857"
       height="155"
       id="rect986" />
    <rect
       x="1039.2857"
       y="-20"
       width="312.85714"
       height="265.71429"
       id="rect980" />
    <rect
       x="438.57143"
       y="152.85714"
       width="379.28571"
       height="149.28571"
       id="rect446" />
  </defs>
  <metadata
     id="metadata5">
    <rdf:RDF>
      <cc:Work
         rdf:about="">
        <dc:format>image/svg+xml</dc:format>
        <dc:type
           rdf:resource="http://purl.org/dc/dcmitype/StillImage" />
        <dc:title />
      </cc:Work>
    </rdf:RDF>
  </metadata>
  <g
     inkscape:label="Layer 1"
     inkscape:groupmode="layer"
     id="layer1"
     transform="translate(0, -162)">
    <g
       inkscape:label="Hershey Text"
       style="fill:none;stroke:#000000;stroke-linecap:round;stroke-linejoin:round"
       id="g797"
       transform="translate(10.394345,-0.75595238)">
      <g
         transform="translate(4.34673,173.339)"
         id="g795">
        <path
           d="M 220,662 V 0 m 0,662 H 630 M 220,346 h 252"
           style="stroke-width:0.178in"
           transform="scale(0.00987777,-0.00987777)"
           id="path771" />
        <path
           d="M 220,441 V 0 m 0,252 32,94 63,64 63,31 h 94"
           style="stroke-width:0.178in"
           transform="matrix(0.00987777,0,0,-0.00987777,5.6007,0)"
           id="path773" />
        <path
           d="m 189,662 31,-32 32,32 -32,31 -31,-31 M 220,441 V 0"
           style="stroke-width:0.178in"
           transform="matrix(0.00987777,0,0,-0.00987777,9.65058,0)"
           id="path775" />
        <path
           d="M 567,662 V 0 m 0,346 -63,64 -63,31 H 346 L 284,410 220,346 189,252 V 189 L 220,94.5 284,31.5 346,0 h 95 l 63,31.5 63,63"
           style="stroke-width:0.178in"
           transform="matrix(0.00987777,0,0,-0.00987777,12.1398,0)"
           id="path777" />
        <path
           d="M 567,441 V 0 m 0,346 -63,64 -63,31 H 346 L 284,410 220,346 189,252 V 189 L 220,94.5 284,31.5 346,0 h 95 l 63,31.5 63,63"
           style="stroke-width:0.178in"
           transform="matrix(0.00987777,0,0,-0.00987777,18.0467,0)"
           id="path779" />
        <path
           d="M 158,441 346,0 M 536,441 346,0 l -62,-126 -64,-63 -62,-31 h -32"
           style="stroke-width:0.178in"
           transform="matrix(0.00987777,0,0,-0.00987777,23.9536,0)"
           id="path781" />
        <path
           d="m 252,126 -32,-31.5 -31,31.5 31,32 32,-32 V 63 L 189,0"
           style="stroke-width:0.178in"
           transform="matrix(0.00987777,0,0,-0.00987777,28.932,0)"
           id="path783" />
        <path
           d="M 220,662 V 0 m 0,662 h 221 l 95,-32 62,-63 32,-63 32,-94 V 252 L 630,158 598,94.5 536,31.5 441,0 H 220"
           style="stroke-width:0.178in"
           transform="matrix(0.00987777,0,0,-0.00987777,35.155,0)"
           id="path785" />
        <path
           d="m 189,252 h 378 v 63 l -31,63 -32,32 -63,31 H 346 L 284,410 220,346 189,252 V 189 L 220,94.5 284,31.5 346,0 h 95 l 63,31.5 63,63"
           style="stroke-width:0.178in"
           transform="matrix(0.00987777,0,0,-0.00987777,41.6941,0)"
           id="path787" />
        <path
           d="m 567,346 -63,64 -63,31 H 346 L 284,410 220,346 189,252 V 189 L 220,94.5 284,31.5 346,0 h 95 l 63,31.5 63,63"
           style="stroke-width:0.178in"
           transform="matrix(0.00987777,0,0,-0.00987777,47.2948,0)"
           id="path789" />
        <path
           d="m 220,158 -31,-32 31,-31.5 32,31.5 -32,32"
           style="stroke-width:0.178in"
           transform="matrix(0.00987777,0,0,-0.00987777,52.8955,0)"
           id="path791" />
        <path
           d="m 598,441 -31,-95 -63,-62 -94,-32 h -32 l -94,32 -64,62 -31,95 v 31 l 31,95 64,63 94,32 h 32 l 94,-32 63,-63 31,-126 V 284 L 567,126 504,31.5 410,0 h -64 l -94,31.5 -32,63"
           style="stroke-width:0.178in"
           transform="matrix(0.00987777,0,0,-0.00987777,59.1185,0)"
           id="path793" />
      </g>
    </g>
    <g
       inkscape:label="Hershey Text"
       style="fill:none;stroke:#000000;stroke-linecap:round;stroke-linejoin:round"
       id="g1400"
       transform="translate(-9.0714286,0.1889881)">
      <g
         transform="translate(211.189,169.938)"
         id="g1368">
        <path
           d="M 220,662 V 0 M 662,662 V 0 M 220,346 h 442"
           style="stroke-width:0.2491in"
           transform="scale(0.00705556,-0.00705556)"
           id="path1350" />
        <path
           d="m 189,662 31,-32 32,32 -32,31 -31,-31 M 220,441 V 0"
           style="stroke-width:0.2491in"
           transform="matrix(0.00705556,0,0,-0.00705556,4.8895,0)"
           id="path1352" />
        <path
           d="M 567,441 V -63 l -31,-95 -32,-31 -63,-31 h -95 l -62,31 m 283,535 -63,64 -63,31 H 346 L 284,410 220,346 189,252 V 189 L 220,94.5 284,31.5 346,0 h 95 l 63,31.5 63,63"
           style="stroke-width:0.2491in"
           transform="matrix(0.00705556,0,0,-0.00705556,6.6675,0)"
           id="path1354" />
        <path
           d="M 220,662 V 0 m 0,315 95,95 63,31 h 94 l 64,-31 31,-95 V 0"
           style="stroke-width:0.2491in"
           transform="matrix(0.00705556,0,0,-0.00705556,10.8867,0)"
           id="path1356" />
        <path
           d="m 220,378 -31,-32 31,-31 32,31 -32,32 m 0,-220 -31,-32 31,-31.5 32,31.5 -32,32"
           style="stroke-width:0.2491in"
           transform="matrix(0.00705556,0,0,-0.00705556,15.106,0)"
           id="path1358" />
        <path
           d="M 504,662 189,220 H 662 M 504,662 V 0"
           style="stroke-width:0.2491in"
           transform="matrix(0.00705556,0,0,-0.00705556,16.884,0)"
           id="path1360" />
        <path
           d="M 630,662 315,0 M 189,662 h 441"
           style="stroke-width:0.2491in"
           transform="matrix(0.00705556,0,0,-0.00705556,21.329,0)"
           id="path1362" />
        <path
           d="m 236,765 -19,-9 -19,-19 -9,-19 -9,-28 v -47 l 9,-29 9,-19 19,-19 19,-9 h 38 l 19,9 19,19 9,19 10,29 v 47 l -10,28 -9,19 -19,19 -19,9 h -38"
           style="stroke-width:0.2491in"
           transform="matrix(0.00705556,0,0,-0.00705556,25.774,0)"
           id="path1364" />
        <path
           d="M 220,662 V 0 m 0,662 H 630 M 220,346 h 252"
           style="stroke-width:0.2491in"
           transform="matrix(0.00705556,0,0,-0.00705556,27.5308,0)"
           id="path1366" />
      </g>
      <g
         transform="translate(210.737,178.757)"
         id="g1386">
        <path
           d="M 220,662 V 0 m 0,0 h 378"
           style="stroke-width:0.2491in"
           transform="scale(0.00705556,-0.00705556)"
           id="path1370" />
        <path
           d="M 346,441 284,410 220,346 189,252 V 189 L 220,94.5 284,31.5 346,0 h 95 l 63,31.5 63,63 31,94.5 v 63 l -31,94 -63,64 -63,31 h -95"
           style="stroke-width:0.2491in"
           transform="matrix(0.00705556,0,0,-0.00705556,3.78178,0)"
           id="path1372" />
        <path
           d="M 189,441 315,0 M 441,441 315,0 M 441,441 567,0 M 693,441 567,0"
           style="stroke-width:0.2491in"
           transform="matrix(0.00705556,0,0,-0.00705556,8.00101,0)"
           id="path1374" />
        <path
           d="m 220,378 -31,-32 31,-31 32,31 -32,32 m 0,-220 -31,-32 31,-31.5 32,31.5 -32,32"
           style="stroke-width:0.2491in"
           transform="matrix(0.00705556,0,0,-0.00705556,12.8905,0)"
           id="path1376" />
        <path
           d="m 220,504 v 32 l 32,62 32,32 62,32 h 126 l 64,-32 31,-32 31,-62 V 472 L 567,410 504,315 189,0 h 441"
           style="stroke-width:0.2491in"
           transform="matrix(0.00705556,0,0,-0.00705556,17.3355,0)"
           id="path1378" />
        <path
           d="m 598,441 -31,-95 -63,-62 -94,-32 h -32 l -94,32 -64,62 -31,95 v 31 l 31,95 64,63 94,32 h 32 l 94,-32 63,-63 31,-126 V 284 L 567,126 504,31.5 410,0 h -64 l -94,31.5 -32,63"
           style="stroke-width:0.2491in"
           transform="matrix(0.00705556,0,0,-0.00705556,21.7805,0)"
           id="path1380" />
        <path
           d="m 236,765 -19,-9 -19,-19 -9,-19 -9,-28 v -47 l 9,-29 9,-19 19,-19 19,-9 h 38 l 19,9 19,19 9,19 10,29 v 47 l -10,28 -9,19 -19,19 -19,9 h -38"
           style="stroke-width:0.2491in"
           transform="matrix(0.00705556,0,0,-0.00705556,26.2255,0)"
           id="path1382" />
        <path
           d="M 220,662 V 0 m 0,662 H 630 M 220,346 h 252"
           style="stroke-width:0.2491in"
           transform="matrix(0.00705556,0,0,-0.00705556,27.9824,0)"
           id="path1384" />
      </g>
      <g
         transform="translate(222.061,187.576)"
         id="g1398">
        <path
           d="m 630,567 -63,63 -95,32 H 346 l -94,-32 -63,-63 v -63 l 31,-63 32,-31 63,-32 189,-63 63,-31 31,-32 32,-63 V 94.5 L 567,31.5 472,0 H 346 l -94,31.5 -63,63"
           style="stroke-width:0.2491in"
           transform="scale(0.00705556,-0.00705556)"
           id="path1388" />
        <path
           d="M 220,441 V 126 L 252,31.5 315,0 h 95 l 62,31.5 95,94.5 m 0,315 V 0"
           style="stroke-width:0.2491in"
           transform="matrix(0.00705556,0,0,-0.00705556,4.445,0)"
           id="path1390" />
        <path
           d="M 220,441 V 0 m 0,315 95,95 63,31 h 94 l 64,-31 31,-95 V 0"
           style="stroke-width:0.2491in"
           transform="matrix(0.00705556,0,0,-0.00705556,8.66423,0)"
           id="path1392" />
        <path
           d="M 220,441 V 0 m 0,315 95,95 63,31 h 94 l 64,-31 31,-95 V 0"
           style="stroke-width:0.2491in"
           transform="matrix(0.00705556,0,0,-0.00705556,12.8835,0)"
           id="path1394" />
        <path
           d="M 158,441 346,0 M 536,441 346,0 l -62,-126 -64,-63 -62,-31 h -32"
           style="stroke-width:0.2491in"
           transform="matrix(0.00705556,0,0,-0.00705556,17.1027,0)"
           id="path1396" />
      </g>
    </g>
    <circle
       style="fill:none;stroke:#000000;stroke-width:0.121144;stroke-opacity:1"
       id="path1491"
       cx="223.18983"
       cy="197.51443"
       r="3.764138" />
    <path
       style="fill:none;stroke:#000000;stroke-width:0.171621;stroke-opacity:1"
       d="m 223.25112,192.18191 c 0,-0.93984 0,-1.87967 0,-2.8195 m 4.78089,7.96814 c 1.34846,0 2.69691,0 4.04537,0 m -9.19402,5.27124 c 0,1.14415 0,2.28829 0,3.43243 m -4.78088,-8.33591 c -0.34929,-0.13804 -3.5546,0.16374 -3.80019,0 -0.41111,-0.27406 -0.0812,-0.24517 -0.36777,-0.24517 m 5.51641,-3.67761 -2.32915,-2.94208 m 9.68436,3.30985 c 0.0408,0.0248 0.77441,-0.0668 0.85811,-0.12259 0.076,-0.0507 0.0495,-0.19035 0.12259,-0.24518 0.10338,-0.0775 0.27639,-0.0312 0.36776,-0.12258 0.0578,-0.0578 -0.0578,-0.18739 0,-0.24518 0.0578,-0.0578 0.17208,0.0365 0.24518,0 0.0534,-0.0267 0.0215,-0.43979 0.12258,-0.49034 0.10964,-0.0548 0.31294,0.10964 0.36776,0 0.0365,-0.0731 -0.0578,-0.18739 0,-0.24518 0.0642,-0.0642 0.53337,-0.0695 0.61294,-0.12259 0.076,-0.0507 0.0466,-0.19449 0.12258,-0.24517 0.068,-0.0453 0.16765,0.0258 0.24517,0 0.16447,-0.0548 0.22352,-0.27159 0.36777,-0.36776 0.034,-0.0226 0.0937,0.0289 0.12259,0 0.0289,-0.0289 -0.0366,-0.10431 0,-0.12259 0.0731,-0.0365 0.18738,0.0578 0.24517,0 0.0578,-0.0578 -0.0365,-0.17207 0,-0.24517 0.0183,-0.0365 0.0937,0.0289 0.12258,0 0.0289,-0.0289 -0.0226,-0.0886 0,-0.12259 0.15901,-0.2385 0.36777,-0.17049 0.36777,-0.36775 m -4.6583,9.92953 c 0.31515,0.1455 0.65538,0.30886 0.8581,0.61293 0.0227,0.034 0,0.0817 0,0.12259 0.0409,0.0817 0.058,0.18057 0.12259,0.24518 0.0646,0.0646 0.19449,0.0466 0.24517,0.12258 0.025,0.0376 0.0371,0.69278 0.12259,0.73552 0.1446,0.0723 0.47884,-0.0894 0.61294,0 0.076,0.0507 0.0466,0.19449 0.12258,0.24518 0.12574,0.0838 0.50634,0.016 0.61294,0.12259 0.0578,0.0578 -0.0366,0.17207 0,0.24517 0.0578,0.11557 0.29608,0.015 0.36776,0.12258 0.19069,0.28604 -0.17707,0.24518 0.12258,0.24518 m -10.05212,-2.69691 c -0.26046,0.007 -1.49969,0.69888 -1.59363,0.98069 -0.0388,0.1163 0.10965,0.31294 0,0.36776 -0.10965,0.0548 -0.31294,-0.10964 -0.36776,0 -0.0723,0.1446 0.0894,0.47885 0,0.61294 -0.0507,0.076 -0.18057,0.058 -0.24517,0.12259 -0.0646,0.0646 -0.0466,0.19449 -0.12259,0.24517 -0.25379,0.16919 -0.10842,-0.13675 -0.61294,0.36776"
       id="path2469" />
    <g
       aria-label="WELCOME
CS 490!"
       transform="matrix(0.77896273,0,0,0.77896273,-291.15486,133.65701)"
       id="text13519"
       style="font-size:26.6667px;text-align:center;text-anchor:middle;white-space:pre;shape-inside:url(#rect13521);fill:none;stroke:#000000">
      <path
         d="m 507.14773,43.513059 c -1.67969,6.462682 -3.35938,12.925364 -5.03907,19.388046 -2.16099,0.408917 -3.55953,-0.161754 -3.54793,-2.544189 -1.14375,-4.516527 -2.28749,-9.033055 -3.43124,-13.549582 -1.32813,5.36459 -2.65625,10.729181 -3.98438,16.093771 -2.15386,0.43237 -3.48703,-0.201349 -3.5099,-2.537179 -1.48629,-5.616955 -2.97257,-11.233911 -4.45886,-16.850867 2.15145,-0.50799 3.2613,0.321743 3.28653,2.544436 1.14408,4.525126 2.28815,9.050251 3.43223,13.575377 1.33681,-5.373271 2.67361,-10.746542 4.01042,-16.119813 2.31592,-0.603166 3.18977,0.638493 3.32125,2.829839 1.11514,4.482075 2.23028,8.964149 3.34542,13.446224 1.34983,-5.425354 2.69966,-10.850709 4.04949,-16.276063 0.84201,0 1.68403,0 2.52604,0 z"
         id="path13529" />
      <path
         d="m 523.72327,62.901105 c -4.25782,0 -8.51563,0 -12.77345,0 0,-6.462682 0,-12.925364 0,-19.388046 4.25782,0 8.51563,0 12.77345,0 0.78038,2.613509 -1.20546,2.460798 -3.20772,2.29167 -2.3292,0 -4.6584,0 -6.9876,0 0,1.770836 0,3.541671 0,5.312507 3.39844,0 6.79688,0 10.19532,0 0.78038,2.613509 -1.20546,2.460797 -3.20772,2.291669 -2.3292,0 -4.6584,0 -6.9876,0 0,2.400177 0,4.800353 0,7.20053 3.39844,0 6.79688,0 10.19532,0 0,0.76389 0,1.52778 0,2.29167 z"
         id="path13531" />
      <path
         d="m 540.07746,62.901105 c -4.08855,0 -8.17709,0 -12.26564,0 0,-6.462682 0,-12.925364 0,-19.388046 2.4683,-0.636891 2.97431,0.688519 2.57813,2.91611 0,4.726755 0,9.453511 0,14.180266 3.22917,0 6.45834,0 9.68751,0 0,0.76389 0,1.52778 0,2.29167 z"
         id="path13533" />
      <path
         d="m 557.36915,61.494853 c -5.00293,2.95371 -13.29126,2.488425 -15.37762,-3.82813 -2.07108,-5.50297 0.11956,-13.538606 6.76107,-14.33921 3.06176,-0.265832 9.70486,-0.372052 8.61655,4.164214 -2.26075,-0.976248 -8.50932,-4.124426 -11.49741,-0.176579 -3.58078,4.198305 -2.30371,13.23178 4.1097,13.682471 3.11015,1.757075 8.45273,-5.522729 7.38771,0.100896 v 0.291611 z"
         id="path13535" />
      <path
         d="m 575.46813,45.739625 c 4.14133,5.031461 3.29847,15.100054 -3.68164,17.191591 -5.91435,2.089411 -12.39418,-2.843846 -11.8685,-9.12375 -0.95761,-6.182379 4.64631,-12.213347 10.96355,-10.525527 1.7298,0.320779 3.39478,1.146456 4.58659,2.457686 z m -0.23437,7.473968 c 0.65941,-4.613865 -3.61702,-9.35331 -8.35431,-7.588308 -4.99611,1.822413 -5.24396,8.87686 -2.97302,12.898983 2.80867,4.512518 10.6623,2.675311 11.08563,-2.700198 0.17532,-0.858187 0.24125,-1.735701 0.2417,-2.610477 z"
         id="path13537" />
      <path
         d="m 599.27024,62.901105 c -2.4683,0.636891 -2.97431,-0.688519 -2.57813,-2.91611 0,-4.596546 0,-9.193093 0,-13.78964 -1.79688,3.789067 -3.59375,7.578134 -5.39063,11.367201 -2.21555,0.693076 -2.21309,-2.109586 -3.1512,-3.429848 -1.24561,-2.645785 -2.49122,-5.291569 -3.73683,-7.937353 0,5.568583 0,11.137167 0,16.70575 -2.47838,0.703398 -2.72813,-0.821847 -2.40885,-2.91611 0,-5.490645 0,-10.981291 0,-16.471936 1.64931,0.16795 4.00012,-0.777826 4.27134,1.578047 1.47119,3.072079 2.94237,6.144159 4.41356,9.216238 1.66667,-3.598095 3.33334,-7.19619 5.00001,-10.794285 1.58311,0.193693 4.42408,-0.870486 3.58073,1.749666 0,5.87946 0,11.75892 0,17.63838 z"
         id="path13539" />
      <path
         d="m 617.25204,62.901105 c -4.25782,0 -8.51563,0 -12.77345,0 0,-6.462682 0,-12.925364 0,-19.388046 4.25782,0 8.51563,0 12.77345,0 0.78038,2.613509 -1.20546,2.460798 -3.20772,2.29167 -2.3292,0 -4.6584,0 -6.9876,0 0,1.770836 0,3.541671 0,5.312507 3.39844,0 6.79688,0 10.19532,0 0.78038,2.613509 -1.20546,2.460797 -3.20772,2.291669 -2.3292,0 -4.6584,0 -6.9876,0 0,2.400177 0,4.800353 0,7.20053 3.39844,0 6.79688,0 10.19532,0 0,0.76389 0,1.52778 0,2.29167 z"
         id="path13541" />
      <path
         d="m 514.14644,94.828227 c -5.00293,2.95371 -13.29126,2.488425 -15.37762,-3.82813 -2.07108,-5.50297 0.11956,-13.538606 6.76107,-14.33921 3.06176,-0.265832 9.70486,-0.372052 8.61655,4.164214 -2.26075,-0.976248 -8.50932,-4.124426 -11.49741,-0.176579 -3.58078,4.198305 -2.30371,13.23178 4.1097,13.682471 3.11015,1.757075 8.45273,-5.522729 7.38771,0.100896 V 94.7235 Z"
         id="path13543" />
      <path
         d="m 531.88084,90.700618 c -0.23323,5.583591 -7.2133,6.742486 -11.5495,5.494798 -2.91043,0.209345 -4.14645,-2.259199 -3.21615,-4.388026 2.97387,4.23765 15.8086,3.09121 10.65431,-3.186853 -4.17155,-1.163751 -11.93371,-1.337872 -10.59083,-7.740895 1.82287,-5.375798 8.90296,-4.965008 13.23895,-3.305668 1.48328,0.988342 0.90346,5.338638 -1.556,2.098798 -3.58747,-3.17014 -13.25943,0.951654 -7.03206,4.87468 3.69152,1.081045 10.20767,0.67916 10.05128,6.153166 z"
         id="path13545" />
      <path
         d="m 558.45639,90.778743 c -2.26601,-0.431969 -3.48465,0.183423 -2.87761,2.624499 0.39046,2.167537 -0.10172,3.452441 -2.5,2.831237 0,-1.818579 0,-3.637157 0,-5.455736 -3.09462,0 -6.18925,0 -9.28387,0 -0.16928,-1.838581 -0.11987,-3.59618 1.51944,-4.765015 2.62286,-3.055765 5.24573,-6.111529 7.86859,-9.167294 2.47912,-0.708469 2.70919,0.832108 2.39584,2.91611 0,2.977621 0,5.955242 0,8.932863 2.05964,0.09623 3.40375,-0.7263 2.87761,2.083336 z m -5.37761,-2.083336 c 0,-2.91667 0,-5.833341 0,-8.750011 -2.50434,2.91667 -5.00869,5.833341 -7.51303,8.750011 2.50434,0 5.00869,0 7.51303,0 z"
         id="path13547" />
      <path
         d="m 574.94079,85.37509 c 0.49855,5.543062 -3.35926,11.770217 -9.4922,11.236993 -3.49806,1.03216 -3.10438,-4.891987 0.39062,-2.239591 3.55459,1.437162 8.27554,-6.291207 5.23113,-5.859382 -4.59587,2.574162 -11.34474,-1.183779 -9.73146,-6.779794 0.81368,-6.083108 10.40197,-7.243742 12.67173,-1.56006 0.76778,1.616495 0.92364,3.43643 0.93018,5.201834 z m -2.63022,-0.559896 c 1.84548,-6.26539 -8.75436,-8.943871 -8.45053,-1.770836 -0.96071,4.736563 8.07503,5.549263 8.45053,1.770836 z"
         id="path13549" />
      <path
         d="m 591.89393,86.533946 c 0.47923,4.624109 -1.80242,11.093338 -7.54883,10.065523 -5.71308,-0.488287 -6.13317,-7.433879 -5.80542,-11.882746 -0.63405,-5.270842 4.52456,-10.314933 9.6661,-7.632659 3.34793,1.756946 3.62001,6.119711 3.68815,9.449882 z m -3.42448,5.911466 c 0.88611,-4.31938 2.26064,-11.057762 -2.1582,-13.714211 -6.70752,-0.727675 -5.2626,8.255974 -4.81772,12.522802 0.29576,3.590363 5.58148,4.543991 6.97592,1.191409 z"
         id="path13551" />
      <path
         d="m 600.35748,76.846434 c -0.11285,4.683165 -0.22569,9.366331 -0.33854,14.049496 -2.58964,0.803116 -2.37379,-1.272998 -2.29676,-3.206641 -0.0938,-3.614285 -0.18758,-7.22857 -0.28137,-10.842855 0.97222,0 1.94445,0 2.91667,0 z m -0.13021,19.388045 c -2.27914,0.518889 -3.19679,-0.323714 -2.65625,-2.624499 1.74719,-0.618284 3.41178,-0.0796 2.65625,2.209988 v 0.291611 z"
         id="path13553" />
    </g>
    <path
       sodipodi:type="star"
       style="fill:none;stroke:#000000;stroke-width:0.264583;stroke-opacity:1"
       id="path13525"
       inkscape:flatsided="false"
       sodipodi:sides="5"
       sodipodi:cx="347.85715"
       sodipodi:cy="98.571426"
       sodipodi:r1="21.852942"
       sodipodi:r2="10.92647"
       sodipodi:arg1="2.9441971"
       sodipodi:arg2="3.5725156"
       inkscape:rounded="0"
       inkscape:randomized="0"
       d="m 326.42858,102.85714 11.50099,-8.849804 -0.77017,-14.491334 11.97067,8.203354 13.54408,-5.210544 -4.10272,13.919757 9.14088,11.271041 -14.50629,0.39953 -7.89471,12.17643 -4.86266,-13.67284 z"
       transform="matrix(0.26458333,0,0,0.26458333,-5.2916667,170.31547)"
       inkscape:transform-center-x="0.20815063"
       inkscape:transform-center-y="0.35040287" />
    <path
       sodipodi:type="star"
       style="fill:none;stroke:#000000;stroke-width:0.264583;stroke-opacity:1"
       id="path13527"
       inkscape:flatsided="false"
       sodipodi:sides="5"
       sodipodi:cx="722.14288"
       sodipodi:cy="100"
       sodipodi:r1="23.178543"
       sodipodi:r2="11.589271"
       sodipodi:arg1="2.1587989"
       sodipodi:arg2="2.7871175"
       inkscape:rounded="0"
       inkscape:randomized="0"
       d="m 709.28574,119.28571 1.98839,-15.2631 -11.44613,-10.290865 15.13052,-2.825486 6.25015,-14.065968 7.36278,13.516853 15.30894,1.597624 -10.58007,11.179362 3.21129,15.05335 -13.90162,-6.60763 z"
       transform="matrix(0.24549912,-0.09866368,0.09866368,0.24549912,1.6473016,243.28418)"
       inkscape:transform-center-x="-0.1795741"
       inkscape:transform-center-y="-3.0079817" />
    <rect
       style="fill:none;stroke:#000000;stroke-width:0.264583;stroke-opacity:1"
       id="rect3249"
       width="60.85416"
       height="57.641373"
       x="14.552083"
       y="186.37946" />
    <path
       style="fill:none;stroke:#000000;stroke-linecap:round;stroke-linejoin:round;stroke-width:0.264583;stroke-opacity:1"
       d="m 14.552084,196.20685 61.043154,-0.18899"
       id="path13432"
       sodipodi:nodetypes="cc"
       transform="translate(0)" />
    <g
       inkscape:label="Hershey Text"
       style="fill:none;stroke:#000000;stroke-linecap:round;stroke-linejoin:round"
       id="g12997"
       transform="translate(3.2127978,-2.6458321)">
      <g
         transform="translate(30.2381,196.018)"
         id="g12995">
        <path
           d="M 78.8,31.5 V 224 129 l 41.2,-31.4 72,-44 85,-25.2 98,-3.2 82,22 63,47.3 28,56.5 6,79 -34,60 -66,38 -82,25 -129,38 -101,37 -44.4,38 -25.1,51 6.3,72 34.2,57 54,34 76,13 h 97 l 66,-22 51,-32 41,-31 31,-32 v -78 195"
           style="stroke-width:0.2491in"
           transform="scale(0.00705556,-0.00705556)"
           id="path12983" />
        <path
           d="M 18.9,-164 H 239 113 V 495 H 25.2 113 V 375 l 63,60 89,63 91,9 88,-35 60,-72 22,-94 -3,-92 L 504,139 457,85.1 394,50.4 334,37.8 284,31.5 H 120"
           style="stroke-width:0.2491in"
           transform="matrix(0.00705556,0,0,-0.00705556,4.69195,0)"
           id="path12985" />
        <path
           d="m 280,25.2 66,6.3 73,37.8 53,59.7 26,76 6,82 -13,69 -37,66 -51,44 -69,32 -54,6 -85,-9 -78,-57 -47.7,-69 -15.8,-89 3.2,-85 34.7,-75 56.6,-60.1 76,-31.5 56,-3.2"
           style="stroke-width:0.2491in"
           transform="matrix(0.00705556,0,0,-0.00705556,9.20045,0)"
           id="path12987" />
        <path
           d="M 252,31.5 H 31.5 132 V 495 H 41 132 V 350 l 44,50 41,41 51,31 44,23 53,6 h 76 V 378"
           style="stroke-width:0.2491in"
           transform="matrix(0.00705556,0,0,-0.00705556,13.4479,0)"
           id="path12989" />
        <path
           d="M 113,690 V 495 H 18.9 306 113 V 145 l 13,-50.5 25,-37.8 41,-25.2 41,-6.3 51,6.3 50,22.1 28,25.2"
           style="stroke-width:0.2491in"
           transform="matrix(0.00705556,0,0,-0.00705556,17.138,0)"
           id="path12991" />
        <path
           d="M 63,31.5 V 195 126 l 41,-37.8 47,-34.6 63,-25.2 60,-6.4 76,9.5 66,28.4 34,41.1 10,44 -10,50 -44,35 -53,19 -95,16 -88,15 -57,22 -37.4,32 -12.6,38 v 41 l 22,41 57,37 53,10 h 82 l 54,-16 41,-25 38,-35 28,-25 v -66 161"
           style="stroke-width:0.2491in"
           transform="matrix(0.00705556,0,0,-0.00705556,20.0025,0)"
           id="path12993" />
      </g>
    </g>
    <path
       sodipodi:type="spiral"
       style="fill:none;fill-rule:evenodd;stroke:#000000;stroke-width:0.264583"
       id="path13493"
       sodipodi:cx="37.857143"
       sodipodi:cy="115"
       sodipodi:expansion="1"
       sodipodi:revolution="3"
       sodipodi:radius="16.288219"
       sodipodi:argument="-19.510599"
       sodipodi:t0="0"
       d="m 37.857143,115 c 0.644637,-0.50138 0.993897,0.62159 0.833334,1.07143 -0.435117,1.21903 -2.066309,1.21984 -2.976191,0.59524 -1.627565,-1.11727 -1.539349,-3.47924 -0.357143,-4.88096 1.734935,-2.05707 4.912308,-1.87104 6.785714,-0.11904 2.496957,2.33513 2.208095,6.35266 -0.119047,8.69047 -2.92847,2.9419 -7.796519,2.54795 -10.595237,-0.35714 -3.389623,-3.51845 -2.889432,-9.24235 0.595237,-12.5 4.106561,-3.83902 10.689424,-3.23194 14.404761,0.83333 4.289504,4.69352 3.575128,12.13732 -1.071428,16.30953 -5.279711,4.74072 -13.58579,3.91879 -18.214284,-1.30953 -5.192471,-5.86538 -4.262809,-15.03468 1.547618,-20.11904 C 35.141152,97.569681 45.174372,98.607205 50.714285,105"
       transform="matrix(0.26458333,0,0,0.26458333,9.6383927,161.24405)" />
    <path
       sodipodi:type="spiral"
       style="fill:none;fill-rule:evenodd;stroke:#000000;stroke-width:0.264583"
       id="path13493-6"
       sodipodi:cx="37.857143"
       sodipodi:cy="115"
       sodipodi:expansion="1"
       sodipodi:revolution="3"
       sodipodi:radius="16.288219"
       sodipodi:argument="-19.510599"
       sodipodi:t0="0"
       d="m 37.857143,115 c 0.644637,-0.50138 0.993897,0.62159 0.833334,1.07143 -0.435117,1.21903 -2.066309,1.21984 -2.976191,0.59524 -1.627565,-1.11727 -1.539349,-3.47924 -0.357143,-4.88096 1.734935,-2.05707 4.912308,-1.87104 6.785714,-0.11904 2.496957,2.33513 2.208095,6.35266 -0.119047,8.69047 -2.92847,2.9419 -7.796519,2.54795 -10.595237,-0.35714 -3.389623,-3.51845 -2.889432,-9.24235 0.595237,-12.5 4.106561,-3.83902 10.689424,-3.23194 14.404761,0.83333 4.289504,4.69352 3.575128,12.13732 -1.071428,16.30953 -5.279711,4.74072 -13.58579,3.91879 -18.214284,-1.30953 -5.192471,-5.86538 -4.262809,-15.03468 1.547618,-20.11904 C 35.141152,97.569681 45.174372,98.607205 50.714285,105"
       transform="matrix(0.26458333,0,0,0.26458333,61.025376,161.03423)" />
    <g
       inkscape:label="Hershey Text"
       style="fill:none;stroke:#000000;stroke-linecap:round;stroke-linejoin:round"
       id="g7654"
       transform="translate(-10.96131,12.473214)">
      <g
         transform="translate(35.9211,193.183)"
         id="g7636">
        <path
           d="m 662,504 -32,63 -63,63 -63,32 H 378 L 315,630 252,567 220,504 189,410 V 252 l 31,-94 32,-63.5 63,-63 L 378,0 h 126 l 63,31.5 63,63 32,63.5"
           style="stroke-width:0.2491in"
           transform="scale(0.00705556,-0.00705556)"
           id="path7614" />
        <path
           d="m 189,252 h 378 v 63 l -31,63 -32,32 -63,31 H 346 L 284,410 220,346 189,252 V 189 L 220,94.5 284,31.5 346,0 h 95 l 63,31.5 63,63"
           style="stroke-width:0.2491in"
           transform="matrix(0.00705556,0,0,-0.00705556,4.67078,0)"
           id="path7616" />
        <path
           d="M 220,662 V 0"
           style="stroke-width:0.2491in"
           transform="matrix(0.00705556,0,0,-0.00705556,8.67128,0)"
           id="path7618" />
        <path
           d="M 252,662 V 126 L 284,31.5 346,0 h 64 M 158,441 h 220"
           style="stroke-width:0.2491in"
           transform="matrix(0.00705556,0,0,-0.00705556,10.4493,0)"
           id="path7620" />
        <path
           d="m 189,662 31,-32 32,32 -32,31 -31,-31 M 220,441 V 0"
           style="stroke-width:0.2491in"
           transform="matrix(0.00705556,0,0,-0.00705556,13.1163,0)"
           id="path7622" />
        <path
           d="m 567,346 -63,64 -63,31 H 346 L 284,410 220,346 189,252 V 189 L 220,94.5 284,31.5 346,0 h 95 l 63,31.5 63,63"
           style="stroke-width:0.2491in"
           transform="matrix(0.00705556,0,0,-0.00705556,14.8943,0)"
           id="path7624" />
        <path
           d="m 536,346 -32,64 -94,31 h -95 l -95,-31 -31,-64 31,-62 64,-32 157,-32 63,-31 32,-63 V 94.5 L 504,31.5 410,0 h -95 l -95,31.5 -31,63"
           style="stroke-width:0.2491in"
           transform="matrix(0.00705556,0,0,-0.00705556,18.8948,0)"
           id="path7626" />
        <path
           d="m 220,378 -31,-32 31,-31 32,31 -32,32 m 0,-220 -31,-32 31,-31.5 32,31.5 -32,32"
           style="stroke-width:0.2491in"
           transform="matrix(0.00705556,0,0,-0.00705556,22.6766,0)"
           id="path7628" />
        <path
           d="m 284,536 62,31 95,95 V 0"
           style="stroke-width:0.2491in"
           transform="matrix(0.00705556,0,0,-0.00705556,27.1216,0)"
           id="path7630" />
        <path
           d="m 220,504 v 32 l 32,62 32,32 62,32 h 126 l 64,-32 31,-32 31,-62 V 472 L 567,410 504,315 189,0 h 441"
           style="stroke-width:0.2491in"
           transform="matrix(0.00705556,0,0,-0.00705556,31.5666,0)"
           id="path7632" />
        <path
           d="M 567,662 H 252 l -32,-284 32,32 94,31 h 95 l 95,-31 62,-64 32,-94 V 189 L 598,94.5 536,31.5 441,0 H 346 L 252,31.5 220,63 189,126"
           style="stroke-width:0.2491in"
           transform="matrix(0.00705556,0,0,-0.00705556,36.0116,0)"
           id="path7634" />
      </g>
      <g
         transform="translate(41.1493,202.002)"
         id="g7652">
        <path
           d="m 630,567 -63,63 -95,32 H 346 l -94,-32 -63,-63 v -63 l 31,-63 32,-31 63,-32 189,-63 63,-31 31,-32 32,-63 V 94.5 L 567,31.5 472,0 H 346 l -94,31.5 -63,63"
           style="stroke-width:0.2491in"
           transform="scale(0.00705556,-0.00705556)"
           id="path7638" />
        <path
           d="M 220,441 V 126 L 252,31.5 315,0 h 95 l 62,31.5 95,94.5 m 0,315 V 0"
           style="stroke-width:0.2491in"
           transform="matrix(0.00705556,0,0,-0.00705556,4.445,0)"
           id="path7640" />
        <path
           d="M 220,441 V 0 m 0,315 95,95 63,31 h 94 l 64,-31 31,-95 V 0"
           style="stroke-width:0.2491in"
           transform="matrix(0.00705556,0,0,-0.00705556,8.66423,0)"
           id="path7642" />
        <path
           d="m 536,346 -32,64 -94,31 h -95 l -95,-31 -31,-64 31,-62 64,-32 157,-32 63,-31 32,-63 V 94.5 L 504,31.5 410,0 h -95 l -95,31.5 -31,63"
           style="stroke-width:0.2491in"
           transform="matrix(0.00705556,0,0,-0.00705556,12.8835,0)"
           id="path7644" />
        <path
           d="m 220,378 -31,-32 31,-31 32,31 -32,32 m 0,-220 -31,-32 31,-31.5 32,31.5 -32,32"
           style="stroke-width:0.2491in"
           transform="matrix(0.00705556,0,0,-0.00705556,16.6652,0)"
           id="path7646" />
        <path
           d="m 598,441 -31,-95 -63,-62 -94,-32 h -32 l -94,32 -64,62 -31,95 v 31 l 31,95 64,63 94,32 h 32 l 94,-32 63,-63 31,-126 V 284 L 567,126 504,31.5 410,0 h -64 l -94,31.5 -32,63"
           style="stroke-width:0.2491in"
           transform="matrix(0.00705556,0,0,-0.00705556,21.1102,0)"
           id="path7648" />
        <path
           d="m 346,662 -94,-32 -32,-63 v -63 l 32,-63 63,-31 126,-32 95,-32 62,-62 32,-64 V 126 L 598,63 567,31.5 472,0 H 346 L 252,31.5 220,63 189,126 v 94 l 31,64 64,62 94,32 126,32 63,31 31,63 v 63 l -31,63 -95,32 H 346"
           style="stroke-width:0.2491in"
           transform="matrix(0.00705556,0,0,-0.00705556,25.5552,0)"
           id="path7650" />
      </g>
    </g>
    <path
       style="fill:none;stroke:#000000;stroke-width:0.264583;stroke-opacity:1"
       d="m 22.678572,220.01935 45.735118,-1e-5"
       id="path13434"
       sodipodi:nodetypes="cc"
       transform="translate(0)" />
    <g
       inkscape:label="Hershey Text"
       style="fill:none;stroke:#000000;stroke-linecap:round;stroke-linejoin:round"
       transform="matrix(0.264583,0,0,0.264583,-21.355653,182.22171)"
       id="g10997">
      <g
         transform="translate(205.423,180.757)"
         id="g10969">
        <path
           d="M 220,662 V 189 L 252,94.5 315,31.5 410,0 h 62 l 95,31.5 63,63 32,94.5 v 473"
           style="stroke-width:0.2491in"
           transform="scale(0.0266667,-0.0266667)"
           id="path10959" />
        <path
           d="m 630,567 -63,63 -95,32 H 346 l -94,-32 -63,-63 v -63 l 31,-63 32,-31 63,-32 189,-63 63,-31 31,-32 32,-63 V 94.5 L 567,31.5 472,0 H 346 l -94,31.5 -63,63"
           style="stroke-width:0.2491in"
           transform="matrix(0.0266667,0,0,-0.0266667,18.48,0)"
           id="path10961" />
        <path
           d="M 378,662 126,0 M 378,662 630,0 M 220,220 h 316"
           style="stroke-width:0.2491in"
           transform="matrix(0.0266667,0,0,-0.0266667,35.28,0)"
           id="path10963" />
        <path
           d="m 220,378 -31,-32 31,-31 32,31 -32,32 m 0,-220 -31,-32 31,-31.5 32,31.5 -32,32"
           style="stroke-width:0.2491in"
           transform="matrix(0.0266667,0,0,-0.0266667,50.4001,0)"
           id="path10965" />
        <path
           d="m 284,536 62,31 95,95 V 0"
           style="stroke-width:0.2491in"
           transform="matrix(0.0266667,0,0,-0.0266667,67.2001,0)"
           id="path10967" />
      </g>
      <g
         transform="translate(159.629,214.09)"
         id="g10995">
        <path
           d="M 220,662 V 0 M 220,662 662,0 m 0,662 V 0"
           style="stroke-width:0.2491in"
           transform="scale(0.0266667,-0.0266667)"
           id="path10971" />
        <path
           d="m 189,252 h 378 v 63 l -31,63 -32,32 -63,31 H 346 L 284,410 220,346 189,252 V 189 L 220,94.5 284,31.5 346,0 h 95 l 63,31.5 63,63"
           style="stroke-width:0.2491in"
           transform="matrix(0.0266667,0,0,-0.0266667,18.48,0)"
           id="path10973" />
        <path
           d="M 252,662 V 126 L 284,31.5 346,0 h 64 M 158,441 h 220"
           style="stroke-width:0.2491in"
           transform="matrix(0.0266667,0,0,-0.0266667,33.6,0)"
           id="path10975" />
        <path
           d="M 220,662 V 0 m 0,315 95,95 63,31 h 94 l 64,-31 31,-95 V 0"
           style="stroke-width:0.2491in"
           transform="matrix(0.0266667,0,0,-0.0266667,43.6801,0)"
           id="path10977" />
        <path
           d="m 189,252 h 378 v 63 l -31,63 -32,32 -63,31 H 346 L 284,410 220,346 189,252 V 189 L 220,94.5 284,31.5 346,0 h 95 l 63,31.5 63,63"
           style="stroke-width:0.2491in"
           transform="matrix(0.0266667,0,0,-0.0266667,59.6267,0)"
           id="path10979" />
        <path
           d="M 220,441 V 0 m 0,252 32,94 63,64 63,31 h 94"
           style="stroke-width:0.2491in"
           transform="matrix(0.0266667,0,0,-0.0266667,74.7468,0)"
           id="path10981" />
        <path
           d="M 220,662 V 0"
           style="stroke-width:0.2491in"
           transform="matrix(0.0266667,0,0,-0.0266667,85.6801,0)"
           id="path10983" />
        <path
           d="M 567,441 V 0 m 0,346 -63,64 -63,31 H 346 L 284,410 220,346 189,252 V 189 L 220,94.5 284,31.5 346,0 h 95 l 63,31.5 63,63"
           style="stroke-width:0.2491in"
           transform="matrix(0.0266667,0,0,-0.0266667,92.4001,0)"
           id="path10985" />
        <path
           d="M 220,441 V 0 m 0,315 95,95 63,31 h 94 l 64,-31 31,-95 V 0"
           style="stroke-width:0.2491in"
           transform="matrix(0.0266667,0,0,-0.0266667,108.347,0)"
           id="path10987" />
        <path
           d="M 567,662 V 0 m 0,346 -63,64 -63,31 H 346 L 284,410 220,346 189,252 V 189 L 220,94.5 284,31.5 346,0 h 95 l 63,31.5 63,63"
           style="stroke-width:0.2491in"
           transform="matrix(0.0266667,0,0,-0.0266667,124.293,0)"
           id="path10989" />
        <path
           d="m 220,378 -31,-32 31,-31 32,31 -32,32 m 0,-220 -31,-32 31,-31.5 32,31.5 -32,32"
           style="stroke-width:0.2491in"
           transform="matrix(0.0266667,0,0,-0.0266667,140.24,0)"
           id="path10991" />
        <path
           d="M 252,662 H 598 L 410,410 h 94 l 63,-32 31,-32 32,-94 V 189 L 598,94.5 536,31.5 441,0 H 346 L 252,31.5 220,63 189,126"
           style="stroke-width:0.2491in"
           transform="matrix(0.0266667,0,0,-0.0266667,157.04,0)"
           id="path10993" />
      </g>
    </g>
    <g
       id="g20663"
       transform="matrix(0.264583,0,0,0.264583,82.846034,217.63676)"
       inkscape:label="Hershey Text">
      <path
         id="path20583"
         transform="translate(13)"
         style="fill:none;stroke:#000000"
         d="m 6,-12 -2,2 -2,3 -3,5 -2,3 -3,4 -3,3 -2,1 h -2 L -14,8 V 6 l 1,-1 1,1 -1,1 M 6,-12 5,-8 3,2 2,9 M 6,-12 3,9 M 2,9 V 7 L 1,4 0,2 -2,0 -4,-1 h -2 l -1,1 v 2 l 1,3 3,3 3,1 H 4 L 6,8"
         inkscape:connector-curvature="0" />
      <path
         id="path20585"
         transform="translate(29)"
         style="fill:none;stroke:#000000"
         d="M 2,1 1,2 H 2 V 1 L 1,0 h -2 l -2,1 -1,1 -1,2 v 2 l 1,2 2,1 H 1 L 4,7 6,4 M -1,0 -3,2 -4,4 v 3 l 2,2"
         inkscape:connector-curvature="0" />
      <path
         id="path20587"
         transform="translate(41)"
         style="fill:none;stroke:#000000"
         d="M 2,1 1,2 H 2 V 1 L 1,0 h -2 l -2,1 -1,1 -1,2 v 2 l 1,2 2,1 H 1 L 4,7 6,4 M -1,0 -3,2 -4,4 v 3 l 2,2"
         inkscape:connector-curvature="0" />
      <path
         id="path20589"
         transform="translate(54)"
         style="fill:none;stroke:#000000"
         d="m 0,0 h -2 l -2,1 -1,1 -1,2 v 2 l 1,2 2,1 h 2 L 1,8 2,7 3,5 V 3 L 2,1 0,0 -1,1 V 3 L 0,5 2,6 H 4 L 6,5 7,4 M -2,0 -4,2 -5,4 v 3 l 2,2"
         inkscape:connector-curvature="0" />
      <path
         id="path20591"
         transform="translate(67)"
         style="fill:none;stroke:#000000"
         d="m -6,4 2,-3 2,-1 2,1 v 2 l -2,6 m 0,-9 1,1 V 3 L -3,9 M 0,3 2,1 4,0 H 5 L 4,3 M 4,0 V 3 L 5,5 H 6 L 8,4"
         inkscape:connector-curvature="0" />
      <path
         id="path20593"
         transform="translate(82)"
         style="fill:none;stroke:#000000"
         d="M 3,3 2,1 0,0 h -2 l -2,1 -1,1 -1,2 v 2 l 1,2 2,1 h 2 L 1,8 2,6 M -2,0 -4,2 -5,4 v 3 l 2,2 M 8,-12 2,6 V 8 L 4,9 6,8 7,7 9,4 M 9,-12 3,6 v 2 l 1,1"
         inkscape:connector-curvature="0" />
      <path
         id="path20595"
         transform="translate(95)"
         style="fill:none;stroke:#000000"
         d="M 1,-6 0,-5 1,-4 2,-5 1,-6 M -1,0 -3,6 V 8 L -1,9 1,8 2,7 4,4 M 0,0 -2,6 v 2 l 1,1"
         inkscape:connector-curvature="0" />
      <path
         id="path20597"
         transform="translate(108)"
         style="fill:none;stroke:#000000"
         d="m -9,4 2,-3 2,-1 2,1 v 2 l -2,6 m 0,-9 1,1 V 3 L -6,9 M -3,3 -1,1 1,0 H 2 L 4,1 V 3 L 3,6 V 8 L 4,9 M 2,0 3,1 V 3 L 2,6 V 8 L 4,9 6,8 7,7 9,4"
         inkscape:connector-curvature="0" />
      <path
         id="path20599"
         transform="translate(124)"
         style="fill:none;stroke:#000000"
         d="M 3,3 2,1 0,0 h -2 l -2,1 -1,1 -1,2 v 2 l 1,2 2,1 h 2 L 1,8 2,6 M -2,0 -4,2 -5,4 v 3 l 2,2 M 4,0 -2,18 M 5,0 2,9 l -2,5 -2,4 -1,2 -2,1 -1,-1 V 18 L -5,15 -3,13 0,11 4,9 7,7 9,4"
         inkscape:connector-curvature="0" />
      <path
         id="path20601"
         transform="translate(141)"
         style="fill:none;stroke:#000000"
         d=""
         inkscape:connector-curvature="0" />
      <path
         id="path20603"
         transform="translate(153)"
         style="fill:none;stroke:#000000"
         d="M -4,4 -2,1 0,-3 M 3,-12 -3,6 V 8 L -1,9 1,8 2,7 4,4 M 4,-12 -2,6 v 2 l 1,1 M -2,-4 h 6"
         inkscape:connector-curvature="0" />
      <path
         id="path20605"
         transform="translate(164)"
         style="fill:none;stroke:#000000"
         d="m 0,0 h -2 l -2,1 -1,1 -1,2 v 2 l 1,2 2,1 h 2 L 1,8 2,7 3,5 V 3 L 2,1 0,0 -1,1 V 3 L 0,5 2,6 H 4 L 6,5 7,4 M -2,0 -4,2 -5,4 v 3 l 2,2"
         inkscape:connector-curvature="0" />
      <path
         id="path20607"
         transform="translate(179)"
         style="fill:none;stroke:#000000"
         d=""
         inkscape:connector-curvature="0" />
      <path
         id="path20609"
         transform="translate(194)"
         style="fill:none;stroke:#000000"
         d="M 3,3 2,1 0,0 h -2 l -2,1 -1,1 -1,2 v 2 l 1,2 2,1 h 2 L 1,8 2,6 M -2,0 -4,2 -5,4 v 3 l 2,2 M 4,0 2,6 V 8 L 4,9 6,8 7,7 9,4 M 5,0 3,6 v 2 l 1,1"
         inkscape:connector-curvature="0" />
      <path
         id="path20611"
         transform="translate(207)"
         style="fill:none;stroke:#000000"
         d="M -4,4 -2,1 0,-3 M 3,-12 -3,6 V 8 L -1,9 1,8 2,7 4,4 M 4,-12 -2,6 v 2 l 1,1"
         inkscape:connector-curvature="0" />
      <path
         id="path20613"
         transform="translate(215)"
         style="fill:none;stroke:#000000"
         d="M -4,4 -2,1 0,-3 M 3,-12 -3,6 V 8 L -1,9 1,8 2,7 4,4 M 4,-12 -2,6 v 2 l 1,1"
         inkscape:connector-curvature="0" />
      <path
         id="path20615"
         transform="translate(227)"
         style="fill:none;stroke:#000000"
         d=""
         inkscape:connector-curvature="0" />
      <path
         id="path20617"
         transform="translate(241)"
         style="fill:none;stroke:#000000"
         d="m -6,4 2,-3 2,-4 M 1,-12 -6,9 M 2,-12 -5,9 M 3,0 V 1 H 4 L 3,0 H 2 L 0,2 -3,3 m 0,0 3,1 1,4 1,1 M -3,3 -1,4 0,8 2,9 H 3 L 6,7 8,4"
         inkscape:connector-curvature="0" />
      <path
         id="path20619"
         transform="translate(258)"
         style="fill:none;stroke:#000000"
         d="m -9,4 2,-3 2,-1 2,1 v 2 l -2,6 m 0,-9 1,1 V 3 L -6,9 M -3,3 -1,1 1,0 H 2 L 4,1 V 3 L 3,6 V 8 L 4,9 M 2,0 3,1 V 3 L 2,6 V 8 L 4,9 6,8 7,7 9,4"
         inkscape:connector-curvature="0" />
      <path
         id="path20621"
         transform="translate(274)"
         style="fill:none;stroke:#000000"
         d="m 0,0 h -2 l -2,1 -1,1 -1,2 v 2 l 1,2 2,1 h 2 L 1,8 2,7 3,5 V 3 L 2,1 0,0 -1,1 V 3 L 0,5 2,6 H 4 L 6,5 7,4 M -2,0 -4,2 -5,4 v 3 l 2,2"
         inkscape:connector-curvature="0" />
      <path
         id="path20623"
         transform="translate(291)"
         style="fill:none;stroke:#000000"
         d="m -6,0 -2,2 -1,3 v 3 l 2,1 h 1 L -4,8 -2,6 M -5,0 -7,2 -8,5 v 3 l 1,1 M 0,0 -2,6 V 8 L 0,9 H 1 L 3,8 5,6 6,3 V 0 M 1,0 -1,6 V 8 L 0,9 M 6,0 7,4 8,5 h 1 l 2,-1"
         inkscape:connector-curvature="0" />
      <path
         id="path20625"
         transform="translate(311)"
         style="fill:none;stroke:#000000"
         d="m -9,4 2,-3 2,-1 2,1 v 2 l -2,6 m 0,-9 1,1 V 3 L -6,9 M -3,3 -1,1 1,0 H 2 L 4,1 V 3 L 3,6 V 8 L 4,9 M 2,0 3,1 V 3 L 2,6 V 8 L 4,9 6,8 7,7 9,4"
         inkscape:connector-curvature="0" />
      <path
         id="path20627"
         transform="translate(328)"
         style="fill:none;stroke:#000000"
         d=""
         inkscape:connector-curvature="0" />
      <path
         id="path20629"
         transform="translate(340)"
         style="fill:none;stroke:#000000"
         d="M -4,4 -2,1 0,-3 M 3,-12 -3,6 V 8 L -1,9 1,8 2,7 4,4 M 4,-12 -2,6 v 2 l 1,1"
         inkscape:connector-curvature="0" />
      <path
         id="path20631"
         transform="translate(351)"
         style="fill:none;stroke:#000000"
         d="M 3,3 2,1 0,0 h -2 l -2,1 -1,1 -1,2 v 2 l 1,2 2,1 h 2 L 1,8 2,6 M -2,0 -4,2 -5,4 v 3 l 2,2 M 4,0 2,6 V 8 L 4,9 6,8 7,7 9,4 M 5,0 3,6 v 2 l 1,1"
         inkscape:connector-curvature="0" />
      <path
         id="path20633"
         transform="translate(370)"
         style="fill:none;stroke:#000000"
         d="m -6,0 -2,2 -1,3 v 3 l 2,1 h 1 L -4,8 -2,6 M -5,0 -7,2 -8,5 v 3 l 1,1 M 0,0 -2,6 V 8 L 0,9 H 1 L 3,8 5,6 6,3 V 0 M 1,0 -1,6 V 8 L 0,9 M 6,0 7,4 8,5 h 1 l 2,-1"
         inkscape:connector-curvature="0" />
      <path
         id="path20635"
         transform="translate(385)"
         style="fill:none;stroke:#000000"
         d="m -4,4 2,-3 1,-2 V 1 L 2,3 3,5 V 7 L 2,8 0,9 M -1,1 1,3 2,5 V 7 L 0,9 M -4,8 -2,9 H 3 L 6,7 8,4"
         inkscape:connector-curvature="0" />
      <path
         id="path20637"
         transform="translate(407)"
         style="fill:none;stroke:#000000"
         d=""
         inkscape:connector-curvature="0" />
      <path
         id="path20639"
         transform="translate(422)"
         style="fill:none;stroke:#000000"
         d="m 0,0 h -2 l -2,1 -1,1 -1,2 v 2 l 1,2 2,1 h 2 L 1,8 2,7 3,5 V 3 L 2,1 0,0 -1,1 V 3 L 0,5 2,6 H 4 L 6,5 7,4 M -2,0 -4,2 -5,4 v 3 l 2,2"
         inkscape:connector-curvature="0" />
      <path
         id="path20641"
         transform="translate(432)"
         style="fill:none;stroke:#000000"
         d="m 0,0 3,-3 2,-3 1,-3 v -2 l -1,-1 -2,1 -1,2 -9,27 v 2 l 1,1 2,-1 1,-3 1,-9 1,1 H 1 L 3,8 4,7 6,4 M 2,-9 1,-4 0,0 l -3,9 -2,5 -2,4"
         inkscape:connector-curvature="0" />
      <path
         id="path20643"
         transform="translate(446)"
         style="fill:none;stroke:#000000"
         d=""
         inkscape:connector-curvature="0" />
      <path
         id="path20645"
         transform="translate(461)"
         style="fill:none;stroke:#000000"
         d="M 3,3 2,1 0,0 h -2 l -2,1 -1,1 -1,2 v 2 l 1,2 2,1 h 2 L 1,8 2,6 M -2,0 -4,2 -5,4 v 3 l 2,2 M 4,0 2,6 V 8 L 4,9 6,8 7,7 9,4 M 5,0 3,6 v 2 l 1,1"
         inkscape:connector-curvature="0" />
      <path
         id="path20647"
         transform="translate(477)"
         style="fill:none;stroke:#000000"
         d="m -4,0 -1,2 -1,3 v 3 l 2,1 h 1 L 0,8 2,6 3,3 V 0 m -6,0 -1,2 -1,3 v 3 l 1,1 M 3,0 4,4 5,5 H 6 L 8,4"
         inkscape:connector-curvature="0" />
      <path
         id="path20649"
         transform="translate(489)"
         style="fill:none;stroke:#000000"
         d="M 1,-6 0,-5 1,-4 2,-5 1,-6 M -1,0 -3,6 V 8 L -1,9 1,8 2,7 4,4 M 0,0 -2,6 v 2 l 1,1"
         inkscape:connector-curvature="0" />
      <path
         id="path20651"
         transform="translate(500)"
         style="fill:none;stroke:#000000"
         d="M 3,3 2,1 0,0 h -2 l -2,1 -1,1 -1,2 v 2 l 1,2 2,1 h 2 L 1,8 2,6 M -2,0 -4,2 -5,4 v 3 l 2,2 M 4,0 2,6 V 8 L 4,9 6,8 7,7 9,4 M 5,0 3,6 v 2 l 1,1"
         inkscape:connector-curvature="0" />
      <path
         id="path20653"
         transform="translate(513)"
         style="fill:none;stroke:#000000"
         d="M -4,4 -2,1 0,-3 M 3,-12 -3,6 V 8 L -1,9 1,8 2,7 4,4 M 4,-12 -2,6 v 2 l 1,1 M -2,-4 h 6"
         inkscape:connector-curvature="0" />
      <path
         id="path20655"
         transform="translate(521)"
         style="fill:none;stroke:#000000"
         d="M 1,-6 0,-5 1,-4 2,-5 1,-6 M -1,0 -3,6 V 8 L -1,9 1,8 2,7 4,4 M 0,0 -2,6 v 2 l 1,1"
         inkscape:connector-curvature="0" />
      <path
         id="path20657"
         transform="translate(532)"
         style="fill:none;stroke:#000000"
         d="m 0,0 h -2 l -2,1 -1,1 -1,2 v 2 l 1,2 2,1 h 2 L 1,8 2,7 3,5 V 3 L 2,1 0,0 -1,1 V 3 L 0,5 2,6 H 4 L 6,5 7,4 M -2,0 -4,2 -5,4 v 3 l 2,2"
         inkscape:connector-curvature="0" />
      <path
         id="path20659"
         transform="translate(548)"
         style="fill:none;stroke:#000000"
         d="m -9,4 2,-3 2,-1 2,1 v 2 l -2,6 m 0,-9 1,1 V 3 L -6,9 M -3,3 -1,1 1,0 H 2 L 4,1 V 3 L 3,6 V 8 L 4,9 M 2,0 3,1 V 3 L 2,6 V 8 L 4,9 6,8 7,7 9,4"
         inkscape:connector-curvature="0" />
      <path
         id="path20661"
         transform="translate(562)"
         style="fill:none;stroke:#000000"
         d="m -2,9 -1,-1 1,-1 1,1 v 1 l -1,2 -2,2"
         inkscape:connector-curvature="0" />
    </g>
    <g
       inkscape:label="Hershey Text"
       transform="matrix(0.264583,0,0,0.264583,78.990706,225.91484)"
       id="g20883">
      <path
         d="M -4,4 -2,1 0,-3 M 3,-12 -3,6 V 8 L -1,9 1,8 2,7 4,4 M 4,-12 -2,6 v 2 l 1,1 M -2,-4 h 6"
         style="fill:none;stroke:#000000"
         transform="translate(4)"
         id="path20795"
         inkscape:connector-curvature="0" />
      <path
         d="m -6,4 2,-3 2,-4 M 1,-12 -6,9 M 2,-12 -5,9 M -3,3 -1,1 1,0 H 2 L 4,1 V 3 L 3,6 V 8 L 4,9 M 2,0 3,1 V 3 L 2,6 V 8 L 4,9 6,8 7,7 9,4"
         style="fill:none;stroke:#000000"
         transform="translate(14)"
         id="path20797"
         inkscape:connector-curvature="0" />
      <path
         d="M -3,7 -1,6 0,5 1,3 V 1 L 0,0 h -1 l -2,1 -1,1 -1,2 v 2 l 1,2 2,1 H 1 L 4,7 6,4 M -1,0 -3,2 -4,4 v 3 l 2,2"
         style="fill:none;stroke:#000000"
         transform="translate(29)"
         id="path20799"
         inkscape:connector-curvature="0" />
      <path
         d="m -6,4 2,-3 2,-1 2,1 v 2 l -2,6 m 0,-9 1,1 V 3 L -3,9 M 0,3 2,1 4,0 H 5 L 4,3 M 4,0 V 3 L 5,5 H 6 L 8,4"
         style="fill:none;stroke:#000000"
         transform="translate(41)"
         id="path20801"
         inkscape:connector-curvature="0" />
      <path
         d="M -3,7 -1,6 0,5 1,3 V 1 L 0,0 h -1 l -2,1 -1,1 -1,2 v 2 l 1,2 2,1 H 1 L 4,7 6,4 M -1,0 -3,2 -4,4 v 3 l 2,2"
         style="fill:none;stroke:#000000"
         transform="translate(55)"
         id="path20803"
         inkscape:connector-curvature="0" />
      <path
         d=""
         style="fill:none;stroke:#000000"
         transform="translate(69)"
         id="path20805"
         inkscape:connector-curvature="0" />
      <path
         d="M 1,-6 0,-5 1,-4 2,-5 1,-6 M -1,0 -3,6 V 8 L -1,9 1,8 2,7 4,4 M 0,0 -2,6 v 2 l 1,1"
         style="fill:none;stroke:#000000"
         transform="translate(81)"
         id="path20807"
         inkscape:connector-curvature="0" />
      <path
         d="m -4,4 2,-3 1,-2 V 1 L 2,3 3,5 V 7 L 2,8 0,9 M -1,1 1,3 2,5 V 7 L 0,9 M -4,8 -2,9 H 3 L 6,7 8,4"
         style="fill:none;stroke:#000000"
         transform="translate(89)"
         id="path20809"
         inkscape:connector-curvature="0" />
      <path
         d=""
         style="fill:none;stroke:#000000"
         transform="translate(105)"
         id="path20811"
         inkscape:connector-curvature="0" />
      <path
         d="m -9,4 2,-3 2,-1 2,1 v 2 l -2,6 m 0,-9 1,1 V 3 L -6,9 M -3,3 -1,1 1,0 H 2 L 4,1 V 3 L 3,6 V 8 L 4,9 M 2,0 3,1 V 3 L 2,6 V 8 L 4,9 6,8 7,7 9,4"
         style="fill:none;stroke:#000000"
         transform="translate(122)"
         id="path20813"
         inkscape:connector-curvature="0" />
      <path
         d="m 0,0 h -2 l -2,1 -1,1 -1,2 v 2 l 1,2 2,1 h 2 L 1,8 2,7 3,5 V 3 L 2,1 0,0 -1,1 V 3 L 0,5 2,6 H 4 L 6,5 7,4 M -2,0 -4,2 -5,4 v 3 l 2,2"
         style="fill:none;stroke:#000000"
         transform="translate(138)"
         id="path20815"
         inkscape:connector-curvature="0" />
      <path
         d=""
         style="fill:none;stroke:#000000"
         transform="translate(153)"
         id="path20817"
         inkscape:connector-curvature="0" />
      <path
         d="m -6,0 -2,2 -1,3 v 3 l 2,1 h 1 L -4,8 -2,6 M -5,0 -7,2 -8,5 v 3 l 1,1 M 0,0 -2,6 V 8 L 0,9 H 1 L 3,8 5,6 6,3 V 0 M 1,0 -1,6 V 8 L 0,9 M 6,0 7,4 8,5 h 1 l 2,-1"
         style="fill:none;stroke:#000000"
         transform="translate(171)"
         id="path20819"
         inkscape:connector-curvature="0" />
      <path
         d="M 3,3 2,1 0,0 h -2 l -2,1 -1,1 -1,2 v 2 l 1,2 2,1 h 2 L 1,8 2,6 M -2,0 -4,2 -5,4 v 3 l 2,2 M 4,0 2,6 V 8 L 4,9 6,8 7,7 9,4 M 5,0 3,6 v 2 l 1,1"
         style="fill:none;stroke:#000000"
         transform="translate(189)"
         id="path20821"
         inkscape:connector-curvature="0" />
      <path
         d="m -4,0 -2,6 v 2 l 2,1 h 1 L -1,8 1,6 3,3 M -3,0 -5,6 v 2 l 1,1 M 4,0 -2,18 M 5,0 2,9 l -2,5 -2,4 -1,2 -2,1 -1,-1 V 18 L -5,15 -3,13 0,11 4,9 7,7 9,4"
         style="fill:none;stroke:#000000"
         transform="translate(205)"
         id="path20823"
         inkscape:connector-curvature="0" />
      <path
         d=""
         style="fill:none;stroke:#000000"
         transform="translate(222)"
         id="path20825"
         inkscape:connector-curvature="0" />
      <path
         d="M 3,3 2,1 0,0 h -2 l -2,1 -1,1 -1,2 v 2 l 1,2 2,1 h 2 L 1,8 2,6 M -2,0 -4,2 -5,4 v 3 l 2,2 M 4,0 2,6 V 8 L 4,9 6,8 7,7 9,4 M 5,0 3,6 v 2 l 1,1"
         style="fill:none;stroke:#000000"
         transform="translate(237)"
         id="path20827"
         inkscape:connector-curvature="0" />
      <path
         d=""
         style="fill:none;stroke:#000000"
         transform="translate(254)"
         id="path20829"
         inkscape:connector-curvature="0" />
      <path
         d="m -6,4 2,-3 2,-4 m 3,-9 -6,18 v 2 l 2,1 h 1 L 0,8 2,6 3,3 V 0 L 4,4 5,5 H 6 L 8,4 M 2,-12 -4,6 v 2 l 1,1"
         style="fill:none;stroke:#000000"
         transform="translate(268)"
         id="path20831"
         inkscape:connector-curvature="0" />
      <path
         d="M -3,7 -1,6 0,5 1,3 V 1 L 0,0 h -1 l -2,1 -1,1 -1,2 v 2 l 1,2 2,1 H 1 L 4,7 6,4 M -1,0 -3,2 -4,4 v 3 l 2,2"
         style="fill:none;stroke:#000000"
         transform="translate(282)"
         id="path20833"
         inkscape:connector-curvature="0" />
      <path
         d="M -3,7 -1,6 0,5 1,3 V 1 L 0,0 h -1 l -2,1 -1,1 -1,2 v 2 l 1,2 2,1 H 1 L 4,7 6,4 M -1,0 -3,2 -4,4 v 3 l 2,2"
         style="fill:none;stroke:#000000"
         transform="translate(294)"
         id="path20835"
         inkscape:connector-curvature="0" />
      <path
         d=""
         style="fill:none;stroke:#000000"
         transform="translate(314)"
         id="path20837"
         inkscape:connector-curvature="0" />
      <path
         d="m -4,4 2,-3 1,-2 V 1 L 2,3 3,5 V 7 L 2,8 0,9 M -1,1 1,3 2,5 V 7 L 0,9 M -4,8 -2,9 H 3 L 6,7 8,4"
         style="fill:none;stroke:#000000"
         transform="translate(326)"
         id="path20839"
         inkscape:connector-curvature="0" />
      <path
         d="m -6,4 2,-3 2,-4 M 1,-12 -6,9 M 2,-12 -5,9 M -3,3 -1,1 1,0 H 2 L 4,1 V 3 L 3,6 V 8 L 4,9 M 2,0 3,1 V 3 L 2,6 V 8 L 4,9 6,8 7,7 9,4"
         style="fill:none;stroke:#000000"
         transform="translate(340)"
         id="path20841"
         inkscape:connector-curvature="0" />
      <path
         d="m 0,0 h -2 l -2,1 -1,1 -1,2 v 2 l 1,2 2,1 h 2 L 1,8 2,7 3,5 V 3 L 2,1 0,0 -1,1 V 3 L 0,5 2,6 H 4 L 6,5 7,4 M -2,0 -4,2 -5,4 v 3 l 2,2"
         style="fill:none;stroke:#000000"
         transform="translate(356)"
         id="path20843"
         inkscape:connector-curvature="0" />
      <path
         d="m -4,0 -2,6 v 2 l 2,1 h 1 L -1,8 1,6 3,3 M -3,0 -5,6 v 2 l 1,1 M 4,0 2,6 V 8 L 4,9 6,8 7,7 9,4 M 5,0 3,6 v 2 l 1,1"
         style="fill:none;stroke:#000000"
         transform="translate(370)"
         id="path20845"
         inkscape:connector-curvature="0" />
      <path
         d="M -4,4 -2,1 0,-3 M 3,-12 -3,6 V 8 L -1,9 1,8 2,7 4,4 M 4,-12 -2,6 v 2 l 1,1"
         style="fill:none;stroke:#000000"
         transform="translate(383)"
         id="path20847"
         inkscape:connector-curvature="0" />
      <path
         d="M 3,3 2,1 0,0 h -2 l -2,1 -1,1 -1,2 v 2 l 1,2 2,1 h 2 L 1,8 2,6 M -2,0 -4,2 -5,4 v 3 l 2,2 M 8,-12 2,6 V 8 L 4,9 6,8 7,7 9,4 M 9,-12 3,6 v 2 l 1,1"
         style="fill:none;stroke:#000000"
         transform="translate(394)"
         id="path20849"
         inkscape:connector-curvature="0" />
      <path
         d=""
         style="fill:none;stroke:#000000"
         transform="translate(411)"
         id="path20851"
         inkscape:connector-curvature="0" />
      <path
         d="m -6,4 2,-3 2,-4 m 3,-9 -6,18 v 2 l 2,1 h 1 L 0,8 2,6 3,3 V 0 L 4,4 5,5 H 6 L 8,4 M 2,-12 -4,6 v 2 l 1,1"
         style="fill:none;stroke:#000000"
         transform="translate(425)"
         id="path20853"
         inkscape:connector-curvature="0" />
      <path
         d="M -3,7 -1,6 0,5 1,3 V 1 L 0,0 h -1 l -2,1 -1,1 -1,2 v 2 l 1,2 2,1 H 1 L 4,7 6,4 M -1,0 -3,2 -4,4 v 3 l 2,2"
         style="fill:none;stroke:#000000"
         transform="translate(439)"
         id="path20855"
         inkscape:connector-curvature="0" />
      <path
         d=""
         style="fill:none;stroke:#000000"
         transform="translate(453)"
         id="path20857"
         inkscape:connector-curvature="0" />
      <path
         d="M 3,3 2,1 0,0 h -2 l -2,1 -1,1 -1,2 v 2 l 1,2 2,1 h 2 L 1,8 2,6 M -2,0 -4,2 -5,4 v 3 l 2,2 M 4,0 2,6 V 8 L 4,9 6,8 7,7 9,4 M 5,0 3,6 v 2 l 1,1"
         style="fill:none;stroke:#000000"
         transform="translate(468)"
         id="path20859"
         inkscape:connector-curvature="0" />
      <path
         d="m -6,4 2,-3 2,-4 m 3,-9 -6,18 v 2 l 2,1 h 1 L 0,8 2,6 3,3 V 0 L 4,4 5,5 H 6 L 8,4 M 2,-12 -4,6 v 2 l 1,1"
         style="fill:none;stroke:#000000"
         transform="translate(483)"
         id="path20861"
         inkscape:connector-curvature="0" />
      <path
         d="M -4,4 -2,1 0,-3 M 3,-12 -3,6 V 8 L -1,9 1,8 2,7 4,4 M 4,-12 -2,6 v 2 l 1,1"
         style="fill:none;stroke:#000000"
         transform="translate(495)"
         id="path20863"
         inkscape:connector-curvature="0" />
      <path
         d="M -3,7 -1,6 0,5 1,3 V 1 L 0,0 h -1 l -2,1 -1,1 -1,2 v 2 l 1,2 2,1 H 1 L 4,7 6,4 M -1,0 -3,2 -4,4 v 3 l 2,2"
         style="fill:none;stroke:#000000"
         transform="translate(505)"
         id="path20865"
         inkscape:connector-curvature="0" />
      <path
         d=""
         style="fill:none;stroke:#000000"
         transform="translate(519)"
         id="path20867"
         inkscape:connector-curvature="0" />
      <path
         d="M -4,4 -2,1 0,-3 M 3,-12 -3,6 V 8 L -1,9 1,8 2,7 4,4 M 4,-12 -2,6 v 2 l 1,1 M -2,-4 h 6"
         style="fill:none;stroke:#000000"
         transform="translate(531)"
         id="path20869"
         inkscape:connector-curvature="0" />
      <path
         d="m 0,0 h -2 l -2,1 -1,1 -1,2 v 2 l 1,2 2,1 h 2 L 1,8 2,7 3,5 V 3 L 2,1 0,0 -1,1 V 3 L 0,5 2,6 H 4 L 6,5 7,4 M -2,0 -4,2 -5,4 v 3 l 2,2"
         style="fill:none;stroke:#000000"
         transform="translate(542)"
         id="path20871"
         inkscape:connector-curvature="0" />
      <path
         d=""
         style="fill:none;stroke:#000000"
         transform="translate(557)"
         id="path20873"
         inkscape:connector-curvature="0" />
      <path
         d="m 0,0 3,-3 2,-3 1,-3 v -2 l -1,-1 -2,1 -1,2 -9,27 v 2 l 1,1 2,-1 1,-3 1,-9 1,1 H 1 L 3,8 4,7 6,4 M 2,-9 1,-4 0,0 l -3,9 -2,5 -2,4"
         style="fill:none;stroke:#000000"
         transform="translate(568)"
         id="path20875"
         inkscape:connector-curvature="0" />
      <path
         d="M -4,4 -2,1 0,-3 M 3,-12 -3,6 V 8 L -1,9 1,8 2,7 4,4 M 4,-12 -2,6 v 2 l 1,1"
         style="fill:none;stroke:#000000"
         transform="translate(578)"
         id="path20877"
         inkscape:connector-curvature="0" />
      <path
         d="m -4,0 -2,6 v 2 l 2,1 h 1 L -1,8 1,6 3,3 M -3,0 -5,6 v 2 l 1,1 M 4,0 -2,18 M 5,0 2,9 l -2,5 -2,4 -1,2 -2,1 -1,-1 V 18 L -5,15 -3,13 0,11 4,9 7,7 9,4"
         style="fill:none;stroke:#000000"
         transform="translate(589)"
         id="path20879"
         inkscape:connector-curvature="0" />
      <path
         d="M -2,7 -3,8 -2,9 -1,8 -2,7"
         style="fill:none;stroke:#000000"
         transform="translate(603)"
         id="path20881"
         inkscape:connector-curvature="0" />
    </g>
    <g
       id="g21237"
       transform="matrix(0.264583,0,0,0.264583,4.5277212,247.37508)"
       inkscape:label="Hershey Text">
      <path
         id="path21105"
         style="fill:none;stroke:#000000"
         d="m 309.71466,-57.857203 -2,3 -2,5 -2,5 -1,2 -2,3 -2,1 m 13,-15 -2,2 -3,1 h -3 l -2,-1 -1,-2 v -2 l 1,-2 2,-1 4,-1 h 4 l -2,2 -1,2 -2,6 -2,6 -1,2 -2,2 -3,1 h -2 l -1,-1 v -2 l 1,-1 1,1 -1,1"
         inkscape:connector-curvature="0" />
      <path
         id="path21107"
         style="fill:none;stroke:#000000"
         d="m 311.71466,-43.857203 2,-3 2,-4 m 3,-9 -6,18 v 2 l 2,1 2,-1 1,-1 2,-3 m 0,-16 -6,18 v 2 l 1,1 m -1,-13 h 6"
         inkscape:connector-curvature="0" />
      <path
         id="path21109"
         style="fill:none;stroke:#000000"
         d="m 319.71466,-43.857203 2,-3 1,-2 v 2 l 3,2 1,2 v 2 l -1,1 -2,1 m -1,-8 2,2 1,2 v 2 l -2,2 m -4,-1 2,1 h 5 l 3,-2 2,-3"
         inkscape:connector-curvature="0" />
      <path
         id="path21111"
         transform="translate(44)"
         style="fill:none;stroke:#000000"
         d=""
         inkscape:connector-curvature="0" />
      <path
         id="path21113"
         style="fill:none;stroke:#000000"
         d="m 351.71466,-47.857203 -2,2 -1,3 v 3 l 2,1 h 1 l 2,-1 2,-2 m -3,-6 -2,2 -1,3 v 3 l 1,1 m 7,-9 -2,6 v 2 l 2,1 h 1 l 2,-1 2,-2 1,-3 v -3 m -5,0 -2,6 v 2 l 1,1 m 6,-9 1,4 1,1 h 1 l 2,-1"
         inkscape:connector-curvature="0" />
      <path
         id="path21115"
         style="fill:none;stroke:#000000"
         d="m 373.71466,-53.857203 -1,1 1,1 1,-1 -1,-1 m -2,6 -2,6 v 2 l 2,1 2,-1 1,-1 2,-3 m -4,-4 -2,6 v 2 l 1,1"
         inkscape:connector-curvature="0" />
      <path
         id="path21117"
         style="fill:none;stroke:#000000"
         d="m 376.71466,-43.857203 2,-3 2,-1 2,1 v 2 l -2,6 m 0,-9 1,1 v 2 l -2,6 m 3,-6 2,-2 2,-1 h 1 l 2,1 v 2 l -1,3 v 2 l 1,1 m -2,-9 1,1 v 2 l -1,3 v 2 l 2,1 2,-1 1,-1 2,-3"
         inkscape:connector-curvature="0" />
      <path
         id="path21119"
         style="fill:none;stroke:#000000"
         d="m 404.71466,-44.857203 -1,-2 -2,-1 h -2 l -2,1 -1,1 -1,2 v 2 l 1,2 2,1 h 2 l 2,-1 1,-2 m -4,-6 -2,2 -1,2 v 3 l 2,2 m 7,-9 -6,18 m 7,-18 -3,9 -2,5 -2,4 -1,2 -2,1 -1,-1 v -2 l 1,-3 2,-2 3,-2 4,-2 3,-2 2,-3"
         inkscape:connector-curvature="0" />
      <path
         id="path21121"
         style="fill:none;stroke:#000000"
         d="m 410.71466,-43.857203 2,-3 1,-2 v 2 l 3,2 1,2 v 2 l -1,1 -2,1 m -1,-8 2,2 1,2 v 2 l -2,2 m -4,-1 2,1 h 5 l 3,-2 2,-3"
         inkscape:connector-curvature="0" />
      <path
         id="path21123"
         transform="translate(135)"
         style="fill:none;stroke:#000000"
         d=""
         inkscape:connector-curvature="0" />
      <path
         id="path21125"
         style="fill:none;stroke:#000000"
         d="m 448.71466,-44.857203 -1,-2 -2,-1 h -2 l -2,1 -1,1 -1,2 v 2 l 1,2 2,1 h 2 l 2,-1 1,-2 m -4,-6 -2,2 -1,2 v 3 l 2,2 m 7,-9 -2,6 v 2 l 2,1 2,-1 1,-1 2,-3 m -4,-4 -2,6 v 2 l 1,1"
         inkscape:connector-curvature="0" />
      <path
         id="path21127"
         style="fill:none;stroke:#000000"
         d="m 454.71466,-43.857203 2,-3 2,-1 2,1 v 2 l -2,6 m 0,-9 1,1 v 2 l -2,6 m 3,-6 2,-2 2,-1 h 1 l -1,3 m 0,-3 v 3 l 1,2 h 1 l 2,-1"
         inkscape:connector-curvature="0" />
      <path
         id="path21129"
         style="fill:none;stroke:#000000"
         d="m 471.71466,-40.857203 2,-1 1,-1 1,-2 v -2 l -1,-1 h -1 l -2,1 -1,1 -1,2 v 2 l 1,2 2,1 h 3 l 3,-2 2,-3 m -7,-4 -2,2 -1,2 v 3 l 2,2"
         inkscape:connector-curvature="0" />
      <path
         id="path21131"
         transform="translate(193)"
         style="fill:none;stroke:#000000"
         d=""
         inkscape:connector-curvature="0" />
      <path
         id="path21133"
         style="fill:none;stroke:#000000"
         d="m 496.71466,-43.857203 2,-3 2,-4 m 3,-9 -6,18 v 2 l 2,1 2,-1 1,-1 2,-3 m 0,-16 -6,18 v 2 l 1,1 m -1,-13 h 6"
         inkscape:connector-curvature="0" />
      <path
         id="path21135"
         style="fill:none;stroke:#000000"
         d="m 511.71466,-47.857203 h -2 l -2,1 -1,1 -1,2 v 2 l 1,2 2,1 h 2 l 2,-1 1,-1 1,-2 v -2 l -1,-2 -2,-1 -1,1 v 2 l 1,2 2,1 h 2 l 2,-1 1,-1 m -9,-4 -2,2 -1,2 v 3 l 2,2"
         inkscape:connector-curvature="0" />
      <path
         id="path21137"
         style="fill:none;stroke:#000000"
         d="m 525.71466,-47.857203 h -2 l -2,1 -1,1 -1,2 v 2 l 1,2 2,1 h 2 l 2,-1 1,-1 1,-2 v -2 l -1,-2 -2,-1 -1,1 v 2 l 1,2 2,1 h 2 l 2,-1 1,-1 m -9,-4 -2,2 -1,2 v 3 l 2,2"
         inkscape:connector-curvature="0" />
      <path
         id="path21139"
         transform="translate(245)"
         style="fill:none;stroke:#000000"
         d=""
         inkscape:connector-curvature="0" />
      <path
         id="path21141"
         style="fill:none;stroke:#000000"
         d="m 548.71466,-43.857203 2,-3 1,-2 v 2 l 3,2 1,2 v 2 l -1,1 -2,1 m -1,-8 2,2 1,2 v 2 l -2,2 m -4,-1 2,1 h 5 l 3,-2 2,-3"
         inkscape:connector-curvature="0" />
      <path
         id="path21143"
         style="fill:none;stroke:#000000"
         d="m 560.71466,-43.857203 2,-3 2,-1 2,1 v 2 l -2,6 m 0,-9 1,1 v 2 l -2,6 m 3,-6 2,-2 2,-1 h 1 l 2,1 v 2 l -2,6 m 0,-9 1,1 v 2 l -2,6 m 3,-6 2,-2 2,-1 h 1 l 2,1 v 2 l -1,3 v 2 l 1,1 m -2,-9 1,1 v 2 l -1,3 v 2 l 2,1 2,-1 1,-1 2,-3"
         inkscape:connector-curvature="0" />
      <path
         id="path21145"
         style="fill:none;stroke:#000000"
         d="m 595.71466,-44.857203 -1,-2 -2,-1 h -2 l -2,1 -1,1 -1,2 v 2 l 1,2 2,1 h 2 l 2,-1 1,-2 m -4,-6 -2,2 -1,2 v 3 l 2,2 m 7,-9 -2,6 v 2 l 2,1 2,-1 1,-1 2,-3 m -4,-4 -2,6 v 2 l 1,1"
         inkscape:connector-curvature="0" />
      <path
         id="path21147"
         style="fill:none;stroke:#000000"
         d="m 601.71466,-43.857203 2,-3 2,-4 m 3,-9 -6,18 v 2 l 2,1 2,-1 1,-1 2,-3 m 0,-16 -6,18 v 2 l 1,1"
         inkscape:connector-curvature="0" />
      <path
         id="path21149"
         style="fill:none;stroke:#000000"
         d="m 609.71466,-43.857203 2,-3 2,-4 m 3,-9 -6,18 v 2 l 2,1 2,-1 1,-1 2,-3 m 0,-16 -6,18 v 2 l 1,1"
         inkscape:connector-curvature="0" />
      <path
         id="path21151"
         transform="translate(330)"
         style="fill:none;stroke:#000000"
         d=""
         inkscape:connector-curvature="0" />
      <path
         id="path21153"
         style="fill:none;stroke:#000000"
         d="m 633.71466,-43.857203 2,-3 2,-4 m 3,-9 -6,18 v 2 l 2,1 2,-1 1,-1 2,-3 m 0,-16 -6,18 v 2 l 1,1 m -1,-13 h 6"
         inkscape:connector-curvature="0" />
      <path
         id="path21155"
         style="fill:none;stroke:#000000"
         d="m 648.71466,-47.857203 h -2 l -2,1 -1,1 -1,2 v 2 l 1,2 2,1 h 2 l 2,-1 1,-1 1,-2 v -2 l -1,-2 -2,-1 -1,1 v 2 l 1,2 2,1 h 2 l 2,-1 1,-1 m -9,-4 -2,2 -1,2 v 3 l 2,2"
         inkscape:connector-curvature="0" />
      <path
         id="path21157"
         transform="translate(368)"
         style="fill:none;stroke:#000000"
         d=""
         inkscape:connector-curvature="0" />
      <path
         id="path21159"
         style="fill:none;stroke:#000000"
         d="m 681.71466,-44.857203 -1,-2 -2,-1 h -2 l -2,1 -1,1 -1,2 v 2 l 1,2 2,1 h 2 l 2,-1 1,-2 m -4,-6 -2,2 -1,2 v 3 l 2,2 m 7,-9 -6,18 m 7,-18 -3,9 -2,5 -2,4 -1,2 -2,1 -1,-1 v -2 l 1,-3 2,-2 3,-2 4,-2 3,-2 2,-3"
         inkscape:connector-curvature="0" />
      <path
         id="path21161"
         style="fill:none;stroke:#000000"
         d="m 690.71466,-40.857203 2,-1 1,-1 1,-2 v -2 l -1,-1 h -1 l -2,1 -1,1 -1,2 v 2 l 1,2 2,1 h 3 l 3,-2 2,-3 m -7,-4 -2,2 -1,2 v 3 l 2,2"
         inkscape:connector-curvature="0" />
      <path
         id="path21163"
         style="fill:none;stroke:#000000"
         d="m 699.71466,-43.857203 2,-3 2,-4 m 3,-9 -6,18 v 2 l 2,1 2,-1 1,-1 2,-3 m 0,-16 -6,18 v 2 l 1,1 m -1,-13 h 6"
         inkscape:connector-curvature="0" />
      <path
         id="path21165"
         transform="translate(426)"
         style="fill:none;stroke:#000000"
         d=""
         inkscape:connector-curvature="0" />
      <path
         id="path21167"
         style="fill:none;stroke:#000000"
         d="m 734.71466,-53.857203 -1,1 1,1 1,-1 -1,-1 m -2,6 -2,6 v 2 l 2,1 2,-1 1,-1 2,-3 m -4,-4 -2,6 v 2 l 1,1"
         inkscape:connector-curvature="0" />
      <path
         id="path21169"
         style="fill:none;stroke:#000000"
         d="m 737.71466,-43.857203 2,-3 2,-4 m 3,-9 -6,18 v 2 l 2,1 2,-1 1,-1 2,-3 m 0,-16 -6,18 v 2 l 1,1 m -1,-13 h 6"
         inkscape:connector-curvature="0" />
      <path
         id="path21171"
         style="fill:none;stroke:#000000"
         d="m 745.71466,-43.857203 2,-3 1,-2 v 2 l 3,2 1,2 v 2 l -1,1 -2,1 m -1,-8 2,2 1,2 v 2 l -2,2 m -4,-1 2,1 h 5 l 3,-2 2,-3"
         inkscape:connector-curvature="0" />
      <path
         id="path21173"
         transform="translate(470)"
         style="fill:none;stroke:#000000"
         d=""
         inkscape:connector-curvature="0" />
      <path
         id="path21175"
         style="fill:none;stroke:#000000"
         d="m 776.71466,-47.857203 3,-3 2,-3 1,-3 v -2 l -1,-1 -2,1 -1,2 -9,27 v 2 l 1,1 2,-1 1,-3 1,-9 1,1 h 2 l 2,-1 1,-1 2,-3 m -4,-13 -1,5 -1,4 -3,9 -2,5 -2,4"
         inkscape:connector-curvature="0" />
      <path
         id="path21177"
         style="fill:none;stroke:#000000"
         d="m 792.71466,-44.857203 -1,-2 -2,-1 h -2 l -2,1 -1,1 -1,2 v 2 l 1,2 2,1 h 2 l 2,-1 1,-2 m -4,-6 -2,2 -1,2 v 3 l 2,2 m 7,-9 -2,6 v 2 l 2,1 2,-1 1,-1 2,-3 m -4,-4 -2,6 v 2 l 1,1"
         inkscape:connector-curvature="0" />
      <path
         id="path21179"
         style="fill:none;stroke:#000000"
         d="m 798.71466,-43.857203 2,-3 2,-4 m 3,-9 -6,18 v 2 l 2,1 2,-1 1,-1 2,-3 m 0,-16 -6,18 v 2 l 1,1 m -1,-13 h 6"
         inkscape:connector-curvature="0" />
      <path
         id="path21181"
         transform="translate(519)"
         style="fill:none;stroke:#000000"
         d=""
         inkscape:connector-curvature="0" />
      <path
         id="path21183"
         style="fill:none;stroke:#000000"
         d="m 822.71466,-43.857203 2,-3 2,-4 m 3,-9 -6,18 v 2 l 2,1 2,-1 1,-1 2,-3 m 0,-16 -6,18 v 2 l 1,1"
         inkscape:connector-curvature="0" />
      <path
         id="path21185"
         style="fill:none;stroke:#000000"
         d="m 835.71466,-53.857203 -1,1 1,1 1,-1 -1,-1 m -2,6 -2,6 v 2 l 2,1 2,-1 1,-1 2,-3 m -4,-4 -2,6 v 2 l 1,1"
         inkscape:connector-curvature="0" />
      <path
         id="path21187"
         style="fill:none;stroke:#000000"
         d="m 838.71466,-43.857203 2,-3 2,-4 m 3,-9 -6,18 v 2 l 2,1 2,-1 1,-1 2,-3 m 0,-16 -6,18 v 2 l 1,1 m -1,-13 h 6"
         inkscape:connector-curvature="0" />
      <path
         id="path21189"
         style="fill:none;stroke:#000000"
         d="m 846.71466,-43.857203 2,-3 2,-4 m 3,-9 -6,18 v 2 l 2,1 2,-1 1,-1 2,-3 m 0,-16 -6,18 v 2 l 1,1 m -1,-13 h 6"
         inkscape:connector-curvature="0" />
      <path
         id="path21191"
         style="fill:none;stroke:#000000"
         d="m 854.71466,-43.857203 2,-3 2,-4 m 3,-9 -6,18 v 2 l 2,1 2,-1 1,-1 2,-3 m 0,-16 -6,18 v 2 l 1,1"
         inkscape:connector-curvature="0" />
      <path
         id="path21193"
         style="fill:none;stroke:#000000"
         d="m 865.71466,-40.857203 2,-1 1,-1 1,-2 v -2 l -1,-1 h -1 l -2,1 -1,1 -1,2 v 2 l 1,2 2,1 h 3 l 3,-2 2,-3 m -7,-4 -2,2 -1,2 v 3 l 2,2"
         inkscape:connector-curvature="0" />
      <path
         id="path21195"
         transform="translate(587)"
         style="fill:none;stroke:#000000"
         d=""
         inkscape:connector-curvature="0" />
      <path
         id="path21197"
         style="fill:none;stroke:#000000"
         d="m 439.28552,-11.714306 2,-3 2,-4 m 3,-9 -6,18.0000004 v 2 l 2,1 h 1 l 2,-1 2,-2 1,-3.0000004 v -3 l 1,4 1,1 h 1 l 2,-1 m -6,-16 -6,18.0000004 v 2 l 1,1"
         inkscape:connector-curvature="0" />
      <path
         id="path21199"
         style="fill:none;stroke:#000000"
         d="m 460.28552,-15.714306 h -2 l -2,1 -1,1 -1,2 v 2.0000004 l 1,2 2,1 h 2 l 2,-1 1,-1 1,-2.0000004 v -2 l -1,-2 -2,-1 -1,1 v 2 l 1,2 2,1.0000004 h 2 l 2,-1.0000004 1,-1 m -9,-4 -2,2 -1,2 v 3.0000004 l 2,2"
         inkscape:connector-curvature="0" />
      <path
         id="path21201"
         style="fill:none;stroke:#000000"
         d="m 477.28552,-12.714306 -1,-2 -2,-1 h -2 l -2,1 -1,1 -1,2 v 2.0000004 l 1,2 2,1 h 2 l 2,-1 1,-2 m -4,-6.0000004 -2,2 -1,2 v 3.0000004 l 2,2 m 11,-21.0000004 -6,18.0000004 v 2 l 2,1 2,-1 1,-1 2,-3.0000004 m 0,-16 -6,18.0000004 v 2 l 1,1"
         inkscape:connector-curvature="0" />
      <path
         id="path21203"
         style="fill:none;stroke:#000000"
         d="m 486.28552,-15.714306 -2,6.0000004 v 2 l 2,1 h 1 l 2,-1 2,-2 2,-3.0000004 m -6,-3 -2,6.0000004 v 2 l 1,1 m 8,-9.0000004 -6,18.0000004 m 7,-18.0000004 -3,9.0000004 -2,5 -2,4 -1,2 -2,1 -1,-1 v -2 l 1,-2.99999999 2,-2.00000001 3,-2 4,-2 3,-2 2,-3.0000004"
         inkscape:connector-curvature="0" />
      <path
         id="path21205"
         transform="translate(663)"
         style="fill:none;stroke:#000000"
         d=""
         inkscape:connector-curvature="0" />
      <path
         id="path21207"
         style="fill:none;stroke:#000000"
         d="m 522.28552,-15.714306 h -2 l -2,1 -1,1 -1,2 v 2.0000004 l 1,2 2,1 h 2 l 2,-1 1,-1 1,-2.0000004 v -2 l -1,-2 -2,-1 -1,1 v 2 l 1,2 2,1.0000004 h 2 l 2,-1.0000004 1,-1 m -9,-4 -2,2 -1,2 v 3.0000004 l 2,2"
         inkscape:connector-curvature="0" />
      <path
         id="path21209"
         style="fill:none;stroke:#000000"
         d="m 532.28552,-15.714306 3,-3 2,-3 1,-3 v -2 l -1,-1 -2,1 -1,2 -9,27.0000004 v 2 l 1,1 2,-1 1,-3 1,-9 1,1 h 2 l 2,-1 1,-1 2,-3.0000004 m -4,-13 -1,5 -1,4 -3,9.0000004 -2,5 -2,4"
         inkscape:connector-curvature="0" />
      <path
         id="path21211"
         style="fill:none;stroke:#000000"
         d="m 541.28552,-15.714306 3,-3 2,-3 1,-3 v -2 l -1,-1 -2,1 -1,2 -9,27.0000004 v 2 l 1,1 2,-1 1,-3 1,-9 1,1 h 2 l 2,-1 1,-1 2,-3.0000004 m -4,-13 -1,5 -1,4 -3,9.0000004 -2,5 -2,4"
         inkscape:connector-curvature="0" />
      <path
         id="path21213"
         transform="translate(711)"
         style="fill:none;stroke:#000000"
         d=""
         inkscape:connector-curvature="0" />
      <path
         id="path21215"
         style="fill:none;stroke:#000000"
         d="m 563.28552,-11.714306 2,-3 2,-4 m 3,-9 -6,18.0000004 v 2 l 2,1 2,-1 1,-1 2,-3.0000004 m 0,-16 -6,18.0000004 v 2 l 1,1 m -1,-13.0000004 h 6"
         inkscape:connector-curvature="0" />
      <path
         id="path21217"
         style="fill:none;stroke:#000000"
         d="m 571.28552,-11.714306 2,-3 2,-4 m 3,-9 -7,21.0000004 m 8,-21.0000004 -7,21.0000004 m 2,-6.0000004 2,-2 2,-1 h 1 l 2,1 v 2 l -1,3.0000004 v 2 l 1,1 m -2,-9.0000004 1,1 v 2 l -1,3.0000004 v 2 l 2,1 2,-1 1,-1 2,-3.0000004"
         inkscape:connector-curvature="0" />
      <path
         id="path21219"
         style="fill:none;stroke:#000000"
         d="m 589.28552,-8.7143056 2,-1 1,-1.0000004 1,-2 v -2 l -1,-1 h -1 l -2,1 -1,1 -1,2 v 2.0000004 l 1,2 2,1 h 3 l 3,-2 2,-3.0000004 m -7,-4 -2,2 -1,2 v 3.0000004 l 2,2"
         inkscape:connector-curvature="0" />
      <path
         id="path21221"
         transform="translate(762)"
         style="fill:none;stroke:#000000"
         d=""
         inkscape:connector-curvature="0" />
      <path
         id="path21223"
         style="fill:none;stroke:#000000"
         d="m 624.28552,-12.714306 -1,-2 -2,-1 h -2 l -2,1 -1,1 -1,2 v 2.0000004 l 1,2 2,1 h 2 l 2,-1 1,-2 m -4,-6.0000004 -2,2 -1,2 v 3.0000004 l 2,2 m 7,-9.0000004 -6,18.0000004 m 7,-18.0000004 -3,9.0000004 -2,5 -2,4 -1,2 -2,1 -1,-1 v -2 l 1,-2.99999999 2,-2.00000001 3,-2 4,-2 3,-2 2,-3.0000004"
         inkscape:connector-curvature="0" />
      <path
         id="path21225"
         style="fill:none;stroke:#000000"
         d="m 630.28552,-11.714306 2,-3 2,-1 2,1 v 2 l -2,6.0000004 m 0,-9.0000004 1,1 v 2 l -2,6.0000004 m 3,-6.0000004 2,-2 2,-1 h 1 l -1,3 m 0,-3 v 3 l 1,2 h 1 l 2,-1"
         inkscape:connector-curvature="0" />
      <path
         id="path21227"
         style="fill:none;stroke:#000000"
         d="m 651.28552,-15.714306 h -2 l -2,1 -1,1 -1,2 v 2.0000004 l 1,2 2,1 h 2 l 2,-1 1,-1 1,-2.0000004 v -2 l -1,-2 -2,-1 -1,1 v 2 l 1,2 2,1.0000004 h 2 l 2,-1.0000004 1,-1 m -9,-4 -2,2 -1,2 v 3.0000004 l 2,2"
         inkscape:connector-curvature="0" />
      <path
         id="path21229"
         style="fill:none;stroke:#000000"
         d="m 661.28552,-15.714306 -2,6.0000004 v 2 l 2,1 h 1 l 2,-1 2,-2 2,-3.0000004 m -6,-3 -2,6.0000004 v 2 l 1,1 m 8,-9.0000004 -2,6.0000004 v 2 l 2,1 2,-1 1,-1 2,-3.0000004 m -4,-4 -2,6.0000004 v 2 l 1,1"
         inkscape:connector-curvature="0" />
      <path
         id="path21231"
         style="fill:none;stroke:#000000"
         d="m 674.28552,-11.714306 2,-3 2,-1 2,1 v 2 l -2,6.0000004 m 0,-9.0000004 1,1 v 2 l -2,6.0000004 m 3,-6.0000004 2,-2 2,-1 h 1 l 2,1 v 2 l -1,3.0000004 v 2 l 1,1 m -2,-9.0000004 1,1 v 2 l -1,3.0000004 v 2 l 2,1 2,-1 1,-1 2,-3.0000004"
         inkscape:connector-curvature="0" />
      <path
         id="path21233"
         style="fill:none;stroke:#000000"
         d="m 702.28552,-12.714306 -1,-2 -2,-1 h -2 l -2,1 -1,1 -1,2 v 2.0000004 l 1,2 2,1 h 2 l 2,-1 1,-2 m -4,-6.0000004 -2,2 -1,2 v 3.0000004 l 2,2 m 11,-21.0000004 -6,18.0000004 v 2 l 2,1 2,-1 1,-1 2,-3.0000004 m 0,-16 -6,18.0000004 v 2 l 1,1"
         inkscape:connector-curvature="0" />
      <path
         id="path21235"
         style="fill:none;stroke:#000000"
         d="m 711.28552,-8.7143056 -1,1 1,1 1,-1 -1,-1"
         inkscape:connector-curvature="0" />
    </g>
  </g>
</svg>
