<?xml version="1.0" encoding="UTF-8" standalone="no"?>
<!-- Created with Inkscape (http://www.inkscape.org/) -->

<svg
   width="250mm"
   height="135mm"
   viewBox="0 0 250 135"
   version="1.1"
   id="svg8"
   inkscape:version="1.2.2 (b0a8486541, 2022-12-01, custom)"
   sodipodi:docname="dash_og.svg"
   xmlns:inkscape="http://www.inkscape.org/namespaces/inkscape"
   xmlns:sodipodi="http://sodipodi.sourceforge.net/DTD/sodipodi-0.dtd"
   xmlns="http://www.w3.org/2000/svg"
   xmlns:svg="http://www.w3.org/2000/svg"
   xmlns:rdf="http://www.w3.org/1999/02/22-rdf-syntax-ns#"
   xmlns:cc="http://creativecommons.org/ns#"
   xmlns:dc="http://purl.org/dc/elements/1.1/">
  <sodipodi:namedview
     id="base"
     pagecolor="#ffffff"
     bordercolor="#666666"
     borderopacity="1.0"
     inkscape:pageopacity="0.0"
     inkscape:pageshadow="2"
     inkscape:zoom="1.4142136"
     inkscape:cx="358.14958"
     inkscape:cy="230.5168"
     inkscape:document-units="mm"
     inkscape:current-layer="layer1"
     showgrid="false"
     inkscape:window-width="1920"
     inkscape:window-height="1016"
     inkscape:window-x="0"
     inkscape:window-y="36"
     inkscape:window-maximized="1"
     inkscape:showpageshadow="2"
     inkscape:pagecheckerboard="0"
     inkscape:deskcolor="#d1d1d1"
     showguides="true" />
  <defs
     id="defs2">
    <rect
       x="717.71336"
       y="4.2426406"
       width="185.96908"
       height="36.769552"
       id="rect3696" />
    <rect
       x="659.02352"
       y="143.54268"
       width="150.61374"
       height="36.769552"
       id="rect22135" />
    <rect
       x="251.02291"
       y="11.313709"
       width="386.78741"
       height="50.911689"
       id="rect20615" />
    <rect
       x="323.85491"
       y="72.831998"
       width="287.79246"
       height="234.05234"
       id="rect8339" />
    <rect
       x="116.67262"
       y="120.91526"
       width="229.1026"
       height="266.57925"
       id="rect4907" />
    <rect
       x="593.26259"
       y="257.38687"
       width="155.56349"
       height="137.88582"
       id="rect4901" />
    <rect
       x="435.57778"
       y="16.970563"
       width="161.22036"
       height="57.275651"
       id="rect3443" />
    <rect
       x="665.71429"
       y="48.571429"
       width="356.09473"
       height="62.849963"
       id="rect2411" />
    <rect
       x="398.57143"
       y="38.571429"
       width="303.57143"
       height="101.42857"
       id="rect13521" />
    <rect
       x="139.28571"
       y="156.42857"
       width="226.42858"
       height="70"
       id="rect10126" />
    <rect
       x="773.57143"
       y="-11.428571"
       width="208.57143"
       height="139.28571"
       id="rect1435" />
    <rect
       x="780.71429"
       y="10"
       width="261.42857"
       height="155"
       id="rect986" />
    <rect
       x="1039.2857"
       y="-20"
       width="312.85714"
       height="265.71429"
       id="rect980" />
    <rect
       x="438.57143"
       y="152.85714"
       width="379.28571"
       height="149.28571"
       id="rect446" />
    <rect
       x="665.71429"
       y="48.57143"
       width="356.09473"
       height="62.849964"
       id="rect2411-8" />
    <rect
       x="665.71429"
       y="48.57143"
       width="356.09473"
       height="62.849964"
       id="rect2411-8-9" />
    <rect
       x="665.71429"
       y="48.57143"
       width="356.09473"
       height="62.849964"
       id="rect2411-5" />
    <rect
       x="435.57779"
       y="16.970564"
       width="186.67621"
       height="35.35534"
       id="rect3443-0" />
    <rect
       x="435.57779"
       y="16.970564"
       width="184.55489"
       height="71.417784"
       id="rect3443-0-8" />
  </defs>
  <metadata
     id="metadata5">
    <rdf:RDF>
      <cc:Work
         rdf:about="">
        <dc:format>image/svg+xml</dc:format>
        <dc:type
           rdf:resource="http://purl.org/dc/dcmitype/StillImage" />
      </cc:Work>
    </rdf:RDF>
  </metadata>
  <g
     inkscape:label="Layer 1"
     inkscape:groupmode="layer"
     id="layer1"
     transform="translate(0, -162)">
    <path
       id="path9932-1"
       style="fill:none;stroke:#000000;stroke-width:0.264583"
       inkscape:transform-center-x="0.39460381"
       inkscape:transform-center-y="0.058809981"
       transform="matrix(0.26458333,0,0,0.26458333,74.675415,161.19185)"
       d="m 324.56201,315.36962 -11.75199,-1.53098 -7.92356,8.81306 -2.17551,-11.6499 -10.83025,-4.81237 10.40745,-5.66905 1.23011,-11.78728 8.60766,8.14623 11.5905,-2.47256 -5.08762,10.7037 z" />
    <path
       id="path9932"
       style="fill:none;stroke:#000000;stroke-width:0.264583"
       inkscape:transform-center-x="0.39460381"
       inkscape:transform-center-y="0.058809981"
       d="m 324.56201,315.36962 -11.75199,-1.53098 -7.92356,8.81306 -2.17551,-11.6499 -10.83025,-4.81237 10.40745,-5.66905 1.23011,-11.78728 8.60766,8.14623 11.5905,-2.47256 -5.08762,10.7037 z"
       transform="matrix(0.26458333,0,0,0.26458333,0,162)" />
    <text
       xml:space="preserve"
       transform="matrix(0.26458333,0,0,0.26458333,-2.4331166,180.70514)"
       id="Quote"
       style="font-size:17.3333px;text-align:center;white-space:pre;shape-inside:url(#rect8339);display:inline;fill:#000000;stroke:#000000"
       x="-282.67328"
       y="0"
       inkscape:label="Quote"><tspan
         x="457.40855"
         y="88.167939"
         id="tspan315">L1
</tspan><tspan
         x="457.40855"
         y="109.83456"
         id="tspan317">L2
</tspan><tspan
         x="457.40855"
         y="131.50119"
         id="tspan319">L3
</tspan><tspan
         x="457.40855"
         y="153.16782"
         id="tspan321">L4
</tspan><tspan
         x="457.40855"
         y="174.83444"
         id="tspan323">L5
</tspan><tspan
         x="457.40855"
         y="196.50107"
         id="tspan325">L6
</tspan><tspan
         x="457.40855"
         y="218.16769"
         id="tspan327">L7
</tspan><tspan
         x="457.40855"
         y="239.83432"
         id="tspan329">L8</tspan></text>
    <text
       xml:space="preserve"
       transform="matrix(0.23003977,0,0,0.23003977,0.29847503,224.68652)"
       id="yOpp"
       style="font-size:26.6667px;text-align:center;white-space:pre;shape-inside:url(#rect2411-5);display:inline;fill:#000000;stroke:#000000"
       inkscape:label="yOpp"><tspan
         x="748.55327"
         y="72.166045"
         id="tspan331">Harvard: ay00</tspan></text>
    <text
       xml:space="preserve"
       transform="matrix(0.23003977,0,0,0.23003977,0.51396993,218.51526)"
       id="Yale"
       style="font-size:26.6667px;text-align:center;white-space:pre;shape-inside:url(#rect2411-8-9);display:inline;fill:#000000;stroke:#000000"
       inkscape:label="Yale"><tspan
         x="783.78768"
         y="72.166045"
         id="tspan333">Yale: y11</tspan></text>
    <path
       style="fill:none;stroke:#000000;stroke-width:0.264583;stroke-opacity:1"
       d="m 171.82247,226.88939 45.73512,-1e-5"
       id="path13434"
       sodipodi:nodetypes="cc"
       transform="translate(0)" />
    <text
       xml:space="preserve"
       transform="matrix(0.23003977,0,0,0.23003977,0.83133494,205.69569)"
       id="cOpp"
       style="font-size:26.6667px;text-align:center;white-space:pre;shape-inside:url(#rect2411);display:inline;fill:#000000;stroke:#000000"
       inkscape:label="cOpp"><tspan
         x="710.18082"
         y="72.166045"
         id="tspan335">Timberwolves: ac00</tspan></text>
    <text
       xml:space="preserve"
       transform="matrix(0.23003977,0,0,0.23003977,1.0468298,199.52443)"
       id="Celts"
       style="font-size:26.6667px;text-align:center;white-space:pre;shape-inside:url(#rect2411-8);display:inline;fill:#000000;stroke:#000000"
       inkscape:label="Celts"><tspan
         x="766.30719"
         y="72.166045"
         id="tspan337">Celtics: c11</tspan></text>
    <path
       sodipodi:type="spiral"
       style="fill:none;fill-rule:evenodd;stroke:#000000;stroke-width:0.264583"
       id="path13493-6"
       sodipodi:cx="37.857143"
       sodipodi:cy="115"
       sodipodi:expansion="1"
       sodipodi:revolution="3"
       sodipodi:radius="16.288219"
       sodipodi:argument="-19.510599"
       sodipodi:t0="0"
       d="m 37.857143,115 c 0.644637,-0.50138 0.993897,0.62159 0.833334,1.07143 -0.435117,1.21903 -2.066309,1.21984 -2.976191,0.59524 -1.627565,-1.11727 -1.539349,-3.47924 -0.357143,-4.88096 1.734935,-2.05707 4.912308,-1.87104 6.785714,-0.11904 2.496957,2.33513 2.208095,6.35266 -0.119047,8.69047 -2.92847,2.9419 -7.796519,2.54795 -10.595237,-0.35714 -3.389623,-3.51845 -2.889432,-9.24235 0.595237,-12.5 4.106561,-3.83902 10.689424,-3.23194 14.404761,0.83333 4.289504,4.69352 3.575128,12.13732 -1.071428,16.30953 -5.279711,4.74072 -13.58579,3.91879 -18.214284,-1.30953 -5.192471,-5.86538 -4.262809,-15.03468 1.547618,-20.11904 C 35.141152,97.569681 45.174372,98.607205 50.714285,105"
       transform="matrix(0.26458333,0,0,0.26458333,210.54345,174.0782)" />
    <path
       sodipodi:type="spiral"
       style="fill:none;fill-rule:evenodd;stroke:#000000;stroke-width:0.264583"
       id="path13493"
       sodipodi:cx="37.857143"
       sodipodi:cy="115"
       sodipodi:expansion="1"
       sodipodi:revolution="3"
       sodipodi:radius="16.288219"
       sodipodi:argument="-19.510599"
       sodipodi:t0="0"
       d="m 37.857143,115 c 0.644637,-0.50138 0.993897,0.62159 0.833334,1.07143 -0.435117,1.21903 -2.066309,1.21984 -2.976191,0.59524 -1.627565,-1.11727 -1.539349,-3.47924 -0.357143,-4.88096 1.734935,-2.05707 4.912308,-1.87104 6.785714,-0.11904 2.496957,2.33513 2.208095,6.35266 -0.119047,8.69047 -2.92847,2.9419 -7.796519,2.54795 -10.595237,-0.35714 -3.389623,-3.51845 -2.889432,-9.24235 0.595237,-12.5 4.106561,-3.83902 10.689424,-3.23194 14.404761,0.83333 4.289504,4.69352 3.575128,12.13732 -1.071428,16.30953 -5.279711,4.74072 -13.58579,3.91879 -18.214284,-1.30953 -5.192471,-5.86538 -4.262809,-15.03468 1.547618,-20.11904 C 35.141152,97.569681 45.174372,98.607205 50.714285,105"
       transform="matrix(0.26458333,0,0,0.26458333,159.15647,174.28802)" />
    <path
       style="fill:none;stroke:#000000;stroke-width:0.264583;stroke-linecap:round;stroke-linejoin:round;stroke-opacity:1"
       d="m 164.07016,209.25082 61.04316,-0.18899"
       id="path13432"
       sodipodi:nodetypes="cc"
       transform="translate(0)" />
    <text
       xml:space="preserve"
       id="Sports"
       style="font-size:29.3333px;text-align:center;white-space:pre;shape-inside:url(#rect22135);display:inline;fill:none;stroke:#000000;stroke-opacity:1"
       transform="matrix(0.26458333,0,0,0.26458333,0,162)"
       inkscape:label="Sports"><tspan
         x="687.31516"
         y="169.49606"
         id="tspan341"><tspan
           style="fill:#000000"
           id="tspan339">Sports</tspan></tspan></text>
    <rect
       style="fill:none;stroke:#000000;stroke-width:0.241797;stroke-opacity:1"
       id="rect3249"
       width="60.876945"
       height="48.122635"
       x="164.05875"
       y="199.41202"
       transform="translate(0)" />
    <text
       xml:space="preserve"
       transform="matrix(0.26458333,0,0,0.26458333,-8.0448128,149.27797)"
       id="Schedule"
       style="font-size:17.3333px;text-align:center;white-space:pre;shape-inside:url(#rect4907);shape-padding:0;display:inline;fill:#000000;stroke:#000000"
       x="103.22962"
       y="0"
       inkscape:label="Schedule"><tspan
         x="220.41571"
         y="136.25192"
         id="tspan343">T1
</tspan><tspan
         x="220.23375"
         y="157.91855"
         id="tspan345">E1
</tspan><tspan
         x="224.96909"
         y="179.58518"
         id="tspan347">--
</tspan><tspan
         x="220.41571"
         y="201.2518"
         id="tspan349">T2
</tspan><tspan
         x="220.23375"
         y="222.91843"
         id="tspan351">E2
</tspan><tspan
         x="224.96909"
         y="244.58505"
         id="tspan353">--
</tspan><tspan
         x="220.41571"
         y="266.25168"
         id="tspan355">T3
</tspan><tspan
         x="220.23375"
         y="287.91831"
         id="tspan357">E3
</tspan><tspan
         x="224.96909"
         y="309.58493"
         id="tspan359">--
</tspan><tspan
         x="220.41571"
         y="331.25156"
         id="tspan361">T4
</tspan><tspan
         x="220.23375"
         y="352.91818"
         id="tspan363">E4</tspan></text>
    <path
       style="fill:none;stroke:#000000;stroke-width:0.264583;stroke-opacity:1"
       d="m 31.719513,170.78605 c 0.392478,0.92014 0.742625,1.88212 1.190625,2.77812 0.02789,0.0558 0.11257,0.0731 0.132292,0.13229 0.02789,0.0837 -0.06236,0.20223 0,0.26459 0.07625,0.0763 1.95132,0.13229 2.248958,0.13229 1.607325,0 3.228099,0.11902 4.7625,-0.26458 0.132292,-0.0331 0.264583,0.0661 0.396875,0 0.19721,-0.0986 0.326509,-0.31002 0.529167,-0.39688 0.202657,-0.0868 0.464248,0.0986 0.661458,0 0.19721,-0.0986 0.331957,-0.29827 0.529167,-0.39687 0.07888,-0.0394 0.191201,0.0489 0.264583,0 0.528352,-0.35224 -0.03601,-0.14442 0.132292,-0.39688 0.103777,-0.15567 0.337711,-0.21939 0.396875,-0.39687 0.02789,-0.0837 -0.04892,-0.1912 0,-0.26459 0.05469,-0.082 0.209888,-0.0502 0.264583,-0.13229 0.04892,-0.0734 -0.02789,-0.18091 0,-0.26458 0.07029,-0.21087 0.677807,-1.04199 0.396875,-1.32292 -0.06331,-0.0633 -1.091629,-0.0495 -1.190625,0 -0.07921,0.0396 -0.104855,0.48801 -0.132292,0.52917 -0.352234,0.52835 -0.14442,-0.036 -0.396875,0.13229 -0.103777,0.0692 -0.17639,0.17639 -0.264583,0.26458 -0.0986,0.0986 -0.03369,0.29827 -0.132292,0.39688 -0.06236,0.0624 -0.17639,0 -0.264583,0 -0.191371,0 -2.089658,0.11428 -2.116667,0.13229 -0.103777,0.0692 -0.160806,0.1954 -0.264583,0.26458 -0.209315,0.13955 -0.716727,-0.007 -0.926042,0.13229 -0.103777,0.0692 -0.148778,0.21827 -0.264583,0.26459 -0.05627,0.0225 -3.395438,0.1911 -3.571875,0.13229 -0.108905,-0.0363 -0.888772,-0.4919 -0.926042,-0.52917 -0.03118,-0.0312 0.03944,-0.11257 0,-0.13229 -0.07888,-0.0394 -0.202221,0.0624 -0.264583,0 -0.06236,-0.0624 0.03944,-0.1857 0,-0.26458 -0.07888,-0.15777 -0.361828,0.0558 -0.529167,0 -0.04183,-0.0139 0.03944,-0.11257 0,-0.13229 -0.616347,-0.30818 -0.661458,0.6212 -0.661458,-0.66146 z"
       id="path9858"
       transform="translate(0)" />
    <path
       style="fill:none;stroke:#000000;stroke-width:0.264583;stroke-opacity:1"
       d="m 34.365346,167.21417 c -0.220485,0.17639 -0.480695,0.31225 -0.661458,0.52917 -0.426773,0.51213 1.342943,0.50914 1.5875,0.26458 0.07545,-0.0754 0.06763,-0.43217 0.132292,-0.52916 0.273573,-0.41036 0.612179,-0.79375 -0.132292,-0.79375 -0.132292,0 -0.2868,-0.0734 -0.396875,0 -0.207555,0.13837 -0.352777,0.35277 -0.529167,0.52916 z"
       id="path9852" />
    <path
       style="fill:none;stroke:#000000;stroke-width:0.264583;stroke-opacity:1"
       d="m 38.466388,166.68501 c -0.132292,0.17639 -0.283435,0.3401 -0.396875,0.52916 -0.18706,0.31177 0.08473,1.40022 0.396875,1.5875 0.303011,0.18181 1.403363,0.23598 1.5875,-0.13229 0.05916,-0.11832 -0.02596,-0.26715 0,-0.39687 0.01934,-0.0967 0.10111,-0.17104 0.132292,-0.26459 0.100245,-0.30073 0.08802,-1.49948 -0.132292,-1.71979 -0.356505,-0.3565 -1.372428,0.31085 -1.5875,0.39688 z"
       id="path9856" />
    <path
       style="fill:none;stroke:#000000;stroke-width:0.264583;stroke-opacity:1"
       d="m 31.719513,164.96521 c -0.17639,0.66146 -0.332457,1.32868 -0.529167,1.98438 -0.249885,0.83295 -0.269942,0.42903 -0.396875,1.19062 -0.09299,0.55796 0.206673,1.33541 0,1.85209 -0.05905,0.14762 -0.193478,0.25466 -0.264583,0.39687 -0.116795,0.23359 -0.03037,1.28174 -0.132292,1.5875 -0.06972,0.20917 -0.327151,0.32 -0.396875,0.52917 -0.02789,0.0837 0.02789,0.18091 0,0.26458 -0.06236,0.18709 -0.20222,0.34208 -0.264583,0.52917 -0.232712,0.69814 -0.113554,1.30305 0,1.98437 0.0435,0.26099 -0.118325,0.5571 0,0.79375 0.361338,0.72268 0.301061,0.23265 0.79375,0.39688 0.209171,0.0697 0.319995,0.32715 0.529167,0.39687 0.205867,0.0686 0.615455,-0.10697 0.79375,0 0.136337,0.0818 0.128246,0.31508 0.264583,0.39688 0.383093,0.22986 1.884939,-0.16544 2.38125,0 0.150836,0.0503 0.246039,0.2143 0.396875,0.26458 0.533119,0.17771 1.423427,-0.033 1.984375,0 1.519478,0.0894 3.228477,0.32405 4.7625,0.13229 0.799182,-0.0999 1.454576,-0.52878 2.116667,-0.92604 0.54679,-0.32807 0.954664,-0.40443 1.455208,-0.79375 0.196905,-0.15315 0.332261,-0.37601 0.529166,-0.52916 0.202965,-0.15787 0.463926,-0.23227 0.661459,-0.39688 0.07575,-0.0631 0.07069,-0.18758 0.132291,-0.26458 0.603584,-0.75448 1.503982,-1.58528 1.852084,-2.51354 0.41071,-1.09523 0.02595,-2.05611 -0.396875,-3.04271 -0.152829,-0.3566 -0.29283,-0.96841 -0.529167,-1.32292 -0.298413,-0.44762 -0.824132,-0.69184 -1.190625,-1.05833 -0.155908,-0.15591 -0.220485,-0.39688 -0.396875,-0.52917 -0.189976,-0.14248 -0.449059,-0.15838 -0.661458,-0.26458 -0.211667,-0.10584 -0.3175,-0.42334 -0.529167,-0.52917 -0.118324,-0.0592 -0.274045,0.0491 -0.396875,0 -0.115805,-0.0463 -0.153024,-0.2088 -0.264583,-0.26458 -0.162624,-0.0813 -0.362051,-0.0607 -0.529167,-0.13229 -0.14614,-0.0626 -0.254667,-0.19348 -0.396875,-0.26459 -0.293753,-0.14687 -1.428649,-0.37243 -1.5875,-0.39687 -0.477268,-0.0734 -1.090903,0 -1.5875,0 -1.190625,0 -2.38125,0 -3.571875,0 -0.144523,0 -3.772217,-0.13102 -3.96875,0 -0.234936,0.15662 -0.440973,0.35278 -0.661458,0.52916 z"
       id="path9860" />
    <text
       xml:space="preserve"
       transform="matrix(0.26458333,0,0,0.26458333,63.596713,167.56482)"
       id="Temps"
       style="font-style:normal;font-variant:normal;font-weight:normal;font-stretch:normal;font-size:21.3333px;font-family:sans-serif;-inkscape-font-specification:sans-serif;text-align:end;white-space:pre;shape-inside:url(#rect3443-0-8);shape-padding:1.41421;display:inline;fill:#000000;stroke:#000000"
       x="-5.1553361e-06"
       y="0"
       inkscape:label="Temps"><tspan
         x="497.78144"
         y="37.259736"
         id="tspan365">High: HiT°F
</tspan><tspan
         x="503.37518"
         y="63.926362"
         id="tspan367">Low: LoT°F</tspan></text>
    <text
       xml:space="preserve"
       transform="matrix(0.26458333,0,0,0.26458333,61.721722,160.66259)"
       id="Conditions"
       style="font-style:normal;font-variant:normal;font-weight:normal;font-stretch:normal;font-size:18.6667px;font-family:sans-serif;-inkscape-font-specification:sans-serif;text-align:end;white-space:pre;shape-inside:url(#rect3443-0);shape-padding:1.41421;display:inline;fill:#000000;stroke:#000000"
       x="-5.1553361e-06"
       y="0"
       inkscape:label="Conditions"><tspan
         x="563.07151"
         y="34.90042"
         id="tspan369">c1234</tspan></text>
    <path
       style="fill:none;stroke:#000000;stroke-width:0.266839"
       d="m 181.47718,162.50318 c -0.56605,34.34043 46.79356,28.49124 46.79356,28.49124"
       id="path6626"
       sodipodi:nodetypes="cc"
       transform="translate(0)" />
    <path
       style="fill:#000000;stroke:#000000;stroke-width:0.264583"
       d="M 66.977743,175.47039 168.00563,175.2833"
       id="path5044"
       transform="translate(0)" />
    <text
       xml:space="preserve"
       id="Date"
       style="font-size:37.3333px;text-align:center;white-space:pre;shape-inside:url(#rect20615);display:inline;fill:none;stroke:#000000;stroke-opacity:1"
       transform="matrix(0.26458333,0,0,0.26458333,0,162)"
       inkscape:label="Date"><tspan
         x="258.67106"
         y="44.345675"
         id="tspan371">Wednesday, Dec 14</tspan></text>
    <rect
       style="fill:none;stroke:#000000;stroke-width:0.264583"
       id="rect1015"
       width="205.43007"
       height="87.690475"
       x="22.67857"
       y="162.37798"
       ry="0"
       transform="translate(0)" />
  </g>
</svg>
