<!-- Created with Inkscape (http://www.inkscape.org/) --><svg xmlns:inkscape="http://www.inkscape.org/namespaces/inkscape" xmlns:sodipodi="http://sodipodi.sourceforge.net/DTD/sodipodi-0.dtd" xmlns="http://www.w3.org/2000/svg" xmlns:svg="http://www.w3.org/2000/svg" xmlns:rdf="http://www.w3.org/1999/02/22-rdf-syntax-ns#" xmlns:cc="http://creativecommons.org/ns#" xmlns:dc="http://purl.org/dc/elements/1.1/" width="250mm" height="135mm" viewBox="0 0 250 135" version="1.1" id="svg8" inkscape:version="1.2.2 (b0a8486541, 2022-12-01, custom)" sodipodi:docname="temp.svg">
  <sodipodi:namedview id="base" pagecolor="#ffffff" bordercolor="#666666" borderopacity="1.0" inkscape:pageopacity="0.0" inkscape:pageshadow="2" inkscape:zoom="1.4142136" inkscape:cx="358.14958" inkscape:cy="230.5168" inkscape:document-units="mm" inkscape:current-layer="layer1" showgrid="false" inkscape:window-width="1920" inkscape:window-height="1016" inkscape:window-x="0" inkscape:window-y="36" inkscape:window-maximized="1" inkscape:showpageshadow="2" inkscape:pagecheckerboard="0" inkscape:deskcolor="#d1d1d1" showguides="true"/>
  <defs id="defs2">
    <rect x="717.71336" y="4.2426406" width="185.96908" height="36.769552" id="rect3696"/>
    <rect x="659.02352" y="143.54268" width="150.61374" height="36.769552" id="rect22135"/>
    <rect x="251.02291" y="11.313709" width="386.78741" height="50.911689" id="rect20615"/>
    <rect x="323.85491" y="72.831998" width="287.79246" height="234.05234" id="rect8339"/>
    <rect x="116.67262" y="120.91526" width="229.1026" height="266.57925" id="rect4907"/>
    <rect x="593.26259" y="257.38687" width="155.56349" height="137.88582" id="rect4901"/>
    <rect x="435.57778" y="16.970563" width="161.22036" height="57.275651" id="rect3443"/>
    <rect x="665.71429" y="48.571429" width="356.09473" height="62.849963" id="rect2411"/>
    <rect x="398.57143" y="38.571429" width="303.57143" height="101.42857" id="rect13521"/>
    <rect x="139.28571" y="156.42857" width="226.42858" height="70" id="rect10126"/>
    <rect x="773.57143" y="-11.428571" width="208.57143" height="139.28571" id="rect1435"/>
    <rect x="780.71429" y="10" width="261.42857" height="155" id="rect986"/>
    <rect x="1039.2857" y="-20" width="312.85714" height="265.71429" id="rect980"/>
    <rect x="438.57143" y="152.85714" width="379.28571" height="149.28571" id="rect446"/>
    <rect x="665.71429" y="48.57143" width="356.09473" height="62.849964" id="rect2411-8"/>
    <rect x="665.71429" y="48.57143" width="356.09473" height="62.849964" id="rect2411-8-9"/>
    <rect x="665.71429" y="48.57143" width="356.09473" height="62.849964" id="rect2411-5"/>
    <rect x="435.57779" y="16.970564" width="186.67621" height="35.35534" id="rect3443-0"/>
    <rect x="435.57779" y="16.970564" width="184.55489" height="71.417784" id="rect3443-0-8"/>
  </defs>
  <metadata id="metadata5">
    <rdf:RDF>
      <cc:Work rdf:about="">
        <dc:format>image/svg+xml</dc:format>
        <dc:type rdf:resource="http://purl.org/dc/dcmitype/StillImage"/>
      </cc:Work>
    </rdf:RDF>
  </metadata>
  <g inkscape:label="Layer 1" inkscape:groupmode="layer" id="layer1" transform="translate(0, -162)">
    <path id="path9932-1" style="fill:none;stroke:#000000;stroke-width:0.264583" inkscape:transform-center-x="0.39460381" inkscape:transform-center-y="0.058809981" transform="matrix(0.264583 0 0 0.264583 74.6754 161.192)" d="m 324.56201,315.36962 -11.75199,-1.53098 -7.92356,8.81306 -2.17551,-11.6499 -10.83025,-4.81237 10.40745,-5.66905 1.23011,-11.78728 8.60766,8.14623 11.5905,-2.47256 -5.08762,10.7037 z"/>
    <path id="path9932" style="fill:none;stroke:#000000;stroke-width:0.264583" inkscape:transform-center-x="0.39460381" inkscape:transform-center-y="0.058809981" d="m 324.56201,315.36962 -11.75199,-1.53098 -7.92356,8.81306 -2.17551,-11.6499 -10.83025,-4.81237 10.40745,-5.66905 1.23011,-11.78728 8.60766,8.14623 11.5905,-2.47256 -5.08762,10.7037 z" transform="matrix(0.264583 0 0 0.264583 0 162)"/>
    <path style="fill:none;stroke:#000000;stroke-width:0.264583;stroke-opacity:1" d="m 171.82247,226.88939 45.73512,-1e-5" id="path13434" sodipodi:nodetypes="cc"/>
    <path sodipodi:type="spiral" style="fill:none;fill-rule:evenodd;stroke:#000000;stroke-width:0.264583" id="path13493-6" sodipodi:cx="37.857143" sodipodi:cy="115" sodipodi:expansion="1" sodipodi:revolution="3" sodipodi:radius="16.288219" sodipodi:argument="-19.510599" sodipodi:t0="0" d="m 37.857143,115 c 0.644637,-0.50138 0.993897,0.62159 0.833334,1.07143 -0.435117,1.21903 -2.066309,1.21984 -2.976191,0.59524 -1.627565,-1.11727 -1.539349,-3.47924 -0.357143,-4.88096 1.734935,-2.05707 4.912308,-1.87104 6.785714,-0.11904 2.496957,2.33513 2.208095,6.35266 -0.119047,8.69047 -2.92847,2.9419 -7.796519,2.54795 -10.595237,-0.35714 -3.389623,-3.51845 -2.889432,-9.24235 0.595237,-12.5 4.106561,-3.83902 10.689424,-3.23194 14.404761,0.83333 4.289504,4.69352 3.575128,12.13732 -1.071428,16.30953 -5.279711,4.74072 -13.58579,3.91879 -18.214284,-1.30953 -5.192471,-5.86538 -4.262809,-15.03468 1.547618,-20.11904 C 35.141152,97.569681 45.174372,98.607205 50.714285,105" transform="matrix(0.264583 0 0 0.264583 210.543 174.078)"/>
    <path sodipodi:type="spiral" style="fill:none;fill-rule:evenodd;stroke:#000000;stroke-width:0.264583" id="path13493" sodipodi:cx="37.857143" sodipodi:cy="115" sodipodi:expansion="1" sodipodi:revolution="3" sodipodi:radius="16.288219" sodipodi:argument="-19.510599" sodipodi:t0="0" d="m 37.857143,115 c 0.644637,-0.50138 0.993897,0.62159 0.833334,1.07143 -0.435117,1.21903 -2.066309,1.21984 -2.976191,0.59524 -1.627565,-1.11727 -1.539349,-3.47924 -0.357143,-4.88096 1.734935,-2.05707 4.912308,-1.87104 6.785714,-0.11904 2.496957,2.33513 2.208095,6.35266 -0.119047,8.69047 -2.92847,2.9419 -7.796519,2.54795 -10.595237,-0.35714 -3.389623,-3.51845 -2.889432,-9.24235 0.595237,-12.5 4.106561,-3.83902 10.689424,-3.23194 14.404761,0.83333 4.289504,4.69352 3.575128,12.13732 -1.071428,16.30953 -5.279711,4.74072 -13.58579,3.91879 -18.214284,-1.30953 -5.192471,-5.86538 -4.262809,-15.03468 1.547618,-20.11904 C 35.141152,97.569681 45.174372,98.607205 50.714285,105" transform="matrix(0.264583 0 0 0.264583 159.156 174.288)"/>
    <path style="fill:none;stroke:#000000;stroke-width:0.264583;stroke-linecap:round;stroke-linejoin:round;stroke-opacity:1" d="m 164.07016,209.25082 61.04316,-0.18899" id="path13432" sodipodi:nodetypes="cc"/>
    <rect style="fill:none;stroke:#000000;stroke-width:0.241797;stroke-opacity:1" id="rect3249" width="60.876945" height="48.122635" x="164.05875" y="199.41202"/>
    <path style="fill:none;stroke:#000000;stroke-width:0.264583;stroke-opacity:1" d="m 31.719513,170.78605 c 0.392478,0.92014 0.742625,1.88212 1.190625,2.77812 0.02789,0.0558 0.11257,0.0731 0.132292,0.13229 0.02789,0.0837 -0.06236,0.20223 0,0.26459 0.07625,0.0763 1.95132,0.13229 2.248958,0.13229 1.607325,0 3.228099,0.11902 4.7625,-0.26458 0.132292,-0.0331 0.264583,0.0661 0.396875,0 0.19721,-0.0986 0.326509,-0.31002 0.529167,-0.39688 0.202657,-0.0868 0.464248,0.0986 0.661458,0 0.19721,-0.0986 0.331957,-0.29827 0.529167,-0.39687 0.07888,-0.0394 0.191201,0.0489 0.264583,0 0.528352,-0.35224 -0.03601,-0.14442 0.132292,-0.39688 0.103777,-0.15567 0.337711,-0.21939 0.396875,-0.39687 0.02789,-0.0837 -0.04892,-0.1912 0,-0.26459 0.05469,-0.082 0.209888,-0.0502 0.264583,-0.13229 0.04892,-0.0734 -0.02789,-0.18091 0,-0.26458 0.07029,-0.21087 0.677807,-1.04199 0.396875,-1.32292 -0.06331,-0.0633 -1.091629,-0.0495 -1.190625,0 -0.07921,0.0396 -0.104855,0.48801 -0.132292,0.52917 -0.352234,0.52835 -0.14442,-0.036 -0.396875,0.13229 -0.103777,0.0692 -0.17639,0.17639 -0.264583,0.26458 -0.0986,0.0986 -0.03369,0.29827 -0.132292,0.39688 -0.06236,0.0624 -0.17639,0 -0.264583,0 -0.191371,0 -2.089658,0.11428 -2.116667,0.13229 -0.103777,0.0692 -0.160806,0.1954 -0.264583,0.26458 -0.209315,0.13955 -0.716727,-0.007 -0.926042,0.13229 -0.103777,0.0692 -0.148778,0.21827 -0.264583,0.26459 -0.05627,0.0225 -3.395438,0.1911 -3.571875,0.13229 -0.108905,-0.0363 -0.888772,-0.4919 -0.926042,-0.52917 -0.03118,-0.0312 0.03944,-0.11257 0,-0.13229 -0.07888,-0.0394 -0.202221,0.0624 -0.264583,0 -0.06236,-0.0624 0.03944,-0.1857 0,-0.26458 -0.07888,-0.15777 -0.361828,0.0558 -0.529167,0 -0.04183,-0.0139 0.03944,-0.11257 0,-0.13229 -0.616347,-0.30818 -0.661458,0.6212 -0.661458,-0.66146 z" id="path9858"/>
    <path style="fill:none;stroke:#000000;stroke-width:0.264583;stroke-opacity:1" d="m 34.365346,167.21417 c -0.220485,0.17639 -0.480695,0.31225 -0.661458,0.52917 -0.426773,0.51213 1.342943,0.50914 1.5875,0.26458 0.07545,-0.0754 0.06763,-0.43217 0.132292,-0.52916 0.273573,-0.41036 0.612179,-0.79375 -0.132292,-0.79375 -0.132292,0 -0.2868,-0.0734 -0.396875,0 -0.207555,0.13837 -0.352777,0.35277 -0.529167,0.52916 z" id="path9852"/>
    <path style="fill:none;stroke:#000000;stroke-width:0.264583;stroke-opacity:1" d="m 38.466388,166.68501 c -0.132292,0.17639 -0.283435,0.3401 -0.396875,0.52916 -0.18706,0.31177 0.08473,1.40022 0.396875,1.5875 0.303011,0.18181 1.403363,0.23598 1.5875,-0.13229 0.05916,-0.11832 -0.02596,-0.26715 0,-0.39687 0.01934,-0.0967 0.10111,-0.17104 0.132292,-0.26459 0.100245,-0.30073 0.08802,-1.49948 -0.132292,-1.71979 -0.356505,-0.3565 -1.372428,0.31085 -1.5875,0.39688 z" id="path9856"/>
    <path style="fill:none;stroke:#000000;stroke-width:0.264583;stroke-opacity:1" d="m 31.719513,164.96521 c -0.17639,0.66146 -0.332457,1.32868 -0.529167,1.98438 -0.249885,0.83295 -0.269942,0.42903 -0.396875,1.19062 -0.09299,0.55796 0.206673,1.33541 0,1.85209 -0.05905,0.14762 -0.193478,0.25466 -0.264583,0.39687 -0.116795,0.23359 -0.03037,1.28174 -0.132292,1.5875 -0.06972,0.20917 -0.327151,0.32 -0.396875,0.52917 -0.02789,0.0837 0.02789,0.18091 0,0.26458 -0.06236,0.18709 -0.20222,0.34208 -0.264583,0.52917 -0.232712,0.69814 -0.113554,1.30305 0,1.98437 0.0435,0.26099 -0.118325,0.5571 0,0.79375 0.361338,0.72268 0.301061,0.23265 0.79375,0.39688 0.209171,0.0697 0.319995,0.32715 0.529167,0.39687 0.205867,0.0686 0.615455,-0.10697 0.79375,0 0.136337,0.0818 0.128246,0.31508 0.264583,0.39688 0.383093,0.22986 1.884939,-0.16544 2.38125,0 0.150836,0.0503 0.246039,0.2143 0.396875,0.26458 0.533119,0.17771 1.423427,-0.033 1.984375,0 1.519478,0.0894 3.228477,0.32405 4.7625,0.13229 0.799182,-0.0999 1.454576,-0.52878 2.116667,-0.92604 0.54679,-0.32807 0.954664,-0.40443 1.455208,-0.79375 0.196905,-0.15315 0.332261,-0.37601 0.529166,-0.52916 0.202965,-0.15787 0.463926,-0.23227 0.661459,-0.39688 0.07575,-0.0631 0.07069,-0.18758 0.132291,-0.26458 0.603584,-0.75448 1.503982,-1.58528 1.852084,-2.51354 0.41071,-1.09523 0.02595,-2.05611 -0.396875,-3.04271 -0.152829,-0.3566 -0.29283,-0.96841 -0.529167,-1.32292 -0.298413,-0.44762 -0.824132,-0.69184 -1.190625,-1.05833 -0.155908,-0.15591 -0.220485,-0.39688 -0.396875,-0.52917 -0.189976,-0.14248 -0.449059,-0.15838 -0.661458,-0.26458 -0.211667,-0.10584 -0.3175,-0.42334 -0.529167,-0.52917 -0.118324,-0.0592 -0.274045,0.0491 -0.396875,0 -0.115805,-0.0463 -0.153024,-0.2088 -0.264583,-0.26458 -0.162624,-0.0813 -0.362051,-0.0607 -0.529167,-0.13229 -0.14614,-0.0626 -0.254667,-0.19348 -0.396875,-0.26459 -0.293753,-0.14687 -1.428649,-0.37243 -1.5875,-0.39687 -0.477268,-0.0734 -1.090903,0 -1.5875,0 -1.190625,0 -2.38125,0 -3.571875,0 -0.144523,0 -3.772217,-0.13102 -3.96875,0 -0.234936,0.15662 -0.440973,0.35278 -0.661458,0.52916 z" id="path9860"/>
    <path style="fill:none;stroke:#000000;stroke-width:0.266839" d="m 181.47718,162.50318 c -0.56605,34.34043 46.79356,28.49124 46.79356,28.49124" id="path6626" sodipodi:nodetypes="cc"/>
    <path style="fill:#000000;stroke:#000000;stroke-width:0.264583" d="M 66.977743,175.47039 168.00563,175.2833" id="path5044"/>
    <g aria-label="Monday, Dec. 19" transform="matrix(0.264583 0 0 0.264583 0 162)" id="Date" style="font-size:37.3333px;text-align:center;white-space:pre;shape-inside:url(#rect20615);display:inline;fill:none;stroke:#000000" inkscape:label="Date">
      <path d="m 290.78171,17.129552 c 1.82899,0 3.65798,0 5.48697,0 2.3151,6.173606 4.63021,12.347212 6.94531,18.520818 2.32725,-6.173606 4.65451,-12.347212 6.98176,-18.520818 1.82899,0 3.65799,0 5.48698,0 0,9.072041 0,18.144082 0,27.216123 -1.19705,0 -2.3941,0 -3.59115,0 0,-7.966139 0,-15.932278 0,-23.898417 -2.33941,6.222217 -4.67881,12.444434 -7.01822,18.666651 -1.23351,0 -2.46701,0 -3.70052,0 -2.33941,-6.222217 -4.67881,-12.444434 -7.01822,-18.666651 0,7.966139 0,15.932278 0,23.898417 -1.19097,0 -2.38194,0 -3.57291,0 0,-9.072041 0,-18.144082 0,-27.216123 z" id="path79"/>
      <path d="m 330.75824,26.280586 c -1.51852,-0.03402 -3.0497,0.608606 -4.01378,1.797085 -1.47085,1.731265 -1.8486,4.100966 -1.81804,6.3054 0.0282,2.133738 0.46911,4.422768 1.95784,6.042482 1.04616,1.170418 2.66082,1.700687 4.2046,1.59676 1.51618,-0.04157 2.97694,-0.813269 3.86751,-2.040758 1.41271,-1.871075 1.69697,-4.324998 1.59821,-6.601413 -0.0911,-2.102167 -0.70129,-4.324187 -2.28803,-5.797791 -0.93744,-0.886164 -2.22951,-1.317797 -3.50831,-1.301765 z m 0,-2.843747 c 2.27592,-0.02211 4.63394,0.651049 6.30362,2.255697 1.86489,1.723993 2.76376,4.24393 2.98553,6.725569 0.22513,2.647241 0.0184,5.432318 -1.20953,7.832455 -1.05206,2.09473 -3.00624,3.727826 -5.29368,4.287731 -1.93729,0.478648 -4.01006,0.458348 -5.92887,-0.09789 -2.30874,-0.663293 -4.20686,-2.443712 -5.15917,-4.631611 -1.05563,-2.374241 -1.21211,-5.050131 -0.9654,-7.606896 0.25385,-2.479829 1.20255,-4.991934 3.11676,-6.664874 1.66663,-1.505623 3.94311,-2.116186 6.15074,-2.100179 z" id="path81"/>
      <path d="m 362.65925,32.022769 c 0,4.107635 0,8.215271 0,12.322906 -1.11805,0 -2.23611,0 -3.35416,0 -0.004,-4.219148 0.009,-8.438482 -0.007,-12.657511 -0.0549,-1.530741 -0.34335,-3.206108 -1.50409,-4.309431 -1.16364,-1.080149 -2.88536,-1.164561 -4.37176,-0.903042 -1.65909,0.277352 -3.11692,1.42357 -3.81448,2.948801 -0.63958,1.310463 -0.70198,2.791792 -0.67516,4.223262 0,3.565973 0,7.131947 0,10.697921 -1.12413,0 -2.24826,0 -3.37239,0 0,-6.80555 0,-13.611099 0,-20.416649 1.12413,0 2.24826,0 3.37239,0 0,1.057291 0,2.114581 0,3.171872 1.04992,-1.645028 2.65223,-3.005729 4.58919,-3.436195 1.70787,-0.381376 3.55317,-0.313071 5.18235,0.353724 1.73055,0.706136 2.93993,2.328836 3.44568,4.092213 0.38411,1.264958 0.50764,2.594668 0.50933,3.912129 z" id="path83"/>
      <path d="m 382.78423,27.027981 c 0,-3.682288 0,-7.364577 0,-11.046865 1.11805,0 2.23611,0 3.35416,0 0,9.454853 0,18.909706 0,28.364559 -1.11805,0 -2.23611,0 -3.35416,0 0,-1.020832 0,-2.041665 0,-3.062497 -0.89714,1.599287 -2.40387,2.886303 -4.20894,3.314287 -2.2103,0.542026 -4.70493,0.344427 -6.60346,-0.994949 -2.2521,-1.570545 -3.51402,-4.221382 -3.89769,-6.886987 -0.32839,-2.377101 -0.2503,-4.847168 0.47025,-7.148462 0.77951,-2.466212 2.52116,-4.776263 5.01316,-5.679617 1.71612,-0.606184 3.63121,-0.585616 5.36658,-0.06593 1.6543,0.507797 3.01808,1.710313 3.8601,3.206461 z m -11.42968,7.127599 c 0.004,2.138283 0.36385,4.428644 1.75918,6.129859 0.94157,1.178027 2.45047,1.815878 3.94654,1.781592 1.49608,0.03429 3.00498,-0.603563 3.94655,-1.781592 1.42803,-1.729439 1.78827,-4.066938 1.77704,-6.245109 -0.0121,-2.174476 -0.43191,-4.509203 -1.93135,-6.177226 -0.9922,-1.148454 -2.5422,-1.701507 -4.03927,-1.61433 -1.47341,0.02228 -2.91357,0.734207 -3.79963,1.916339 -1.31522,1.686116 -1.65399,3.908536 -1.65906,5.990467 z" id="path85"/>
      <path d="m 402.32588,34.082663 c -1.74661,0.02725 -3.55668,0.05568 -5.20186,0.711792 -1.09705,0.421929 -1.84166,1.501583 -1.95234,2.657788 -0.18924,1.306336 0.13078,2.776103 1.19523,3.639653 1.25233,1.025024 3.00418,1.12654 4.53668,0.836227 1.86173,-0.351438 3.38073,-1.78196 4.096,-3.50208 0.59885,-1.364276 0.69102,-2.873001 0.66223,-4.34338 -1.11198,0 -2.22396,0 -3.33594,0 z m 6.6901,-1.385416 c 0,3.882809 0,7.765619 0,11.648428 -1.11805,0 -2.23611,0 -3.35416,0 0,-1.032985 0,-2.065971 0,-3.098956 -0.95464,1.592764 -2.49404,2.863075 -4.31751,3.302681 -1.65358,0.406327 -3.41855,0.458312 -5.0741,0.0361 -1.85205,-0.468397 -3.46884,-1.853028 -4.09446,-3.674331 -0.54257,-1.582549 -0.53267,-3.344289 -0.0541,-4.941163 0.48894,-1.625606 1.78426,-2.922916 3.33579,-3.568557 2.08138,-0.909881 4.38782,-0.96872 6.62274,-0.943786 1.19387,0 2.38775,0 3.58162,0 0.0565,-1.315614 -0.26669,-2.723775 -1.2576,-3.655906 -1.26946,-1.256384 -3.14923,-1.568735 -4.8666,-1.517488 -2.18468,0.04364 -4.35781,0.616741 -6.27163,1.673397 0,-1.032985 0,-2.065971 0,-3.098956 3.10347,-1.192706 6.54547,-1.838707 9.83956,-1.125231 1.88591,0.395614 3.66894,1.5027 4.62816,3.207067 1.00726,1.732818 1.27665,3.782573 1.28227,5.756699 z" id="path87"/>
      <path d="m 424.41961,46.241507 c -0.63562,1.560176 -1.29173,3.171815 -2.43245,4.440222 -1.09138,1.160105 -2.75848,1.479231 -4.29043,1.429564 -0.779,0 -1.558,0 -2.337,0 0,-0.935763 0,-1.871526 0,-2.807289 0.89953,-0.01773 1.80337,0.04441 2.69901,-0.05191 0.8057,-0.09712 1.56581,-0.549211 1.96653,-1.266606 0.76814,-1.23427 1.20241,-2.630624 1.75112,-3.967938 -2.7526,-6.696175 -5.50521,-13.392349 -8.25781,-20.088524 1.1849,0 2.36979,0 3.55469,0 2.12673,5.322912 4.25347,10.645824 6.3802,15.968736 2.12673,-5.322912 4.25347,-10.645824 6.3802,-15.968736 1.1849,0 2.36979,0 3.55469,0 -2.98958,7.437494 -5.97917,14.874987 -8.96875,22.312481 z" id="path89"/>
      <path d="m 438.87533,39.715471 c 1.28212,0 2.56423,0 3.84635,0 0,1.045138 0,2.090276 0,3.135414 -0.99653,1.944443 -1.99305,3.888885 -2.98958,5.833328 -0.78385,0 -1.56771,0 -2.35156,0 0.49568,-1.955153 1.012,-3.907703 1.49479,-5.864481 0,-1.034754 0,-2.069507 0,-3.104261 z" id="path91"/>
      <path d="m 465.58103,20.155591 c 0,7.054682 0,14.109363 0,21.164045 1.85358,-0.01088 3.70794,0.0255 5.56086,-0.02632 2.3573,-0.120114 4.82875,-0.610752 6.70085,-2.14257 1.7613,-1.433269 2.5977,-3.679548 2.88672,-5.872439 0.27155,-2.212249 0.24069,-4.489756 -0.30313,-6.659938 -0.4839,-1.944032 -1.60467,-3.783549 -3.34166,-4.842176 -2.16235,-1.34016 -4.78107,-1.627831 -7.2738,-1.620597 -1.40995,0 -2.81989,0 -4.22984,0 z m -3.68229,-3.026039 c 2.84584,0.0067 5.69193,-0.01457 8.53758,0.01289 3.10051,0.09709 6.3077,0.548255 9.03334,2.123595 1.985,1.131472 3.50334,2.998725 4.29278,5.135003 1.02597,2.738128 1.1537,5.730475 0.90403,8.617617 -0.26201,2.736036 -1.14466,5.541039 -3.10433,7.545079 -1.98972,2.052887 -4.81526,3.029543 -7.58231,3.459726 -2.70959,0.439705 -5.45938,0.296932 -8.19205,0.322214 -1.29634,0 -2.59269,0 -3.88904,0 0,-9.072041 0,-18.144082 0,-27.216123 z" id="path93"/>
      <path d="m 507.96381,33.298809 c 0,0.546875 0,1.093749 0,1.640624 -5.14062,0 -10.28124,0 -15.42186,0 0.11371,2.01457 0.7389,4.148427 2.31852,5.50499 1.54993,1.34684 3.7045,1.68195 5.69326,1.569487 2.31743,-0.097 4.58599,-0.790641 6.62623,-1.879169 0,1.057291 0,2.114581 0,3.171872 -3.12945,1.318803 -6.62745,1.911749 -9.99948,1.367062 -2.34485,-0.379039 -4.58041,-1.585636 -6.03835,-3.48256 -1.62846,-2.052868 -2.17867,-4.748386 -2.09425,-7.318648 0.0504,-2.609078 0.76609,-5.306795 2.526,-7.297046 1.50026,-1.771241 3.72655,-2.82755 6.01909,-3.059094 2.35826,-0.263047 4.90532,0.07215 6.83696,1.544936 1.90848,1.42176 3.05016,3.685599 3.37394,6.014917 0.11215,0.735137 0.15987,1.479269 0.15994,2.222629 z m -3.35416,-0.984374 c 8.2e-4,-1.713122 -0.54417,-3.505166 -1.8384,-4.686422 -1.12472,-1.089705 -2.76164,-1.457623 -4.28583,-1.328455 -1.73277,0.08109 -3.48486,0.838054 -4.52446,2.264652 -0.81622,1.08261 -1.19422,2.433054 -1.30964,3.768454 3.98611,-0.0061 7.97222,-0.01215 11.95833,-0.01823 z" id="path95"/>
      <path d="m 528.16171,24.712879 c 0,1.045138 0,2.090276 0,3.135414 -2.34808,-1.291905 -5.16503,-1.963299 -7.81318,-1.322148 -1.85571,0.438132 -3.39163,1.8578 -4.09643,3.613325 -0.77691,1.918528 -0.8386,4.061511 -0.5459,6.088736 0.29422,1.955029 1.29998,3.906227 3.05867,4.915245 1.83091,1.057147 4.07564,1.04844 6.08964,0.614593 1.1588,-0.264541 2.26721,-0.723949 3.3072,-1.295178 0,1.032985 0,2.06597 0,3.098955 -2.60496,1.217651 -5.59235,1.596687 -8.42311,1.107995 -2.31043,-0.402079 -4.44996,-1.718643 -5.79425,-3.649092 -1.6209,-2.257454 -2.06203,-5.137842 -1.90546,-7.85771 0.1268,-2.494913 0.93264,-5.042535 2.70617,-6.864199 1.6404,-1.749111 4.00591,-2.65464 6.36625,-2.817258 2.40258,-0.190662 4.8585,0.22366 7.0504,1.231322 z" id="path97"/>
      <path d="m 534.46899,39.715471 c 1.28212,0 2.56423,0 3.84635,0 0,1.543401 0,3.086803 0,4.630204 -1.28212,0 -2.56423,0 -3.84635,0 0,-1.543401 0,-3.086803 0,-4.630204 z" id="path99"/>
      <path d="m 558.84136,41.246719 c 2.00521,0 4.01041,0 6.01562,0 0,-6.921001 0,-13.842002 0,-20.763003 -2.18142,0.4375 -4.36285,0.874999 -6.54427,1.312499 0,-1.118055 0,-2.236109 0,-3.354164 2.17986,-0.43544 4.35808,-0.887326 6.53896,-1.312499 1.21705,0 2.43409,0 3.65114,0 0,8.039056 0,16.078111 0,24.117167 2.00521,0 4.01041,0 6.01562,0 0,1.032985 0,2.065971 0,3.098956 -5.22569,0 -10.45138,0 -15.67707,0 0,-1.032985 0,-2.065971 0,-3.098956 z" id="path101"/>
      <path d="m 582.06531,43.780571 c 0,-1.118054 0,-2.236109 0,-3.354163 2.40258,1.130203 5.17994,1.727935 7.80247,1.08596 1.7264,-0.413511 3.19801,-1.629752 4.02006,-3.191641 1.06526,-1.971537 1.40776,-4.233697 1.53943,-6.443791 -1.27925,1.970041 -3.56846,3.180868 -5.90473,3.237419 -2.33438,0.09219 -4.79906,-0.516429 -6.53232,-2.155562 -1.75925,-1.604249 -2.56753,-4.005039 -2.65741,-6.33806 -0.13382,-2.41731 0.37337,-4.972806 1.949,-6.875391 1.39022,-1.753787 3.53202,-2.816487 5.7439,-3.033124 2.27421,-0.256154 4.72439,0.09311 6.59886,1.487424 2.04506,1.506934 3.21149,3.915677 3.80278,6.331746 0.63241,2.640173 0.76239,5.383955 0.5965,8.086892 -0.22021,3.127016 -1.16719,6.307023 -3.23607,8.72115 -1.47547,1.778507 -3.59565,3.001368 -5.87976,3.364559 -2.63738,0.448044 -5.35016,-0.02442 -7.84271,-0.923418 z m 7.32811,-11.539052 c 1.46844,0.03087 2.97851,-0.538326 3.91927,-1.695311 1.29947,-1.508453 1.5697,-3.615681 1.42273,-5.535325 -0.11519,-1.724716 -0.83361,-3.488815 -2.2611,-4.53273 -1.36273,-0.994662 -3.2074,-1.133061 -4.79672,-0.683157 -1.72513,0.500186 -2.97087,2.064613 -3.38613,3.77201 -0.3887,1.599341 -0.37946,3.308904 0.0622,4.896499 0.4493,1.621348 1.6759,3.069388 3.3239,3.539611 0.55503,0.168512 1.13681,0.238564 1.71582,0.238403 z" id="path103"/>
    </g>
    <rect style="fill:none;stroke:#000000;stroke-width:0.264583" id="rect1015" width="205.43007" height="87.690475" x="22.67857" y="162.37798" ry="0"/>
  <g inkscape:label="Hershey Text" style="fill:none;stroke:#000000;stroke-linecap:round;stroke-linejoin:round" transform="matrix(0.264583 0 0 0.264583 -2.43312 180.705)"><g transform="translate(353.388, 88.1679)"><path d="M 158 662 L 315 0 M 472 662 L 315 0 M 472 662 L 630 0 M 788 662 L 630 0" style="stroke-width:0.3833in" transform="scale(0.0173333, -0.0173333)"/><path d="M 220 662 L 220 0 M 220 315 L 315 410 L 378 441 L 472 441 L 536 410 L 567 315 L 567 0" style="stroke-width:0.3833in" transform="matrix(0.0173333 0 0 -0.0173333 13.104 0)"/><path d="M 189 252 L 567 252 L 567 315 L 536 378 L 504 410 L 441 441 L 346 441 L 284 410 L 220 346 L 189 252 L 189 189 L 220 94.5 L 284 31.5 L 346 0 L 441 0 L 504 31.5 L 567 94.5" style="stroke-width:0.3833in" transform="matrix(0.0173333 0 0 -0.0173333 23.4693 0)"/><path d="M 220 441 L 220 0 M 220 252 L 252 346 L 315 410 L 378 441 L 472 441" style="stroke-width:0.3833in" transform="matrix(0.0173333 0 0 -0.0173333 33.2973 0)"/><path d="M 189 252 L 567 252 L 567 315 L 536 378 L 504 410 L 441 441 L 346 441 L 284 410 L 220 346 L 189 252 L 189 189 L 220 94.5 L 284 31.5 L 346 0 L 441 0 L 504 31.5 L 567 94.5" style="stroke-width:0.3833in" transform="matrix(0.0173333 0 0 -0.0173333 40.4039 0)"/><path d="M 252 662 L 252 126 L 284 31.5 L 346 0 L 410 0 M 158 441 L 378 441" style="stroke-width:0.3833in" transform="matrix(0.0173333 0 0 -0.0173333 56.7839 0)"/><path d="M 220 662 L 220 0 M 220 315 L 315 410 L 378 441 L 472 441 L 536 410 L 567 315 L 567 0" style="stroke-width:0.3833in" transform="matrix(0.0173333 0 0 -0.0173333 63.3359 0)"/><path d="M 189 252 L 567 252 L 567 315 L 536 378 L 504 410 L 441 441 L 346 441 L 284 410 L 220 346 L 189 252 L 189 189 L 220 94.5 L 284 31.5 L 346 0 L 441 0 L 504 31.5 L 567 94.5" style="stroke-width:0.3833in" transform="matrix(0.0173333 0 0 -0.0173333 73.7012 0)"/><path d="M 220 441 L 220 0 M 220 252 L 252 346 L 315 410 L 378 441 L 472 441" style="stroke-width:0.3833in" transform="matrix(0.0173333 0 0 -0.0173333 83.5292 0)"/><path d="M 189 252 L 567 252 L 567 315 L 536 378 L 504 410 L 441 441 L 346 441 L 284 410 L 220 346 L 189 252 L 189 189 L 220 94.5 L 284 31.5 L 346 0 L 441 0 L 504 31.5 L 567 94.5" style="stroke-width:0.3833in" transform="matrix(0.0173333 0 0 -0.0173333 90.6358 0)"/><path d="M 189 662 L 220 630 L 252 662 L 220 693 L 189 662 M 220 441 L 220 0" style="stroke-width:0.3833in" transform="matrix(0.0173333 0 0 -0.0173333 107.016 0)"/><path d="M 536 346 L 504 410 L 410 441 L 315 441 L 220 410 L 189 346 L 220 284 L 284 252 L 441 220 L 504 189 L 536 126 L 536 94.5 L 504 31.5 L 410 0 L 315 0 L 220 31.5 L 189 94.5" style="stroke-width:0.3833in" transform="matrix(0.0173333 0 0 -0.0173333 111.384 0)"/><path d="M 220 441 L 220 0 M 220 252 L 252 346 L 315 410 L 378 441 L 472 441" style="stroke-width:0.3833in" transform="matrix(0.0173333 0 0 -0.0173333 127.226 0)"/><path d="M 220 441 L 220 126 L 252 31.5 L 315 0 L 410 0 L 472 31.5 L 567 126 M 567 441 L 567 0" style="stroke-width:0.3833in" transform="matrix(0.0173333 0 0 -0.0173333 134.333 0)"/><path d="M 189 662 L 220 630 L 252 662 L 220 693 L 189 662 M 220 441 L 220 0" style="stroke-width:0.3833in" transform="matrix(0.0173333 0 0 -0.0173333 144.698 0)"/><path d="M 220 441 L 220 0 M 220 315 L 315 410 L 378 441 L 472 441 L 536 410 L 567 315 L 567 0" style="stroke-width:0.3833in" transform="matrix(0.0173333 0 0 -0.0173333 149.066 0)"/><path d="M 252 126 L 220 94.5 L 189 126 L 220 158 L 252 126 L 252 63 L 189 0" style="stroke-width:0.3833in" transform="matrix(0.0173333 0 0 -0.0173333 159.432 0)"/><path d="M 252 662 L 252 126 L 284 31.5 L 346 0 L 410 0 M 158 441 L 378 441" style="stroke-width:0.3833in" transform="matrix(0.0173333 0 0 -0.0173333 170.352 0)"/><path d="M 220 662 L 220 0 M 220 315 L 315 410 L 378 441 L 472 441 L 536 410 L 567 315 L 567 0" style="stroke-width:0.3833in" transform="matrix(0.0173333 0 0 -0.0173333 176.904 0)"/><path d="M 189 252 L 567 252 L 567 315 L 536 378 L 504 410 L 441 441 L 346 441 L 284 410 L 220 346 L 189 252 L 189 189 L 220 94.5 L 284 31.5 L 346 0 L 441 0 L 504 31.5 L 567 94.5" style="stroke-width:0.3833in" transform="matrix(0.0173333 0 0 -0.0173333 187.269 0)"/><path d="M 220 441 L 220 0 M 220 252 L 252 346 L 315 410 L 378 441 L 472 441" style="stroke-width:0.3833in" transform="matrix(0.0173333 0 0 -0.0173333 197.097 0)"/><path d="M 189 252 L 567 252 L 567 315 L 536 378 L 504 410 L 441 441 L 346 441 L 284 410 L 220 346 L 189 252 L 189 189 L 220 94.5 L 284 31.5 L 346 0 L 441 0 L 504 31.5 L 567 94.5" style="stroke-width:0.3833in" transform="matrix(0.0173333 0 0 -0.0173333 204.204 0)"/></g><g transform="translate(369.316, 109.835)"><path d="M 189 662 L 220 630 L 252 662 L 220 693 L 189 662 M 220 441 L 220 0" style="stroke-width:0.3833in" transform="scale(0.0173333, -0.0173333)"/><path d="M 536 346 L 504 410 L 410 441 L 315 441 L 220 410 L 189 346 L 220 284 L 284 252 L 441 220 L 504 189 L 536 126 L 536 94.5 L 504 31.5 L 410 0 L 315 0 L 220 31.5 L 189 94.5" style="stroke-width:0.3833in" transform="matrix(0.0173333 0 0 -0.0173333 4.36799 0)"/><path d="M 220 662 L 220 0 M 220 315 L 315 410 L 378 441 L 472 441 L 536 410 L 567 315 L 567 0" style="stroke-width:0.3833in" transform="matrix(0.0173333 0 0 -0.0173333 20.2106 0)"/><path d="M 346 441 L 284 410 L 220 346 L 189 252 L 189 189 L 220 94.5 L 284 31.5 L 346 0 L 441 0 L 504 31.5 L 567 94.5 L 598 189 L 598 252 L 567 346 L 504 410 L 441 441 L 346 441" style="stroke-width:0.3833in" transform="matrix(0.0173333 0 0 -0.0173333 30.5759 0)"/><path d="M 220 441 L 220 -220 M 220 346 L 284 410 L 346 441 L 441 441 L 504 410 L 567 346 L 598 252 L 598 189 L 567 94.5 L 504 31.5 L 441 0 L 346 0 L 284 31.5 L 220 94.5" style="stroke-width:0.3833in" transform="matrix(0.0173333 0 0 -0.0173333 40.9413 0)"/><path d="M 189 252 L 567 252 L 567 315 L 536 378 L 504 410 L 441 441 L 346 441 L 284 410 L 220 346 L 189 252 L 189 189 L 220 94.5 L 284 31.5 L 346 0 L 441 0 L 504 31.5 L 567 94.5" style="stroke-width:0.3833in" transform="matrix(0.0173333 0 0 -0.0173333 51.3066 0)"/><path d="M 410 662 L 346 662 L 284 630 L 252 536 L 252 0 M 158 441 L 378 441" style="stroke-width:0.3833in" transform="matrix(0.0173333 0 0 -0.0173333 67.6865 0)"/><path d="M 346 441 L 284 410 L 220 346 L 189 252 L 189 189 L 220 94.5 L 284 31.5 L 346 0 L 441 0 L 504 31.5 L 567 94.5 L 598 189 L 598 252 L 567 346 L 504 410 L 441 441 L 346 441" style="stroke-width:0.3833in" transform="matrix(0.0173333 0 0 -0.0173333 74.2385 0)"/><path d="M 220 441 L 220 0 M 220 252 L 252 346 L 315 410 L 378 441 L 472 441" style="stroke-width:0.3833in" transform="matrix(0.0173333 0 0 -0.0173333 84.6038 0)"/><path d="M 567 441 L 567 0 M 567 346 L 504 410 L 441 441 L 346 441 L 284 410 L 220 346 L 189 252 L 189 189 L 220 94.5 L 284 31.5 L 346 0 L 441 0 L 504 31.5 L 567 94.5" style="stroke-width:0.3833in" transform="matrix(0.0173333 0 0 -0.0173333 98.2625 0)"/><path d="M 252 662 L 252 126 L 284 31.5 L 346 0 L 410 0 M 158 441 L 378 441" style="stroke-width:0.3833in" transform="matrix(0.0173333 0 0 -0.0173333 115.18 0)"/><path d="M 220 441 L 220 0 M 220 252 L 252 346 L 315 410 L 378 441 L 472 441" style="stroke-width:0.3833in" transform="matrix(0.0173333 0 0 -0.0173333 121.732 0)"/><path d="M 189 252 L 567 252 L 567 315 L 536 378 L 504 410 L 441 441 L 346 441 L 284 410 L 220 346 L 189 252 L 189 189 L 220 94.5 L 284 31.5 L 346 0 L 441 0 L 504 31.5 L 567 94.5" style="stroke-width:0.3833in" transform="matrix(0.0173333 0 0 -0.0173333 128.838 0)"/><path d="M 567 441 L 567 0 M 567 346 L 504 410 L 441 441 L 346 441 L 284 410 L 220 346 L 189 252 L 189 189 L 220 94.5 L 284 31.5 L 346 0 L 441 0 L 504 31.5 L 567 94.5" style="stroke-width:0.3833in" transform="matrix(0.0173333 0 0 -0.0173333 138.666 0)"/><path d="M 536 346 L 504 410 L 410 441 L 315 441 L 220 410 L 189 346 L 220 284 L 284 252 L 441 220 L 504 189 L 536 126 L 536 94.5 L 504 31.5 L 410 0 L 315 0 L 220 31.5 L 189 94.5" style="stroke-width:0.3833in" transform="matrix(0.0173333 0 0 -0.0173333 149.032 0)"/><path d="M 220 441 L 220 126 L 252 31.5 L 315 0 L 410 0 L 472 31.5 L 567 126 M 567 441 L 567 0" style="stroke-width:0.3833in" transform="matrix(0.0173333 0 0 -0.0173333 158.322 0)"/><path d="M 220 441 L 220 0 M 220 252 L 252 346 L 315 410 L 378 441 L 472 441" style="stroke-width:0.3833in" transform="matrix(0.0173333 0 0 -0.0173333 168.688 0)"/><path d="M 189 252 L 567 252 L 567 315 L 536 378 L 504 410 L 441 441 L 346 441 L 284 410 L 220 346 L 189 252 L 189 189 L 220 94.5 L 284 31.5 L 346 0 L 441 0 L 504 31.5 L 567 94.5" style="stroke-width:0.3833in" transform="matrix(0.0173333 0 0 -0.0173333 175.794 0)"/><path d="M 220 158 L 189 126 L 220 94.5 L 252 126 L 220 158" style="stroke-width:0.3833in" transform="matrix(0.0173333 0 0 -0.0173333 185.622 0)"/></g><g transform="translate(467.751, 131.501)"/><g transform="translate(442.648, 153.168)"><path d="M 220 284 L 788 284" style="stroke-width:0.3833in" transform="scale(0.0173333, -0.0173333)"/><path d="M 220 662 L 220 0 M 220 662 L 504 662 L 598 630 L 630 598 L 662 536 L 662 472 L 630 410 L 598 378 L 504 346 L 220 346 M 441 346 L 662 0" style="stroke-width:0.3833in" transform="matrix(0.0173333 0 0 -0.0173333 14.196 0)"/><path d="M 220 441 L 220 126 L 252 31.5 L 315 0 L 410 0 L 472 31.5 L 567 126 M 567 441 L 567 0" style="stroke-width:0.3833in" transform="matrix(0.0173333 0 0 -0.0173333 25.6706 0)"/><path d="M 220 441 L 220 0 M 220 315 L 315 410 L 378 441 L 472 441 L 536 410 L 567 315 L 567 0 M 567 315 L 662 410 L 724 441 L 819 441 L 882 410 L 914 315 L 914 0" style="stroke-width:0.3833in" transform="matrix(0.0173333 0 0 -0.0173333 36.0359 0)"/><path d="M 189 662 L 220 630 L 252 662 L 220 693 L 189 662 M 220 441 L 220 0" style="stroke-width:0.3833in" transform="matrix(0.0173333 0 0 -0.0173333 52.4159 0)"/></g><g transform="translate(467.751, 174.834)"/><g transform="translate(467.751, 196.501)"/><g transform="translate(467.751, 218.168)"/></g><g inkscape:label="Hershey Text" style="fill:none;stroke:#000000;stroke-linecap:round;stroke-linejoin:round" transform="matrix(0.23004 0 0 0.23004 0.298475 224.687)"><g transform="translate(765.493, 72.166)"><path d="M 220 662 L 220 0 M 220 662 L 630 662 M 220 346 L 472 346" style="stroke-width:0.2865in" transform="scale(0.0266667, -0.0266667)"/><path d="M 567 441 L 567 0 M 567 346 L 504 410 L 441 441 L 346 441 L 284 410 L 220 346 L 189 252 L 189 189 L 220 94.5 L 284 31.5 L 346 0 L 441 0 L 504 31.5 L 567 94.5" style="stroke-width:0.2865in" transform="matrix(0.0266667 0 0 -0.0266667 15.12 0)"/><path d="M 189 662 L 220 630 L 252 662 L 220 693 L 189 662 M 220 441 L 220 0" style="stroke-width:0.2865in" transform="matrix(0.0266667 0 0 -0.0266667 31.0667 0)"/><path d="M 220 441 L 220 0 M 220 252 L 252 346 L 315 410 L 378 441 L 472 441" style="stroke-width:0.2865in" transform="matrix(0.0266667 0 0 -0.0266667 37.7867 0)"/><path d="M 410 662 L 346 662 L 284 630 L 252 536 L 252 0 M 158 441 L 378 441" style="stroke-width:0.2865in" transform="matrix(0.0266667 0 0 -0.0266667 48.7201 0)"/><path d="M 189 662 L 220 630 L 252 662 L 220 693 L 189 662 M 220 441 L 220 0" style="stroke-width:0.2865in" transform="matrix(0.0266667 0 0 -0.0266667 58.8001 0)"/><path d="M 189 252 L 567 252 L 567 315 L 536 378 L 504 410 L 441 441 L 346 441 L 284 410 L 220 346 L 189 252 L 189 189 L 220 94.5 L 284 31.5 L 346 0 L 441 0 L 504 31.5 L 567 94.5" style="stroke-width:0.2865in" transform="matrix(0.0266667 0 0 -0.0266667 65.5201 0)"/><path d="M 220 662 L 220 0" style="stroke-width:0.2865in" transform="matrix(0.0266667 0 0 -0.0266667 80.6401 0)"/><path d="M 567 662 L 567 0 M 567 346 L 504 410 L 441 441 L 346 441 L 284 410 L 220 346 L 189 252 L 189 189 L 220 94.5 L 284 31.5 L 346 0 L 441 0 L 504 31.5 L 567 94.5" style="stroke-width:0.2865in" transform="matrix(0.0266667 0 0 -0.0266667 87.3601 0)"/><path d="M 220 378 L 189 346 L 220 315 L 252 346 L 220 378 M 220 158 L 189 126 L 220 94.5 L 252 126 L 220 158" style="stroke-width:0.2865in" transform="matrix(0.0266667 0 0 -0.0266667 103.307 0)"/><path d="M 598 567 L 567 630 L 472 662 L 410 662 L 315 630 L 252 536 L 220 378 L 220 220 L 252 94.5 L 315 31.5 L 410 0 L 441 0 L 536 31.5 L 598 94.5 L 630 189 L 630 220 L 598 315 L 536 378 L 441 410 L 410 410 L 315 378 L 252 315 L 220 220" style="stroke-width:0.2865in" transform="matrix(0.0266667 0 0 -0.0266667 120.107 0)"/><path d="M 504 662 L 189 220 L 662 220 M 504 662 L 504 0" style="stroke-width:0.2865in" transform="matrix(0.0266667 0 0 -0.0266667 136.907 0)"/></g></g><g inkscape:label="Hershey Text" style="fill:none;stroke:#000000;stroke-linecap:round;stroke-linejoin:round" transform="matrix(0.23004 0 0 0.23004 0.51397 218.515)"><g transform="translate(791.678, 72.166)"><path d="M 126 662 L 378 346 L 378 0 M 630 662 L 378 346" style="stroke-width:0.2865in" transform="scale(0.0266667, -0.0266667)"/><path d="M 567 441 L 567 0 M 567 346 L 504 410 L 441 441 L 346 441 L 284 410 L 220 346 L 189 252 L 189 189 L 220 94.5 L 284 31.5 L 346 0 L 441 0 L 504 31.5 L 567 94.5" style="stroke-width:0.2865in" transform="matrix(0.0266667 0 0 -0.0266667 15.12 0)"/><path d="M 220 662 L 220 0" style="stroke-width:0.2865in" transform="matrix(0.0266667 0 0 -0.0266667 31.0667 0)"/><path d="M 189 252 L 567 252 L 567 315 L 536 378 L 504 410 L 441 441 L 346 441 L 284 410 L 220 346 L 189 252 L 189 189 L 220 94.5 L 284 31.5 L 346 0 L 441 0 L 504 31.5 L 567 94.5" style="stroke-width:0.2865in" transform="matrix(0.0266667 0 0 -0.0266667 37.7867 0)"/><path d="M 220 378 L 189 346 L 220 315 L 252 346 L 220 378 M 220 158 L 189 126 L 220 94.5 L 252 126 L 220 158" style="stroke-width:0.2865in" transform="matrix(0.0266667 0 0 -0.0266667 52.9067 0)"/><path d="M 630 662 L 315 0 M 189 662 L 630 662" style="stroke-width:0.2865in" transform="matrix(0.0266667 0 0 -0.0266667 69.7068 0)"/><path d="M 630 662 L 315 0 M 189 662 L 630 662" style="stroke-width:0.2865in" transform="matrix(0.0266667 0 0 -0.0266667 86.5068 0)"/></g></g><g inkscape:label="Hershey Text" style="fill:none;stroke:#000000;stroke-linecap:round;stroke-linejoin:round" transform="matrix(0.23004 0 0 0.23004 0.831335 205.696)"><g transform="translate(770.409, 72.166)"><path d="M 220 662 L 220 0 M 220 662 L 472 0 M 724 662 L 472 0 M 724 662 L 724 0" style="stroke-width:0.2865in" transform="scale(0.0266667, -0.0266667)"/><path d="M 567 441 L 567 0 M 567 346 L 504 410 L 441 441 L 346 441 L 284 410 L 220 346 L 189 252 L 189 189 L 220 94.5 L 284 31.5 L 346 0 L 441 0 L 504 31.5 L 567 94.5" style="stroke-width:0.2865in" transform="matrix(0.0266667 0 0 -0.0266667 20.16 0)"/><path d="M 567 441 L 567 -63 L 536 -158 L 504 -189 L 441 -220 L 346 -220 L 284 -189 M 567 346 L 504 410 L 441 441 L 346 441 L 284 410 L 220 346 L 189 252 L 189 189 L 220 94.5 L 284 31.5 L 346 0 L 441 0 L 504 31.5 L 567 94.5" style="stroke-width:0.2865in" transform="matrix(0.0266667 0 0 -0.0266667 36.1067 0)"/><path d="M 189 662 L 220 630 L 252 662 L 220 693 L 189 662 M 220 441 L 220 0" style="stroke-width:0.2865in" transform="matrix(0.0266667 0 0 -0.0266667 52.0534 0)"/><path d="M 567 346 L 504 410 L 441 441 L 346 441 L 284 410 L 220 346 L 189 252 L 189 189 L 220 94.5 L 284 31.5 L 346 0 L 441 0 L 504 31.5 L 567 94.5" style="stroke-width:0.2865in" transform="matrix(0.0266667 0 0 -0.0266667 58.7734 0)"/><path d="M 220 378 L 189 346 L 220 315 L 252 346 L 220 378 M 220 158 L 189 126 L 220 94.5 L 252 126 L 220 158" style="stroke-width:0.2865in" transform="matrix(0.0266667 0 0 -0.0266667 73.8934 0)"/><path d="M 284 536 L 346 567 L 441 662 L 441 0" style="stroke-width:0.2865in" transform="matrix(0.0266667 0 0 -0.0266667 90.6934 0)"/><path d="M 284 536 L 346 567 L 441 662 L 441 0" style="stroke-width:0.2865in" transform="matrix(0.0266667 0 0 -0.0266667 107.493 0)"/><path d="M 630 662 L 315 0 M 189 662 L 630 662" style="stroke-width:0.2865in" transform="matrix(0.0266667 0 0 -0.0266667 124.293 0)"/></g></g><g inkscape:label="Hershey Text" style="fill:none;stroke:#000000;stroke-linecap:round;stroke-linejoin:round" transform="matrix(0.23004 0 0 0.23004 1.04683 199.524)"><g transform="translate(765.155, 72.166)"><path d="M 662 504 L 630 567 L 567 630 L 504 662 L 378 662 L 315 630 L 252 567 L 220 504 L 189 410 L 189 252 L 220 158 L 252 94.5 L 315 31.5 L 378 0 L 504 0 L 567 31.5 L 630 94.5 L 662 158" style="stroke-width:0.2865in" transform="scale(0.0266667, -0.0266667)"/><path d="M 189 252 L 567 252 L 567 315 L 536 378 L 504 410 L 441 441 L 346 441 L 284 410 L 220 346 L 189 252 L 189 189 L 220 94.5 L 284 31.5 L 346 0 L 441 0 L 504 31.5 L 567 94.5" style="stroke-width:0.2865in" transform="matrix(0.0266667 0 0 -0.0266667 17.6534 0)"/><path d="M 220 662 L 220 0" style="stroke-width:0.2865in" transform="matrix(0.0266667 0 0 -0.0266667 32.7734 0)"/><path d="M 252 662 L 252 126 L 284 31.5 L 346 0 L 410 0 M 158 441 L 378 441" style="stroke-width:0.2865in" transform="matrix(0.0266667 0 0 -0.0266667 39.4934 0)"/><path d="M 189 662 L 220 630 L 252 662 L 220 693 L 189 662 M 220 441 L 220 0" style="stroke-width:0.2865in" transform="matrix(0.0266667 0 0 -0.0266667 49.5734 0)"/><path d="M 567 346 L 504 410 L 441 441 L 346 441 L 284 410 L 220 346 L 189 252 L 189 189 L 220 94.5 L 284 31.5 L 346 0 L 441 0 L 504 31.5 L 567 94.5" style="stroke-width:0.2865in" transform="matrix(0.0266667 0 0 -0.0266667 56.2934 0)"/><path d="M 536 346 L 504 410 L 410 441 L 315 441 L 220 410 L 189 346 L 220 284 L 284 252 L 441 220 L 504 189 L 536 126 L 536 94.5 L 504 31.5 L 410 0 L 315 0 L 220 31.5 L 189 94.5" style="stroke-width:0.2865in" transform="matrix(0.0266667 0 0 -0.0266667 71.4134 0)"/><path d="M 220 378 L 189 346 L 220 315 L 252 346 L 220 378 M 220 158 L 189 126 L 220 94.5 L 252 126 L 220 158" style="stroke-width:0.2865in" transform="matrix(0.0266667 0 0 -0.0266667 85.7068 0)"/><path d="M 284 536 L 346 567 L 441 662 L 441 0" style="stroke-width:0.2865in" transform="matrix(0.0266667 0 0 -0.0266667 102.507 0)"/><path d="M 378 662 L 284 630 L 220 536 L 189 378 L 189 284 L 220 126 L 284 31.5 L 378 0 L 441 0 L 536 31.5 L 598 126 L 630 284 L 630 378 L 598 536 L 536 630 L 441 662 L 378 662" style="stroke-width:0.2865in" transform="matrix(0.0266667 0 0 -0.0266667 119.307 0)"/><path d="M 598 441 L 567 346 L 504 284 L 410 252 L 378 252 L 284 284 L 220 346 L 189 441 L 189 472 L 220 567 L 284 630 L 378 662 L 410 662 L 504 630 L 567 567 L 598 441 L 598 284 L 567 126 L 504 31.5 L 410 0 L 346 0 L 252 31.5 L 220 94.5" style="stroke-width:0.2865in" transform="matrix(0.0266667 0 0 -0.0266667 136.107 0)"/></g></g><g inkscape:label="Hershey Text" style="fill:none;stroke:#000000;stroke-linecap:round;stroke-linejoin:round" transform="matrix(0.264583 0 0 0.264583 0 162)"><g transform="translate(687.315, 169.496)"><path d="M 630 567 L 567 630 L 472 662 L 346 662 L 252 630 L 189 567 L 189 504 L 220 441 L 252 410 L 315 378 L 504 315 L 567 284 L 598 252 L 630 189 L 630 94.5 L 567 31.5 L 472 0 L 346 0 L 252 31.5 L 189 94.5" style="stroke-width:0.2265in" transform="scale(0.0293333, -0.0293333)"/><path d="M 220 441 L 220 -220 M 220 346 L 284 410 L 346 441 L 441 441 L 504 410 L 567 346 L 598 252 L 598 189 L 567 94.5 L 504 31.5 L 441 0 L 346 0 L 284 31.5 L 220 94.5" style="stroke-width:0.2265in" transform="matrix(0.0293333 0 0 -0.0293333 18.48 0)"/><path d="M 346 441 L 284 410 L 220 346 L 189 252 L 189 189 L 220 94.5 L 284 31.5 L 346 0 L 441 0 L 504 31.5 L 567 94.5 L 598 189 L 598 252 L 567 346 L 504 410 L 441 441 L 346 441" style="stroke-width:0.2265in" transform="matrix(0.0293333 0 0 -0.0293333 36.0213 0)"/><path d="M 220 441 L 220 0 M 220 252 L 252 346 L 315 410 L 378 441 L 472 441" style="stroke-width:0.2265in" transform="matrix(0.0293333 0 0 -0.0293333 53.5626 0)"/><path d="M 252 662 L 252 126 L 284 31.5 L 346 0 L 410 0 M 158 441 L 378 441" style="stroke-width:0.2265in" transform="matrix(0.0293333 0 0 -0.0293333 65.5893 0)"/><path d="M 536 346 L 504 410 L 410 441 L 315 441 L 220 410 L 189 346 L 220 284 L 284 252 L 441 220 L 504 189 L 536 126 L 536 94.5 L 504 31.5 L 410 0 L 315 0 L 220 31.5 L 189 94.5" style="stroke-width:0.2265in" transform="matrix(0.0293333 0 0 -0.0293333 76.6772 0)"/></g></g><g inkscape:label="Hershey Text" style="fill:none;stroke:#000000;stroke-linecap:round;stroke-linejoin:round" transform="matrix(0.264583 0 0 0.264583 -8.04481 149.278)"><g transform="translate(190.087, 136.252)"><path d="M 284 536 L 346 567 L 441 662 L 441 0" style="stroke-width:0.3833in" transform="scale(0.0173333, -0.0173333)"/><path d="M 378 662 L 284 630 L 220 536 L 189 378 L 189 284 L 220 126 L 284 31.5 L 378 0 L 441 0 L 536 31.5 L 598 126 L 630 284 L 630 378 L 598 536 L 536 630 L 441 662 L 378 662" style="stroke-width:0.3833in" transform="matrix(0.0173333 0 0 -0.0173333 10.92 0)"/><path d="M 220 378 L 189 346 L 220 315 L 252 346 L 220 378 M 220 158 L 189 126 L 220 94.5 L 252 126 L 220 158" style="stroke-width:0.3833in" transform="matrix(0.0173333 0 0 -0.0173333 21.84 0)"/><path d="M 378 662 L 284 630 L 220 536 L 189 378 L 189 284 L 220 126 L 284 31.5 L 378 0 L 441 0 L 536 31.5 L 598 126 L 630 284 L 630 378 L 598 536 L 536 630 L 441 662 L 378 662" style="stroke-width:0.3833in" transform="matrix(0.0173333 0 0 -0.0173333 26.2079 0)"/><path d="M 378 662 L 284 630 L 220 536 L 189 378 L 189 284 L 220 126 L 284 31.5 L 378 0 L 441 0 L 536 31.5 L 598 126 L 630 284 L 630 378 L 598 536 L 536 630 L 441 662 L 378 662" style="stroke-width:0.3833in" transform="matrix(0.0173333 0 0 -0.0173333 37.1279 0)"/><path d="M 378 662 L 126 0 M 378 662 L 630 0 M 220 220 L 536 220" style="stroke-width:0.3833in" transform="matrix(0.0173333 0 0 -0.0173333 54.5999 0)"/><path d="M 220 662 L 220 0 M 220 662 L 472 0 M 724 662 L 472 0 M 724 662 L 724 0" style="stroke-width:0.3833in" transform="matrix(0.0173333 0 0 -0.0173333 64.4279 0)"/></g><g transform="translate(189.968, 157.919)"><path d="M 220 662 L 220 0 M 220 662 L 504 662 L 598 630 L 630 598 L 662 536 L 662 472 L 630 410 L 598 378 L 504 346 M 220 346 L 504 346 L 598 315 L 630 284 L 662 220 L 662 126 L 630 63 L 598 31.5 L 504 0 L 220 0" style="stroke-width:0.3833in" transform="scale(0.0173333, -0.0173333)"/><path d="M 220 441 L 220 0 M 220 252 L 252 346 L 315 410 L 378 441 L 472 441" style="stroke-width:0.3833in" transform="matrix(0.0173333 0 0 -0.0173333 11.4746 0)"/><path d="M 189 252 L 567 252 L 567 315 L 536 378 L 504 410 L 441 441 L 346 441 L 284 410 L 220 346 L 189 252 L 189 189 L 220 94.5 L 284 31.5 L 346 0 L 441 0 L 504 31.5 L 567 94.5" style="stroke-width:0.3833in" transform="matrix(0.0173333 0 0 -0.0173333 18.5813 0)"/><path d="M 567 441 L 567 0 M 567 346 L 504 410 L 441 441 L 346 441 L 284 410 L 220 346 L 189 252 L 189 189 L 220 94.5 L 284 31.5 L 346 0 L 441 0 L 504 31.5 L 567 94.5" style="stroke-width:0.3833in" transform="matrix(0.0173333 0 0 -0.0173333 28.4093 0)"/><path d="M 220 662 L 220 0 M 536 441 L 220 126 M 346 252 L 567 0" style="stroke-width:0.3833in" transform="matrix(0.0173333 0 0 -0.0173333 38.7746 0)"/><path d="M 410 662 L 346 662 L 284 630 L 252 536 L 252 0 M 158 441 L 378 441" style="stroke-width:0.3833in" transform="matrix(0.0173333 0 0 -0.0173333 48.0652 0)"/><path d="M 567 441 L 567 0 M 567 346 L 504 410 L 441 441 L 346 441 L 284 410 L 220 346 L 189 252 L 189 189 L 220 94.5 L 284 31.5 L 346 0 L 441 0 L 504 31.5 L 567 94.5" style="stroke-width:0.3833in" transform="matrix(0.0173333 0 0 -0.0173333 54.6172 0)"/><path d="M 536 346 L 504 410 L 410 441 L 315 441 L 220 410 L 189 346 L 220 284 L 284 252 L 441 220 L 504 189 L 536 126 L 536 94.5 L 504 31.5 L 410 0 L 315 0 L 220 31.5 L 189 94.5" style="stroke-width:0.3833in" transform="matrix(0.0173333 0 0 -0.0173333 64.9825 0)"/><path d="M 252 662 L 252 126 L 284 31.5 L 346 0 L 410 0 M 158 441 L 378 441" style="stroke-width:0.3833in" transform="matrix(0.0173333 0 0 -0.0173333 74.2732 0)"/></g><g transform="translate(224.969, 179.585)"><path d="M 220 284 L 788 284" style="stroke-width:0.3833in" transform="scale(0.0173333, -0.0173333)"/><path d="M 220 284 L 788 284" style="stroke-width:0.3833in" transform="matrix(0.0173333 0 0 -0.0173333 14.196 0)"/></g><g transform="translate(190.789, 201.252)"><path d="M 378 662 L 284 630 L 220 536 L 189 378 L 189 284 L 220 126 L 284 31.5 L 378 0 L 441 0 L 536 31.5 L 598 126 L 630 284 L 630 378 L 598 536 L 536 630 L 441 662 L 378 662" style="stroke-width:0.3833in" transform="scale(0.0173333, -0.0173333)"/><path d="M 284 536 L 346 567 L 441 662 L 441 0" style="stroke-width:0.3833in" transform="matrix(0.0173333 0 0 -0.0173333 10.92 0)"/><path d="M 220 378 L 189 346 L 220 315 L 252 346 L 220 378 M 220 158 L 189 126 L 220 94.5 L 252 126 L 220 158" style="stroke-width:0.3833in" transform="matrix(0.0173333 0 0 -0.0173333 21.84 0)"/><path d="M 378 662 L 284 630 L 220 536 L 189 378 L 189 284 L 220 126 L 284 31.5 L 378 0 L 441 0 L 536 31.5 L 598 126 L 630 284 L 630 378 L 598 536 L 536 630 L 441 662 L 378 662" style="stroke-width:0.3833in" transform="matrix(0.0173333 0 0 -0.0173333 26.2079 0)"/><path d="M 378 662 L 284 630 L 220 536 L 189 378 L 189 284 L 220 126 L 284 31.5 L 378 0 L 441 0 L 536 31.5 L 598 126 L 630 284 L 630 378 L 598 536 L 536 630 L 441 662 L 378 662" style="stroke-width:0.3833in" transform="matrix(0.0173333 0 0 -0.0173333 37.1279 0)"/><path d="M 220 662 L 220 0 M 220 662 L 504 662 L 598 630 L 630 598 L 662 536 L 662 441 L 630 378 L 598 346 L 504 315 L 220 315" style="stroke-width:0.3833in" transform="matrix(0.0173333 0 0 -0.0173333 54.5999 0)"/><path d="M 220 662 L 220 0 M 220 662 L 472 0 M 724 662 L 472 0 M 724 662 L 724 0" style="stroke-width:0.3833in" transform="matrix(0.0173333 0 0 -0.0173333 66.0745 0)"/></g><g transform="translate(152.614, 222.918)"><path d="M 220 662 L 220 0 M 220 662 L 472 0 M 724 662 L 472 0 M 724 662 L 724 0" style="stroke-width:0.3833in" transform="scale(0.0173333, -0.0173333)"/><path d="M 189 252 L 567 252 L 567 315 L 536 378 L 504 410 L 441 441 L 346 441 L 284 410 L 220 346 L 189 252 L 189 189 L 220 94.5 L 284 31.5 L 346 0 L 441 0 L 504 31.5 L 567 94.5" style="stroke-width:0.3833in" transform="matrix(0.0173333 0 0 -0.0173333 13.104 0)"/><path d="M 189 252 L 567 252 L 567 315 L 536 378 L 504 410 L 441 441 L 346 441 L 284 410 L 220 346 L 189 252 L 189 189 L 220 94.5 L 284 31.5 L 346 0 L 441 0 L 504 31.5 L 567 94.5" style="stroke-width:0.3833in" transform="matrix(0.0173333 0 0 -0.0173333 22.932 0)"/><path d="M 252 662 L 252 126 L 284 31.5 L 346 0 L 410 0 M 158 441 L 378 441" style="stroke-width:0.3833in" transform="matrix(0.0173333 0 0 -0.0173333 32.7599 0)"/><path d="M 189 662 L 220 630 L 252 662 L 220 693 L 189 662 M 220 441 L 220 0" style="stroke-width:0.3833in" transform="matrix(0.0173333 0 0 -0.0173333 39.3119 0)"/><path d="M 220 441 L 220 0 M 220 315 L 315 410 L 378 441 L 472 441 L 536 410 L 567 315 L 567 0" style="stroke-width:0.3833in" transform="matrix(0.0173333 0 0 -0.0173333 43.6799 0)"/><path d="M 567 441 L 567 -63 L 536 -158 L 504 -189 L 441 -220 L 346 -220 L 284 -189 M 567 346 L 504 410 L 441 441 L 346 441 L 284 410 L 220 346 L 189 252 L 189 189 L 220 94.5 L 284 31.5 L 346 0 L 441 0 L 504 31.5 L 567 94.5" style="stroke-width:0.3833in" transform="matrix(0.0173333 0 0 -0.0173333 54.0452 0)"/><path d="M 189 441 L 315 0 M 441 441 L 315 0 M 441 441 L 567 0 M 693 441 L 567 0" style="stroke-width:0.3833in" transform="matrix(0.0173333 0 0 -0.0173333 70.9625 0)"/><path d="M 189 662 L 220 630 L 252 662 L 220 693 L 189 662 M 220 441 L 220 0" style="stroke-width:0.3833in" transform="matrix(0.0173333 0 0 -0.0173333 82.9745 0)"/><path d="M 252 662 L 252 126 L 284 31.5 L 346 0 L 410 0 M 158 441 L 378 441" style="stroke-width:0.3833in" transform="matrix(0.0173333 0 0 -0.0173333 87.3425 0)"/><path d="M 220 662 L 220 0 M 220 315 L 315 410 L 378 441 L 472 441 L 536 410 L 567 315 L 567 0" style="stroke-width:0.3833in" transform="matrix(0.0173333 0 0 -0.0173333 93.8945 0)"/><path d="M 536 346 L 504 410 L 410 441 L 315 441 L 220 410 L 189 346 L 220 284 L 284 252 L 441 220 L 504 189 L 536 126 L 536 94.5 L 504 31.5 L 410 0 L 315 0 L 220 31.5 L 189 94.5" style="stroke-width:0.3833in" transform="matrix(0.0173333 0 0 -0.0173333 110.812 0)"/><path d="M 567 441 L 567 0 M 567 346 L 504 410 L 441 441 L 346 441 L 284 410 L 220 346 L 189 252 L 189 189 L 220 94.5 L 284 31.5 L 346 0 L 441 0 L 504 31.5 L 567 94.5" style="stroke-width:0.3833in" transform="matrix(0.0173333 0 0 -0.0173333 120.102 0)"/><path d="M 220 662 L 220 0" style="stroke-width:0.3833in" transform="matrix(0.0173333 0 0 -0.0173333 130.468 0)"/><path d="M 220 662 L 220 0" style="stroke-width:0.3833in" transform="matrix(0.0173333 0 0 -0.0173333 134.836 0)"/><path d="M 158 441 L 346 0 M 536 441 L 346 0 L 284 -126 L 220 -189 L 158 -220 L 126 -220" style="stroke-width:0.3833in" transform="matrix(0.0173333 0 0 -0.0173333 139.204 0)"/></g><g transform="translate(224.969, 244.585)"><path d="M 220 284 L 788 284" style="stroke-width:0.3833in" transform="scale(0.0173333, -0.0173333)"/><path d="M 220 284 L 788 284" style="stroke-width:0.3833in" transform="matrix(0.0173333 0 0 -0.0173333 14.196 0)"/></g><g transform="translate(190.789, 266.252)"><path d="M 378 662 L 284 630 L 220 536 L 189 378 L 189 284 L 220 126 L 284 31.5 L 378 0 L 441 0 L 536 31.5 L 598 126 L 630 284 L 630 378 L 598 536 L 536 630 L 441 662 L 378 662" style="stroke-width:0.3833in" transform="scale(0.0173333, -0.0173333)"/><path d="M 220 504 L 220 536 L 252 598 L 284 630 L 346 662 L 472 662 L 536 630 L 567 598 L 598 536 L 598 472 L 567 410 L 504 315 L 189 0 L 630 0" style="stroke-width:0.3833in" transform="matrix(0.0173333 0 0 -0.0173333 10.92 0)"/><path d="M 220 378 L 189 346 L 220 315 L 252 346 L 220 378 M 220 158 L 189 126 L 220 94.5 L 252 126 L 220 158" style="stroke-width:0.3833in" transform="matrix(0.0173333 0 0 -0.0173333 21.84 0)"/><path d="M 378 662 L 284 630 L 220 536 L 189 378 L 189 284 L 220 126 L 284 31.5 L 378 0 L 441 0 L 536 31.5 L 598 126 L 630 284 L 630 378 L 598 536 L 536 630 L 441 662 L 378 662" style="stroke-width:0.3833in" transform="matrix(0.0173333 0 0 -0.0173333 26.2079 0)"/><path d="M 378 662 L 284 630 L 220 536 L 189 378 L 189 284 L 220 126 L 284 31.5 L 378 0 L 441 0 L 536 31.5 L 598 126 L 630 284 L 630 378 L 598 536 L 536 630 L 441 662 L 378 662" style="stroke-width:0.3833in" transform="matrix(0.0173333 0 0 -0.0173333 37.1279 0)"/><path d="M 220 662 L 220 0 M 220 662 L 504 662 L 598 630 L 630 598 L 662 536 L 662 441 L 630 378 L 598 346 L 504 315 L 220 315" style="stroke-width:0.3833in" transform="matrix(0.0173333 0 0 -0.0173333 54.5999 0)"/><path d="M 220 662 L 220 0 M 220 662 L 472 0 M 724 662 L 472 0 M 724 662 L 724 0" style="stroke-width:0.3833in" transform="matrix(0.0173333 0 0 -0.0173333 66.0745 0)"/></g><g transform="translate(195.77, 287.918)"><path d="M 220 441 L 220 0 M 220 252 L 252 346 L 315 410 L 378 441 L 472 441" style="stroke-width:0.3833in" transform="scale(0.0173333, -0.0173333)"/><path d="M 346 441 L 284 410 L 220 346 L 189 252 L 189 189 L 220 94.5 L 284 31.5 L 346 0 L 441 0 L 504 31.5 L 567 94.5 L 598 189 L 598 252 L 567 346 L 504 410 L 441 441 L 346 441" style="stroke-width:0.3833in" transform="matrix(0.0173333 0 0 -0.0173333 7.10665 0)"/><path d="M 220 662 L 220 0 M 220 346 L 284 410 L 346 441 L 441 441 L 504 410 L 567 346 L 598 252 L 598 189 L 567 94.5 L 504 31.5 L 441 0 L 346 0 L 284 31.5 L 220 94.5" style="stroke-width:0.3833in" transform="matrix(0.0173333 0 0 -0.0173333 17.472 0)"/><path d="M 346 441 L 284 410 L 220 346 L 189 252 L 189 189 L 220 94.5 L 284 31.5 L 346 0 L 441 0 L 504 31.5 L 567 94.5 L 598 189 L 598 252 L 567 346 L 504 410 L 441 441 L 346 441" style="stroke-width:0.3833in" transform="matrix(0.0173333 0 0 -0.0173333 27.8373 0)"/><path d="M 220 662 L 220 0" style="stroke-width:0.3833in" transform="matrix(0.0173333 0 0 -0.0173333 44.7546 0)"/><path d="M 567 441 L 567 0 M 567 346 L 504 410 L 441 441 L 346 441 L 284 410 L 220 346 L 189 252 L 189 189 L 220 94.5 L 284 31.5 L 346 0 L 441 0 L 504 31.5 L 567 94.5" style="stroke-width:0.3833in" transform="matrix(0.0173333 0 0 -0.0173333 49.1226 0)"/><path d="M 220 662 L 220 0 M 220 346 L 284 410 L 346 441 L 441 441 L 504 410 L 567 346 L 598 252 L 598 189 L 567 94.5 L 504 31.5 L 441 0 L 346 0 L 284 31.5 L 220 94.5" style="stroke-width:0.3833in" transform="matrix(0.0173333 0 0 -0.0173333 59.4879 0)"/></g><g transform="translate(224.969, 309.585)"><path d="M 220 284 L 788 284" style="stroke-width:0.3833in" transform="scale(0.0173333, -0.0173333)"/><path d="M 220 284 L 788 284" style="stroke-width:0.3833in" transform="matrix(0.0173333 0 0 -0.0173333 14.196 0)"/></g><g transform="translate(190.789, 331.252)"><path d="M 378 662 L 284 630 L 220 536 L 189 378 L 189 284 L 220 126 L 284 31.5 L 378 0 L 441 0 L 536 31.5 L 598 126 L 630 284 L 630 378 L 598 536 L 536 630 L 441 662 L 378 662" style="stroke-width:0.3833in" transform="scale(0.0173333, -0.0173333)"/><path d="M 598 567 L 567 630 L 472 662 L 410 662 L 315 630 L 252 536 L 220 378 L 220 220 L 252 94.5 L 315 31.5 L 410 0 L 441 0 L 536 31.5 L 598 94.5 L 630 189 L 630 220 L 598 315 L 536 378 L 441 410 L 410 410 L 315 378 L 252 315 L 220 220" style="stroke-width:0.3833in" transform="matrix(0.0173333 0 0 -0.0173333 10.92 0)"/><path d="M 220 378 L 189 346 L 220 315 L 252 346 L 220 378 M 220 158 L 189 126 L 220 94.5 L 252 126 L 220 158" style="stroke-width:0.3833in" transform="matrix(0.0173333 0 0 -0.0173333 21.84 0)"/><path d="M 378 662 L 284 630 L 220 536 L 189 378 L 189 284 L 220 126 L 284 31.5 L 378 0 L 441 0 L 536 31.5 L 598 126 L 630 284 L 630 378 L 598 536 L 536 630 L 441 662 L 378 662" style="stroke-width:0.3833in" transform="matrix(0.0173333 0 0 -0.0173333 26.2079 0)"/><path d="M 378 662 L 284 630 L 220 536 L 189 378 L 189 284 L 220 126 L 284 31.5 L 378 0 L 441 0 L 536 31.5 L 598 126 L 630 284 L 630 378 L 598 536 L 536 630 L 441 662 L 378 662" style="stroke-width:0.3833in" transform="matrix(0.0173333 0 0 -0.0173333 37.1279 0)"/><path d="M 220 662 L 220 0 M 220 662 L 504 662 L 598 630 L 630 598 L 662 536 L 662 441 L 630 378 L 598 346 L 504 315 L 220 315" style="stroke-width:0.3833in" transform="matrix(0.0173333 0 0 -0.0173333 54.5999 0)"/><path d="M 220 662 L 220 0 M 220 662 L 472 0 M 724 662 L 472 0 M 724 662 L 724 0" style="stroke-width:0.3833in" transform="matrix(0.0173333 0 0 -0.0173333 66.0745 0)"/></g><g transform="translate(181.767, 352.918)"><path d="M 630 567 L 567 630 L 472 662 L 346 662 L 252 630 L 189 567 L 189 504 L 220 441 L 252 410 L 315 378 L 504 315 L 567 284 L 598 252 L 630 189 L 630 94.5 L 567 31.5 L 472 0 L 346 0 L 252 31.5 L 189 94.5" style="stroke-width:0.3833in" transform="scale(0.0173333, -0.0173333)"/><path d="M 252 662 L 252 126 L 284 31.5 L 346 0 L 410 0 M 158 441 L 378 441" style="stroke-width:0.3833in" transform="matrix(0.0173333 0 0 -0.0173333 10.92 0)"/><path d="M 220 441 L 220 126 L 252 31.5 L 315 0 L 410 0 L 472 31.5 L 567 126 M 567 441 L 567 0" style="stroke-width:0.3833in" transform="matrix(0.0173333 0 0 -0.0173333 17.472 0)"/><path d="M 567 662 L 567 0 M 567 346 L 504 410 L 441 441 L 346 441 L 284 410 L 220 346 L 189 252 L 189 189 L 220 94.5 L 284 31.5 L 346 0 L 441 0 L 504 31.5 L 567 94.5" style="stroke-width:0.3833in" transform="matrix(0.0173333 0 0 -0.0173333 27.8373 0)"/><path d="M 158 441 L 346 0 M 536 441 L 346 0 L 284 -126 L 220 -189 L 158 -220 L 126 -220" style="stroke-width:0.3833in" transform="matrix(0.0173333 0 0 -0.0173333 38.2026 0)"/><path d="M 220 662 L 220 0 M 220 662 L 472 0 M 724 662 L 472 0 M 724 662 L 724 0" style="stroke-width:0.3833in" transform="matrix(0.0173333 0 0 -0.0173333 53.4906 0)"/><path d="M 567 441 L 567 0 M 567 346 L 504 410 L 441 441 L 346 441 L 284 410 L 220 346 L 189 252 L 189 189 L 220 94.5 L 284 31.5 L 346 0 L 441 0 L 504 31.5 L 567 94.5" style="stroke-width:0.3833in" transform="matrix(0.0173333 0 0 -0.0173333 66.5945 0)"/><path d="M 252 662 L 252 126 L 284 31.5 L 346 0 L 410 0 M 158 441 L 378 441" style="stroke-width:0.3833in" transform="matrix(0.0173333 0 0 -0.0173333 76.9599 0)"/><path d="M 220 662 L 220 0 M 220 315 L 315 410 L 378 441 L 472 441 L 536 410 L 567 315 L 567 0" style="stroke-width:0.3833in" transform="matrix(0.0173333 0 0 -0.0173333 83.5118 0)"/></g></g><g inkscape:label="Hershey Text" style="fill:none;stroke:#000000;stroke-linecap:round;stroke-linejoin:round" transform="matrix(0.264583 0 0 0.264583 63.5967 167.565)"><g transform="translate(505.636, 37.2597)"><path d="M 220 662 L 220 0 M 662 662 L 662 0 M 220 346 L 662 346" style="stroke-width:0.3114in" transform="scale(0.0213333, -0.0213333)"/><path d="M 189 662 L 220 630 L 252 662 L 220 693 L 189 662 M 220 441 L 220 0" style="stroke-width:0.3114in" transform="matrix(0.0213333 0 0 -0.0213333 14.784 0)"/><path d="M 567 441 L 567 -63 L 536 -158 L 504 -189 L 441 -220 L 346 -220 L 284 -189 M 567 346 L 504 410 L 441 441 L 346 441 L 284 410 L 220 346 L 189 252 L 189 189 L 220 94.5 L 284 31.5 L 346 0 L 441 0 L 504 31.5 L 567 94.5" style="stroke-width:0.3114in" transform="matrix(0.0213333 0 0 -0.0213333 20.16 0)"/><path d="M 220 662 L 220 0 M 220 315 L 315 410 L 378 441 L 472 441 L 536 410 L 567 315 L 567 0" style="stroke-width:0.3114in" transform="matrix(0.0213333 0 0 -0.0213333 32.9173 0)"/><path d="M 220 378 L 189 346 L 220 315 L 252 346 L 220 378 M 220 158 L 189 126 L 220 94.5 L 252 126 L 220 158" style="stroke-width:0.3114in" transform="matrix(0.0213333 0 0 -0.0213333 45.6746 0)"/><path d="M 252 662 L 598 662 L 410 410 L 504 410 L 567 378 L 598 346 L 630 252 L 630 189 L 598 94.5 L 536 31.5 L 441 0 L 346 0 L 252 31.5 L 220 63 L 189 126" style="stroke-width:0.3114in" transform="matrix(0.0213333 0 0 -0.0213333 59.1146 0)"/><path d="M 598 441 L 567 346 L 504 284 L 410 252 L 378 252 L 284 284 L 220 346 L 189 441 L 189 472 L 220 567 L 284 630 L 378 662 L 410 662 L 504 630 L 567 567 L 598 441 L 598 284 L 567 126 L 504 31.5 L 410 0 L 346 0 L 252 31.5 L 220 94.5" style="stroke-width:0.3114in" transform="matrix(0.0213333 0 0 -0.0213333 72.5546 0)"/><path d="M 236 765 L 217 756 L 198 737 L 189 718 L 180 690 L 180 643 L 189 614 L 198 595 L 217 576 L 236 567 L 274 567 L 293 576 L 312 595 L 321 614 L 331 643 L 331 690 L 321 718 L 312 737 L 293 756 L 274 765 L 236 765" style="stroke-width:0.3114in" transform="matrix(0.0213333 0 0 -0.0213333 85.9945 0)"/><path d="M 220 662 L 220 0 M 220 662 L 630 662 M 220 346 L 472 346" style="stroke-width:0.3114in" transform="matrix(0.0213333 0 0 -0.0213333 91.3065 0)"/></g><g transform="translate(513.823, 63.9264)"><path d="M 220 662 L 220 0 M 220 0 L 598 0" style="stroke-width:0.3114in" transform="scale(0.0213333, -0.0213333)"/><path d="M 346 441 L 284 410 L 220 346 L 189 252 L 189 189 L 220 94.5 L 284 31.5 L 346 0 L 441 0 L 504 31.5 L 567 94.5 L 598 189 L 598 252 L 567 346 L 504 410 L 441 441 L 346 441" style="stroke-width:0.3114in" transform="matrix(0.0213333 0 0 -0.0213333 11.4346 0)"/><path d="M 189 441 L 315 0 M 441 441 L 315 0 M 441 441 L 567 0 M 693 441 L 567 0" style="stroke-width:0.3114in" transform="matrix(0.0213333 0 0 -0.0213333 24.192 0)"/><path d="M 220 378 L 189 346 L 220 315 L 252 346 L 220 378 M 220 158 L 189 126 L 220 94.5 L 252 126 L 220 158" style="stroke-width:0.3114in" transform="matrix(0.0213333 0 0 -0.0213333 38.9759 0)"/><path d="M 252 662 L 598 662 L 410 410 L 504 410 L 567 378 L 598 346 L 630 252 L 630 189 L 598 94.5 L 536 31.5 L 441 0 L 346 0 L 252 31.5 L 220 63 L 189 126" style="stroke-width:0.3114in" transform="matrix(0.0213333 0 0 -0.0213333 52.4159 0)"/><path d="M 220 504 L 220 536 L 252 598 L 284 630 L 346 662 L 472 662 L 536 630 L 567 598 L 598 536 L 598 472 L 567 410 L 504 315 L 189 0 L 630 0" style="stroke-width:0.3114in" transform="matrix(0.0213333 0 0 -0.0213333 65.8559 0)"/><path d="M 236 765 L 217 756 L 198 737 L 189 718 L 180 690 L 180 643 L 189 614 L 198 595 L 217 576 L 236 567 L 274 567 L 293 576 L 312 595 L 321 614 L 331 643 L 331 690 L 321 718 L 312 737 L 293 756 L 274 765 L 236 765" style="stroke-width:0.3114in" transform="matrix(0.0213333 0 0 -0.0213333 79.2959 0)"/><path d="M 220 662 L 220 0 M 220 662 L 630 662 M 220 346 L 472 346" style="stroke-width:0.3114in" transform="matrix(0.0213333 0 0 -0.0213333 84.6079 0)"/></g></g><g inkscape:label="Hershey Text" style="fill:none;stroke:#000000;stroke-linecap:round;stroke-linejoin:round" transform="matrix(0.264583 0 0 0.264583 61.7217 160.663)"><g transform="translate(464.36, 34.9004)"><path d="M 630 567 L 567 630 L 472 662 L 346 662 L 252 630 L 189 567 L 189 504 L 220 441 L 252 410 L 315 378 L 504 315 L 567 284 L 598 252 L 630 189 L 630 94.5 L 567 31.5 L 472 0 L 346 0 L 252 31.5 L 189 94.5" style="stroke-width:0.3559in" transform="scale(0.0186667, -0.0186667)"/><path d="M 567 346 L 504 410 L 441 441 L 346 441 L 284 410 L 220 346 L 189 252 L 189 189 L 220 94.5 L 284 31.5 L 346 0 L 441 0 L 504 31.5 L 567 94.5" style="stroke-width:0.3559in" transform="matrix(0.0186667 0 0 -0.0186667 11.76 0)"/><path d="M 567 441 L 567 0 M 567 346 L 504 410 L 441 441 L 346 441 L 284 410 L 220 346 L 189 252 L 189 189 L 220 94.5 L 284 31.5 L 346 0 L 441 0 L 504 31.5 L 567 94.5" style="stroke-width:0.3559in" transform="matrix(0.0186667 0 0 -0.0186667 22.344 0)"/><path d="M 252 662 L 252 126 L 284 31.5 L 346 0 L 410 0 M 158 441 L 378 441" style="stroke-width:0.3559in" transform="matrix(0.0186667 0 0 -0.0186667 33.5067 0)"/><path d="M 252 662 L 252 126 L 284 31.5 L 346 0 L 410 0 M 158 441 L 378 441" style="stroke-width:0.3559in" transform="matrix(0.0186667 0 0 -0.0186667 40.5627 0)"/><path d="M 189 252 L 567 252 L 567 315 L 536 378 L 504 410 L 441 441 L 346 441 L 284 410 L 220 346 L 189 252 L 189 189 L 220 94.5 L 284 31.5 L 346 0 L 441 0 L 504 31.5 L 567 94.5" style="stroke-width:0.3559in" transform="matrix(0.0186667 0 0 -0.0186667 47.6188 0)"/><path d="M 220 441 L 220 0 M 220 252 L 252 346 L 315 410 L 378 441 L 472 441" style="stroke-width:0.3559in" transform="matrix(0.0186667 0 0 -0.0186667 58.2028 0)"/><path d="M 189 252 L 567 252 L 567 315 L 536 378 L 504 410 L 441 441 L 346 441 L 284 410 L 220 346 L 189 252 L 189 189 L 220 94.5 L 284 31.5 L 346 0 L 441 0 L 504 31.5 L 567 94.5" style="stroke-width:0.3559in" transform="matrix(0.0186667 0 0 -0.0186667 65.8561 0)"/><path d="M 567 662 L 567 0 M 567 346 L 504 410 L 441 441 L 346 441 L 284 410 L 220 346 L 189 252 L 189 189 L 220 94.5 L 284 31.5 L 346 0 L 441 0 L 504 31.5 L 567 94.5" style="stroke-width:0.3559in" transform="matrix(0.0186667 0 0 -0.0186667 76.4401 0)"/><path d="M 567 346 L 504 410 L 441 441 L 346 441 L 284 410 L 220 346 L 189 252 L 189 189 L 220 94.5 L 284 31.5 L 346 0 L 441 0 L 504 31.5 L 567 94.5" style="stroke-width:0.3559in" transform="matrix(0.0186667 0 0 -0.0186667 94.6588 0)"/><path d="M 220 662 L 220 0" style="stroke-width:0.3559in" transform="matrix(0.0186667 0 0 -0.0186667 105.243 0)"/><path d="M 346 441 L 284 410 L 220 346 L 189 252 L 189 189 L 220 94.5 L 284 31.5 L 346 0 L 441 0 L 504 31.5 L 567 94.5 L 598 189 L 598 252 L 567 346 L 504 410 L 441 441 L 346 441" style="stroke-width:0.3559in" transform="matrix(0.0186667 0 0 -0.0186667 109.947 0)"/><path d="M 220 441 L 220 126 L 252 31.5 L 315 0 L 410 0 L 472 31.5 L 567 126 M 567 441 L 567 0" style="stroke-width:0.3559in" transform="matrix(0.0186667 0 0 -0.0186667 121.11 0)"/><path d="M 567 662 L 567 0 M 567 346 L 504 410 L 441 441 L 346 441 L 284 410 L 220 346 L 189 252 L 189 189 L 220 94.5 L 284 31.5 L 346 0 L 441 0 L 504 31.5 L 567 94.5" style="stroke-width:0.3559in" transform="matrix(0.0186667 0 0 -0.0186667 132.272 0)"/><path d="M 536 346 L 504 410 L 410 441 L 315 441 L 220 410 L 189 346 L 220 284 L 284 252 L 441 220 L 504 189 L 536 126 L 536 94.5 L 504 31.5 L 410 0 L 315 0 L 220 31.5 L 189 94.5" style="stroke-width:0.3559in" transform="matrix(0.0186667 0 0 -0.0186667 143.435 0)"/></g></g></g>
</svg>