<?xml version="1.0" encoding="UTF-8" standalone="no"?>
<!-- Created with Inkscape (http://www.inkscape.org/) -->

<svg
   width="250mm"
   height="135mm"
   viewBox="0 0 250 135"
   version="1.1"
   id="svg8"
   inkscape:version="1.2.2 (b0a8486541, 2022-12-01, custom)"
   sodipodi:docname="temp.svg"
   xmlns:inkscape="http://www.inkscape.org/namespaces/inkscape"
   xmlns:sodipodi="http://sodipodi.sourceforge.net/DTD/sodipodi-0.dtd"
   xmlns="http://www.w3.org/2000/svg"
   xmlns:svg="http://www.w3.org/2000/svg"
   xmlns:rdf="http://www.w3.org/1999/02/22-rdf-syntax-ns#"
   xmlns:cc="http://creativecommons.org/ns#"
   xmlns:dc="http://purl.org/dc/elements/1.1/">
  <sodipodi:namedview
     id="base"
     pagecolor="#ffffff"
     bordercolor="#666666"
     borderopacity="1.0"
     inkscape:pageopacity="0.0"
     inkscape:pageshadow="2"
     inkscape:zoom="1.4142136"
     inkscape:cx="557.20013"
     inkscape:cy="230.5168"
     inkscape:document-units="mm"
     inkscape:current-layer="layer1"
     showgrid="false"
     inkscape:window-width="1920"
     inkscape:window-height="1016"
     inkscape:window-x="0"
     inkscape:window-y="36"
     inkscape:window-maximized="1"
     inkscape:showpageshadow="2"
     inkscape:pagecheckerboard="0"
     inkscape:deskcolor="#d1d1d1"
     showguides="true" />
  <defs
     id="defs2">
    <rect
       x="717.71336"
       y="4.2426406"
       width="185.96908"
       height="36.769552"
       id="rect3696" />
    <rect
       x="659.02352"
       y="143.54268"
       width="150.61374"
       height="36.769552"
       id="rect22135" />
    <rect
       x="251.02291"
       y="11.313709"
       width="436.28488"
       height="50.204582"
       id="rect20615" />
    <rect
       x="323.85491"
       y="72.831998"
       width="287.79246"
       height="276.47875"
       id="rect8339" />
    <rect
       x="116.67262"
       y="120.91526"
       width="239.00209"
       height="296.98484"
       id="rect4907" />
    <rect
       x="593.26259"
       y="257.38687"
       width="155.56349"
       height="137.88582"
       id="rect4901" />
    <rect
       x="435.57778"
       y="16.970563"
       width="161.22036"
       height="57.275651"
       id="rect3443" />
    <rect
       x="665.71429"
       y="48.571429"
       width="356.09473"
       height="62.849963"
       id="rect2411" />
    <rect
       x="398.57143"
       y="38.571429"
       width="303.57143"
       height="101.42857"
       id="rect13521" />
    <rect
       x="139.28571"
       y="156.42857"
       width="226.42858"
       height="70"
       id="rect10126" />
    <rect
       x="773.57143"
       y="-11.428571"
       width="208.57143"
       height="139.28571"
       id="rect1435" />
    <rect
       x="780.71429"
       y="10"
       width="261.42857"
       height="155"
       id="rect986" />
    <rect
       x="1039.2857"
       y="-20"
       width="312.85714"
       height="265.71429"
       id="rect980" />
    <rect
       x="438.57143"
       y="152.85714"
       width="379.28571"
       height="149.28571"
       id="rect446" />
    <rect
       x="665.71429"
       y="48.57143"
       width="356.09473"
       height="62.849964"
       id="rect2411-8" />
    <rect
       x="665.71429"
       y="48.57143"
       width="356.09473"
       height="62.849964"
       id="rect2411-8-9" />
    <rect
       x="665.71429"
       y="48.57143"
       width="356.09473"
       height="62.849964"
       id="rect2411-5" />
    <rect
       x="435.57779"
       y="16.970564"
       width="186.67621"
       height="35.35534"
       id="rect3443-0" />
    <rect
       x="435.57779"
       y="16.970564"
       width="184.55489"
       height="71.417784"
       id="rect3443-0-8" />
  </defs>
  <metadata
     id="metadata5">
    <rdf:RDF>
      <cc:Work
         rdf:about="">
        <dc:format>image/svg+xml</dc:format>
        <dc:type
           rdf:resource="http://purl.org/dc/dcmitype/StillImage" />
      </cc:Work>
    </rdf:RDF>
  </metadata>
  <g
     inkscape:label="Layer 1"
     inkscape:groupmode="layer"
     id="layer1"
     transform="translate(0, -162)">
    <rect
       style="fill:none;stroke:#000000;stroke-width:0.277236"
       id="rect1015"
       width="205.41742"
       height="96.283905"
       x="22.684896"
       y="162.38431"
       ry="0" />
    <path
       style="fill:none;stroke:#000000;stroke-width:0.306992"
       d="m 177.75147,162.49807 c -0.61105,42.10584 50.51292,34.93398 50.51292,34.93398"
       id="path6626"
       sodipodi:nodetypes="cc" />
    <rect
       style="fill:none;stroke:#000000;stroke-width:0.279087;stroke-opacity:1"
       id="rect3249"
       width="69.071556"
       height="56.504333"
       x="157.15511"
       y="199.43065" />
    <path
       style="fill:none;stroke:#000000;stroke-width:0.27293;stroke-linecap:round;stroke-linejoin:round;stroke-opacity:1"
       d="m 157.15205,209.24665 67.9571,-0.18065"
       id="path13432"
       sodipodi:nodetypes="cc" />
    <path
       sodipodi:type="spiral"
       style="fill:none;fill-rule:evenodd;stroke:#000000;stroke-width:0.264583"
       id="path13493"
       sodipodi:cx="37.857143"
       sodipodi:cy="115"
       sodipodi:expansion="1"
       sodipodi:revolution="3"
       sodipodi:radius="16.288219"
       sodipodi:argument="-19.510599"
       sodipodi:t0="0"
       d="m 37.857143,115 c 0.644637,-0.50138 0.993897,0.62159 0.833334,1.07143 -0.435117,1.21903 -2.066309,1.21984 -2.976191,0.59524 -1.627565,-1.11727 -1.539349,-3.47924 -0.357143,-4.88096 1.734935,-2.05707 4.912308,-1.87104 6.785714,-0.11904 2.496957,2.33513 2.208095,6.35266 -0.119047,8.69047 -2.92847,2.9419 -7.796519,2.54795 -10.595237,-0.35714 -3.389623,-3.51845 -2.889432,-9.24235 0.595237,-12.5 4.106561,-3.83902 10.689424,-3.23194 14.404761,0.83333 4.289504,4.69352 3.575128,12.13732 -1.071428,16.30953 -5.279711,4.74072 -13.58579,3.91879 -18.214284,-1.30953 -5.192471,-5.86538 -4.262809,-15.03468 1.547618,-20.11904 C 35.141152,97.569681 45.174372,98.607205 50.714285,105"
       transform="matrix(0.26458333,0,0,0.26458333,154.47925,174.47511)" />
    <path
       sodipodi:type="spiral"
       style="fill:none;fill-rule:evenodd;stroke:#000000;stroke-width:0.264583"
       id="path13493-6"
       sodipodi:cx="37.857143"
       sodipodi:cy="115"
       sodipodi:expansion="1"
       sodipodi:revolution="3"
       sodipodi:radius="16.288219"
       sodipodi:argument="-19.510599"
       sodipodi:t0="0"
       d="m 37.857143,115 c 0.644637,-0.50138 0.993897,0.62159 0.833334,1.07143 -0.435117,1.21903 -2.066309,1.21984 -2.976191,0.59524 -1.627565,-1.11727 -1.539349,-3.47924 -0.357143,-4.88096 1.734935,-2.05707 4.912308,-1.87104 6.785714,-0.11904 2.496957,2.33513 2.208095,6.35266 -0.119047,8.69047 -2.92847,2.9419 -7.796519,2.54795 -10.595237,-0.35714 -3.389623,-3.51845 -2.889432,-9.24235 0.595237,-12.5 4.106561,-3.83902 10.689424,-3.23194 14.404761,0.83333 4.289504,4.69352 3.575128,12.13732 -1.071428,16.30953 -5.279711,4.74072 -13.58579,3.91879 -18.214284,-1.30953 -5.192471,-5.86538 -4.262809,-15.03468 1.547618,-20.11904 C 35.141152,97.569681 45.174372,98.607205 50.714285,105"
       transform="matrix(0.26458333,0,0,0.26458333,208.67256,174.0782)" />
    <path
       style="fill:none;stroke:#000000;stroke-width:0.264583;stroke-opacity:1"
       d="m 168.82905,230.63116 45.73512,-1e-5"
       id="path13434"
       sodipodi:nodetypes="cc" />
    <path
       style="fill:#000000;stroke:#000000;stroke-width:0.264583"
       d="M 66.977743,175.47039 168.00563,175.2833"
       id="path5044"
       transform="translate(0)" />
    <path
       id="path9932-1"
       style="fill:none;stroke:#000000;stroke-width:0.0700042"
       inkscape:transform-center-x="0.39460381"
       inkscape:transform-center-y="0.058809981"
       d="m 153.06557,255.67163 -3.10938,-0.40507 -2.09644,2.33179 -0.57561,-3.08237 -2.8655,-1.27327 2.75364,-1.49994 0.32546,-3.11871 2.27745,2.15535 3.06665,-0.6542 -1.3461,2.83202 z" />
    <path
       id="path9932"
       style="fill:none;stroke:#000000;stroke-width:0.0700042"
       inkscape:transform-center-x="0.39460381"
       inkscape:transform-center-y="0.058809981"
       d="m 81.383569,255.35724 -3.109381,-0.40507 -2.096442,2.33179 -0.575603,-3.08237 -2.865504,-1.27327 2.753638,-1.49994 0.325467,-3.11872 2.277443,2.15536 3.066653,-0.6542 -1.346099,2.83202 z" />
    <text
       xml:space="preserve"
       transform="matrix(0.26458333,0,0,0.26458333,-4.4910919,178.83426)"
       id="Quote"
       style="font-size:26.6667px;text-align:center;white-space:pre;shape-inside:url(#rect8339);display:inline;fill:#000000;stroke:#000000"
       x="-282.67328"
       y="0"
       inkscape:label="Quote"><tspan
         x="335.5568"
         y="96.425811"
         id="tspan290">Where there is ruin, </tspan><tspan
         x="345.09457"
         y="129.75919"
         id="tspan292">there is hope for a </tspan><tspan
         x="407.93319"
         y="163.09256"
         id="tspan294">treasure.
</tspan><tspan
         x="429.13114"
         y="196.42593"
         id="tspan296">-Rumi</tspan></text>
    <text
       xml:space="preserve"
       transform="matrix(0.23003977,0,0,0.23003977,-0.82405696,233.2926)"
       id="yOpp"
       style="font-size:30.671px;text-align:center;white-space:pre;shape-inside:url(#rect2411-5);display:inline;fill:#000000;stroke:#000000"
       inkscape:label="yOpp"><tspan
         x="753.74054"
         y="75.708912"
         id="tspan298">Fairfield: 64</tspan></text>
    <text
       xml:space="preserve"
       transform="matrix(0.23003977,0,0,0.23003977,-2.1052714,223.75374)"
       id="Yale"
       style="font-size:30.671px;text-align:center;white-space:pre;shape-inside:url(#rect2411-8-9);display:inline;fill:#000000;stroke:#000000"
       inkscape:label="Yale"><tspan
         x="783.85742"
         y="75.708912"
         id="tspan300">Yale: 77</tspan></text>
    <text
       xml:space="preserve"
       transform="matrix(0.23003977,0,0,0.23003977,-1.6008177,208.50202)"
       id="cOpp"
       style="font-size:30.671px;text-align:center;white-space:pre;shape-inside:url(#rect2411);display:inline;fill:#000000;stroke:#000000"
       inkscape:label="cOpp"><tspan
         x="759.39401"
         y="75.708912"
         id="tspan302">Magic: 117</tspan></text>
    <text
       xml:space="preserve"
       transform="matrix(0.23003977,0,0,0.23003977,1.0468298,199.52443)"
       id="Celts"
       style="font-size:30.671px;text-align:center;white-space:pre;shape-inside:url(#rect2411-8);display:inline;fill:#000000;stroke:#000000"
       inkscape:label="Celts"><tspan
         x="753.35116"
         y="75.708912"
         id="tspan304">Celtics: 109</tspan></text>
    <text
       xml:space="preserve"
       id="Sports"
       style="font-size:32px;text-align:center;white-space:pre;shape-inside:url(#rect22135);display:inline;fill:none;stroke:#000000;stroke-opacity:1"
       transform="matrix(0.26458333,0,0,0.26458333,-3.7417733,161.81291)"
       inkscape:label="Sports"><tspan
         x="683.04102"
         y="171.85547"
         id="tspan308"><tspan
           style="fill:#000000"
           id="tspan306">Sports</tspan></tspan></text>
    <text
       xml:space="preserve"
       transform="matrix(0.26458333,0,0,0.26458333,-8.0448128,148.7167)"
       id="Schedule"
       style="font-size:26.6667px;text-align:center;white-space:pre;shape-inside:url(#rect4907);shape-padding:0;display:inline;fill:#000000;stroke:#000000"
       x="103.22962"
       y="0"
       inkscape:label="Schedule"><tspan
         x="173.96574"
         y="144.5098"
         id="tspan310">02:00 PM
</tspan><tspan
         x="181.62851"
         y="177.84317"
         id="tspan312">robo lab
</tspan><tspan
         x="226.55044"
         y="211.17654"
         id="tspan314">--
</tspan><tspan
         x="173.96574"
         y="244.50992"
         id="tspan316">06:00 PM
</tspan><tspan
         x="160.08552"
         y="277.84329"
         id="tspan318">Study Math
</tspan><tspan
         x="226.55044"
         y="311.17667"
         id="tspan320">--
</tspan><tspan
         x="173.96574"
         y="344.51004"
         id="tspan322">08:00 PM
</tspan><tspan
         x="193.41889"
         y="377.84341"
         id="tspan324">dinner</tspan></text>
    <path
       style="fill:none;stroke:#000000;stroke-width:0.264583;stroke-opacity:1"
       d="m 31.719513,170.78605 c 0.392478,0.92014 0.742625,1.88212 1.190625,2.77812 0.02789,0.0558 0.11257,0.0731 0.132292,0.13229 0.02789,0.0837 -0.06236,0.20223 0,0.26459 0.07625,0.0763 1.95132,0.13229 2.248958,0.13229 1.607325,0 3.228099,0.11902 4.7625,-0.26458 0.132292,-0.0331 0.264583,0.0661 0.396875,0 0.19721,-0.0986 0.326509,-0.31002 0.529167,-0.39688 0.202657,-0.0868 0.464248,0.0986 0.661458,0 0.19721,-0.0986 0.331957,-0.29827 0.529167,-0.39687 0.07888,-0.0394 0.191201,0.0489 0.264583,0 0.528352,-0.35224 -0.03601,-0.14442 0.132292,-0.39688 0.103777,-0.15567 0.337711,-0.21939 0.396875,-0.39687 0.02789,-0.0837 -0.04892,-0.1912 0,-0.26459 0.05469,-0.082 0.209888,-0.0502 0.264583,-0.13229 0.04892,-0.0734 -0.02789,-0.18091 0,-0.26458 0.07029,-0.21087 0.677807,-1.04199 0.396875,-1.32292 -0.06331,-0.0633 -1.091629,-0.0495 -1.190625,0 -0.07921,0.0396 -0.104855,0.48801 -0.132292,0.52917 -0.352234,0.52835 -0.14442,-0.036 -0.396875,0.13229 -0.103777,0.0692 -0.17639,0.17639 -0.264583,0.26458 -0.0986,0.0986 -0.03369,0.29827 -0.132292,0.39688 -0.06236,0.0624 -0.17639,0 -0.264583,0 -0.191371,0 -2.089658,0.11428 -2.116667,0.13229 -0.103777,0.0692 -0.160806,0.1954 -0.264583,0.26458 -0.209315,0.13955 -0.716727,-0.007 -0.926042,0.13229 -0.103777,0.0692 -0.148778,0.21827 -0.264583,0.26459 -0.05627,0.0225 -3.395438,0.1911 -3.571875,0.13229 -0.108905,-0.0363 -0.888772,-0.4919 -0.926042,-0.52917 -0.03118,-0.0312 0.03944,-0.11257 0,-0.13229 -0.07888,-0.0394 -0.202221,0.0624 -0.264583,0 -0.06236,-0.0624 0.03944,-0.1857 0,-0.26458 -0.07888,-0.15777 -0.361828,0.0558 -0.529167,0 -0.04183,-0.0139 0.03944,-0.11257 0,-0.13229 -0.616347,-0.30818 -0.661458,0.6212 -0.661458,-0.66146 z"
       id="path9858"
       transform="translate(0)" />
    <path
       style="fill:none;stroke:#000000;stroke-width:0.264583;stroke-opacity:1"
       d="m 34.365346,167.21417 c -0.220485,0.17639 -0.480695,0.31225 -0.661458,0.52917 -0.426773,0.51213 1.342943,0.50914 1.5875,0.26458 0.07545,-0.0754 0.06763,-0.43217 0.132292,-0.52916 0.273573,-0.41036 0.612179,-0.79375 -0.132292,-0.79375 -0.132292,0 -0.2868,-0.0734 -0.396875,0 -0.207555,0.13837 -0.352777,0.35277 -0.529167,0.52916 z"
       id="path9852" />
    <path
       style="fill:none;stroke:#000000;stroke-width:0.264583;stroke-opacity:1"
       d="m 38.466388,166.68501 c -0.132292,0.17639 -0.283435,0.3401 -0.396875,0.52916 -0.18706,0.31177 0.08473,1.40022 0.396875,1.5875 0.303011,0.18181 1.403363,0.23598 1.5875,-0.13229 0.05916,-0.11832 -0.02596,-0.26715 0,-0.39687 0.01934,-0.0967 0.10111,-0.17104 0.132292,-0.26459 0.100245,-0.30073 0.08802,-1.49948 -0.132292,-1.71979 -0.356505,-0.3565 -1.372428,0.31085 -1.5875,0.39688 z"
       id="path9856" />
    <path
       style="fill:none;stroke:#000000;stroke-width:0.264583;stroke-opacity:1"
       d="m 31.719513,164.96521 c -0.17639,0.66146 -0.332457,1.32868 -0.529167,1.98438 -0.249885,0.83295 -0.269942,0.42903 -0.396875,1.19062 -0.09299,0.55796 0.206673,1.33541 0,1.85209 -0.05905,0.14762 -0.193478,0.25466 -0.264583,0.39687 -0.116795,0.23359 -0.03037,1.28174 -0.132292,1.5875 -0.06972,0.20917 -0.327151,0.32 -0.396875,0.52917 -0.02789,0.0837 0.02789,0.18091 0,0.26458 -0.06236,0.18709 -0.20222,0.34208 -0.264583,0.52917 -0.232712,0.69814 -0.113554,1.30305 0,1.98437 0.0435,0.26099 -0.118325,0.5571 0,0.79375 0.361338,0.72268 0.301061,0.23265 0.79375,0.39688 0.209171,0.0697 0.319995,0.32715 0.529167,0.39687 0.205867,0.0686 0.615455,-0.10697 0.79375,0 0.136337,0.0818 0.128246,0.31508 0.264583,0.39688 0.383093,0.22986 1.884939,-0.16544 2.38125,0 0.150836,0.0503 0.246039,0.2143 0.396875,0.26458 0.533119,0.17771 1.423427,-0.033 1.984375,0 1.519478,0.0894 3.228477,0.32405 4.7625,0.13229 0.799182,-0.0999 1.454576,-0.52878 2.116667,-0.92604 0.54679,-0.32807 0.954664,-0.40443 1.455208,-0.79375 0.196905,-0.15315 0.332261,-0.37601 0.529166,-0.52916 0.202965,-0.15787 0.463926,-0.23227 0.661459,-0.39688 0.07575,-0.0631 0.07069,-0.18758 0.132291,-0.26458 0.603584,-0.75448 1.503982,-1.58528 1.852084,-2.51354 0.41071,-1.09523 0.02595,-2.05611 -0.396875,-3.04271 -0.152829,-0.3566 -0.29283,-0.96841 -0.529167,-1.32292 -0.298413,-0.44762 -0.824132,-0.69184 -1.190625,-1.05833 -0.155908,-0.15591 -0.220485,-0.39688 -0.396875,-0.52917 -0.189976,-0.14248 -0.449059,-0.15838 -0.661458,-0.26458 -0.211667,-0.10584 -0.3175,-0.42334 -0.529167,-0.52917 -0.118324,-0.0592 -0.274045,0.0491 -0.396875,0 -0.115805,-0.0463 -0.153024,-0.2088 -0.264583,-0.26458 -0.162624,-0.0813 -0.362051,-0.0607 -0.529167,-0.13229 -0.14614,-0.0626 -0.254667,-0.19348 -0.396875,-0.26459 -0.293753,-0.14687 -1.428649,-0.37243 -1.5875,-0.39687 -0.477268,-0.0734 -1.090903,0 -1.5875,0 -1.190625,0 -2.38125,0 -3.571875,0 -0.144523,0 -3.772217,-0.13102 -3.96875,0 -0.234936,0.15662 -0.440973,0.35278 -0.661458,0.52916 z"
       id="path9860" />
    <text
       xml:space="preserve"
       transform="matrix(0.26458333,0,0,0.26458333,63.596713,167.56482)"
       id="Temps"
       style="font-style:normal;font-variant:normal;font-weight:normal;font-stretch:normal;font-size:26.6667px;font-family:sans-serif;-inkscape-font-specification:sans-serif;text-align:end;white-space:pre;shape-inside:url(#rect3443-0-8);shape-padding:1.41421;display:inline;fill:#000000;stroke:#000000"
       x="-5.1553361e-06"
       y="0"
       inkscape:label="Temps"><tspan
         x="477.3644"
         y="41.978545"
         id="tspan326">High: 38°F
</tspan><tspan
         x="487.59879"
         y="75.311919"
         id="tspan328">Low: 31°F</tspan></text>
    <text
       xml:space="preserve"
       transform="matrix(0.26458333,0,0,0.26458333,61.160456,159.54006)"
       id="Conditions"
       style="font-style:normal;font-variant:normal;font-weight:normal;font-stretch:normal;font-size:26.6667px;font-family:sans-serif;-inkscape-font-specification:sans-serif;text-align:end;white-space:pre;shape-inside:url(#rect3443-0);shape-padding:1.41421;display:inline;fill:#000000;stroke:#000000"
       x="-5.1553361e-06"
       y="0"
       inkscape:label="Conditions"><tspan
         x="498.45688"
         y="41.978545"
         id="tspan330">Clear sky</tspan></text>
    <g
       aria-label="Monday, Dec. 19"
       transform="matrix(0.26458333,0,0,0.26458333,-5.2384826,161.25165)"
       id="Date"
       style="font-size:42.6667px;text-align:center;white-space:pre;shape-inside:url(#rect20615);display:inline;fill:none;stroke:#000000"
       inkscape:label="Date">
      <path
         d="m 293.58255,17.960291 c 2.09028,0 4.18056,0 6.27084,0 2.64584,7.055561 5.29167,14.111122 7.93751,21.166683 2.65972,-7.055561 5.31945,-14.111122 7.97917,-21.166683 2.09028,0 4.18056,0 6.27084,0 0,10.368063 0,20.736127 0,31.10419 -1.36806,0 -2.73611,0 -4.10417,0 0,-9.104173 0,-18.208347 0,-27.31252 -2.67361,7.111116 -5.34723,14.222233 -8.02084,21.333349 -1.40972,0 -2.81945,0 -4.22917,0 -2.67361,-7.111116 -5.34723,-14.222233 -8.02084,-21.333349 0,9.104173 0,18.208347 0,27.31252 -1.36111,0 -2.72223,0 -4.08334,0 0,-10.368063 0,-20.736127 0,-31.10419 z"
         id="path70" />
      <path
         d="m 339.27008,28.418633 c -1.73545,-0.03889 -3.48537,0.695553 -4.58717,2.053814 -1.68098,1.97859 -2.11271,4.686823 -2.07777,7.206182 0.0322,2.438563 0.53612,5.054604 2.23754,6.905706 1.19561,1.337619 3.04094,1.943646 4.80525,1.824871 1.73279,-0.04751 3.40224,-0.929448 4.42003,-2.332298 1.61453,-2.138376 1.9394,-4.942864 1.82653,-7.544485 -0.10415,-2.40248 -0.80148,-4.941936 -2.6149,-6.626057 -1.07136,-1.012763 -2.54802,-1.506056 -4.00951,-1.487733 z m 0,-3.250003 c 2.60106,-0.02526 5.29595,0.744054 7.20416,2.577944 2.1313,1.970282 3.15859,4.850212 3.41204,7.686376 0.25729,3.025424 0.021,6.208375 -1.38232,8.951393 -1.20236,2.393979 -3.43572,4.260381 -6.04993,4.900272 -2.21405,0.547025 -4.58295,0.523828 -6.77587,-0.111878 -2.63856,-0.758052 -4.80785,-2.792817 -5.8962,-5.293278 -1.20643,-2.713423 -1.38527,-5.771588 -1.10332,-8.69361 0.29003,-2.834049 1.3742,-5.705005 3.56202,-7.617009 1.90473,-1.720713 4.50641,-2.418504 7.02942,-2.40021 z"
         id="path72" />
      <path
         d="m 375.72845,34.981137 c 0,4.694448 0,9.388896 0,14.083344 -1.27778,0 -2.55556,0 -3.83334,0 -0.005,-4.821891 0.0103,-9.643994 -0.008,-14.465749 -0.0627,-1.749421 -0.39241,-3.664131 -1.71897,-4.925074 -1.32987,-1.234456 -3.29756,-1.330928 -4.9963,-1.032049 -1.8961,0.316977 -3.5622,1.626938 -4.35942,3.370064 -0.73087,1.497542 -0.80227,3.190336 -0.77161,4.826164 0,4.075548 0,8.151096 0,12.226644 -1.28472,0 -2.56945,0 -3.85417,0 0,-7.777783 0,-15.555567 0,-23.33335 1.28472,0 2.56945,0 3.85417,0 0,1.208334 0,2.416668 0,3.625002 1.19992,-1.880028 3.03112,-3.435128 5.2448,-3.927086 1.95185,-0.435858 4.06077,-0.357798 5.9227,0.404256 1.97777,0.807016 3.35992,2.66153 3.93792,4.676822 0.43899,1.445669 0.58017,2.96534 0.5821,4.471012 z"
         id="path74" />
      <path
         d="m 398.72847,29.2728 c 0,-4.208337 0,-8.416673 0,-12.62501 1.27778,0 2.55555,0 3.83333,0 0,10.805564 0,21.611127 0,32.416691 -1.27778,0 -2.55555,0 -3.83333,0 0,-1.166667 0,-2.333335 0,-3.500002 -1.02531,1.827755 -2.74728,3.298644 -4.81023,3.787763 -2.52606,0.619459 -5.37706,0.393631 -7.54681,-1.137086 -2.57383,-1.794916 -4.01604,-4.824444 -4.45452,-7.870856 -0.37531,-2.716691 -0.28606,-5.53963 0.53744,-8.169683 0.89086,-2.818529 2.88132,-5.458596 5.72933,-6.491002 1.96128,-0.692782 4.14996,-0.669277 6.13325,-0.07535 1.89063,0.580335 3.44922,1.954652 4.41154,3.664533 z m -13.06251,8.145839 c 0.005,2.443757 0.41583,5.061316 2.01049,7.005565 1.07609,1.346322 2.80055,2.075293 4.51035,2.036109 1.7098,0.03918 3.43426,-0.689791 4.51035,-2.036109 1.63203,-1.976504 2.04373,-4.647937 2.03089,-7.137279 -0.0138,-2.485119 -0.4936,-5.153384 -2.20725,-7.059698 -1.13394,-1.312517 -2.90537,-1.944583 -4.61631,-1.844951 -1.6839,0.02546 -3.32981,0.839093 -4.34245,2.190105 -1.5031,1.926993 -1.89028,4.466904 -1.89607,6.846258 z"
         id="path76" />
      <path
         d="m 421.06181,37.335306 c -1.99612,0.03114 -4.06477,0.06364 -5.94499,0.813477 -1.25377,0.482207 -2.10476,1.716096 -2.23125,3.037478 -0.21628,1.49296 0.14947,3.172697 1.36598,4.15961 1.43124,1.171463 3.43336,1.287474 5.18479,0.955689 2.1277,-0.401643 3.8637,-2.036525 4.68114,-4.002383 0.68441,-1.559176 0.78974,-3.283435 0.75684,-4.963871 -1.27084,0 -2.54167,0 -3.81251,0 z m 7.64584,-1.583335 c 0,4.437503 0,8.875007 0,13.31251 -1.27778,0 -2.55555,0 -3.83333,0 0,-1.180556 0,-2.361113 0,-3.541669 -1.09102,1.820306 -2.85034,3.272089 -4.9343,3.774498 -1.88981,0.464375 -3.90692,0.523786 -5.79899,0.04126 -2.11662,-0.53531 -3.96439,-2.117744 -4.67938,-4.199242 -0.62007,-1.808632 -0.60876,-3.822051 -0.0618,-5.647053 0.55879,-1.857836 2.03915,-3.340478 3.81233,-4.078357 2.3787,-1.039823 5.01429,-1.107116 7.56828,-1.078614 1.36462,0 2.72924,0 4.09386,0 0.0646,-1.50356 -0.30479,-3.112891 -1.43726,-4.178185 -1.45081,-1.43587 -3.59912,-1.792843 -5.56183,-1.734275 -2.49678,0.04987 -4.98037,0.704849 -7.16759,1.912457 0,-1.180557 0,-2.361113 0,-3.54167 3.54666,-1.362981 7.48079,-2.101542 11.24523,-1.285981 2.15532,0.452131 4.19308,1.717375 5.28933,3.665225 1.15115,1.980368 1.45903,4.322949 1.46545,6.579096 z"
         id="path78" />
      <path
         d="m 446.31183,51.23115 c -0.72642,1.783061 -1.47626,3.624937 -2.77995,5.074548 -1.24725,1.325787 -3.15243,1.690539 -4.90318,1.63379 -0.89035,0 -1.78069,0 -2.67104,0 0,-1.069445 0,-2.138891 0,-3.208336 1.02804,-0.02025 2.061,0.05073 3.08459,-0.05933 0.9208,-0.110999 1.7895,-0.627672 2.24746,-1.447551 0.87789,-1.410596 1.37421,-3.006428 2.00129,-4.534794 -3.14584,-7.652783 -6.29167,-15.305567 -9.43751,-22.95835 1.35417,0 2.70833,0 4.0625,0 2.43056,6.083338 4.86111,12.166675 7.29167,18.250013 2.43056,-6.083338 4.86112,-12.166675 7.29168,-18.250013 1.35417,0 2.70833,0 4.0625,0 -3.41667,8.500006 -6.83334,17.000013 -10.25001,25.500019 z"
         id="path80" />
      <path
         d="m 462.83267,43.772811 c 1.46528,0 2.93056,0 4.39584,0 0,1.194445 0,2.388891 0,3.583336 -1.13889,2.222224 -2.27778,4.444447 -3.41667,6.666671 -0.89583,0 -1.79167,0 -2.6875,0 0.56649,-2.234459 1.15657,-4.465943 1.70833,-6.702259 0,-1.182582 0,-2.365165 0,-3.547748 z"
         id="path82" />
      <path
         d="m 493.35354,21.418627 c 0,8.062506 0,16.125012 0,24.187518 2.11838,-0.01242 4.23766,0.02912 6.35528,-0.03008 2.69406,-0.137274 5.51857,-0.698004 7.65813,-2.448656 2.01291,-1.638024 2.9688,-4.205205 3.2991,-6.71137 0.31035,-2.528288 0.27508,-5.131157 -0.34644,-7.611369 -0.55301,-2.221754 -1.83389,-4.324064 -3.81904,-5.533925 -2.47121,-1.531592 -5.464,-1.860372 -8.3128,-1.852113 -1.61141,0 -3.22282,0 -4.83423,0 z m -4.20834,-3.458336 c 3.25239,0.0077 6.50507,-0.01664 9.75725,0.01473 3.54344,0.110959 7.20882,0.626577 10.32384,2.42697 2.26857,1.293113 4.00382,3.427119 4.90603,5.868584 1.17254,3.129295 1.31852,6.549125 1.03319,9.848721 -0.29945,3.126903 -1.30819,6.332627 -3.54781,8.622961 -2.27398,2.346161 -5.50317,3.462341 -8.66552,3.953978 -3.09606,0.502443 -6.23804,0.339385 -9.36048,0.368246 -1.48217,0 -2.96433,0 -4.4465,0 0,-10.368063 0,-20.736127 0,-31.10419 z"
         id="path84" />
      <path
         d="m 541.79107,36.439472 c 0,0.625 0,1.250001 0,1.875001 -5.875,0 -11.75001,0 -17.62501,0 0.12996,2.30237 0.84445,4.741068 2.64974,6.291427 1.77135,1.539245 4.23373,1.922233 6.5066,1.793703 2.64849,-0.110855 5.24114,-0.903588 7.57284,-2.147625 0,1.208334 0,2.416668 0,3.625002 -3.57652,1.507209 -7.57424,2.184858 -11.428,1.562359 -2.67987,-0.433051 -5.2347,-1.812361 -6.90097,-3.980075 -1.86075,-2.345922 -2.49014,-5.426878 -2.39344,-8.364182 0.0577,-2.981807 0.87553,-6.064915 2.88686,-8.339494 1.71458,-2.024278 4.25892,-3.231492 6.87897,-3.496115 2.69516,-0.300625 5.60609,0.08246 7.81369,1.765644 2.18112,1.624871 3.4859,4.212122 3.85593,6.874203 0.12818,0.840159 0.18271,1.690597 0.18279,2.540152 z m -3.83333,-1.125001 c 9.5e-4,-1.95786 -0.62191,-4.005913 -2.10104,-5.35592 -1.28539,-1.245379 -3.15616,-1.665857 -4.89809,-1.518235 -1.98031,0.09267 -3.9827,0.957775 -5.17082,2.588177 -0.93282,1.237271 -1.36482,2.780638 -1.49673,4.306811 4.55556,-0.0069 9.11112,-0.01389 13.66668,-0.02083 z"
         id="path86" />
      <path
         d="m 564.87442,26.626965 c 0,1.194445 0,2.388891 0,3.583336 -2.68352,-1.476464 -5.90291,-2.243774 -8.92937,-1.511028 -2.12082,0.500722 -3.87616,2.123199 -4.68165,4.129519 -0.88788,2.192608 -0.95839,4.641734 -0.62388,6.958567 0.33626,2.234322 1.48569,4.464269 3.49563,5.617431 2.09247,1.20817 4.65788,1.198221 6.9596,0.702394 1.32434,-0.302334 2.5911,-0.82737 3.77967,-1.480206 0,1.180556 0,2.361113 0,3.541669 -2.97711,1.391598 -6.39127,1.824789 -9.62643,1.266282 -2.6405,-0.459521 -5.08568,-1.964167 -6.62202,-4.170398 -1.83558,-2.555805 -2.34738,-5.813297 -2.18243,-8.894782 0.13275,-2.879744 1.04969,-5.827151 3.09753,-7.930283 1.87475,-1.998986 4.57819,-3.03388 7.27573,-3.219729 2.74582,-0.217902 5.55258,0.255617 8.05762,1.407228 z"
         id="path88" />
      <path
         d="m 572.08277,43.772811 c 1.46528,0 2.93055,0 4.39583,0 0,1.76389 0,3.52778 0,5.29167 -1.46528,0 -2.93055,0 -4.39583,0 0,-1.76389 0,-3.52778 0,-5.29167 z"
         id="path90" />
      <path
         d="m 599.93696,45.522812 c 2.29167,0 4.58334,0 6.87501,0 0,-7.909728 0,-15.819456 0,-23.729184 -2.49306,0.5 -4.98611,1.000001 -7.47917,1.500001 0,-1.277779 0,-2.555557 0,-3.833336 2.49126,-0.497649 4.98065,-1.014082 7.47309,-1.500002 1.39092,0 2.78183,0 4.17275,0 0,9.187507 0,18.375014 0,27.562521 2.29167,0 4.58333,0 6.875,0 0,1.180556 0,2.361113 0,3.541669 -5.97223,0 -11.94445,0 -17.91668,0 0,-1.180556 0,-2.361113 0,-3.541669 z"
         id="path92" />
      <path
         d="m 626.47864,48.418647 c 0,-1.277779 0,-2.555557 0,-3.833336 2.74581,1.291662 5.91994,1.974786 8.91713,1.2411 1.97303,-0.472586 3.65487,-1.862576 4.59435,-3.647596 1.21744,-2.253189 1.60888,-4.838518 1.75936,-7.364344 -1.46201,2.251481 -4.07825,3.635283 -6.74827,3.699913 -2.66788,0.105365 -5.48465,-0.590204 -7.46553,-2.463503 -2.01057,-1.833431 -2.93432,-4.577196 -3.03704,-7.243509 -0.15278,-2.7627 0.42663,-5.683186 2.22743,-7.857602 1.58882,-2.004333 4.03661,-3.218847 6.56448,-3.466433 2.5991,-0.292748 5.3993,0.106412 7.54155,1.699917 2.33722,1.722215 3.67029,4.475066 4.34605,7.236292 0.72276,3.017345 0.8713,6.153101 0.68172,9.242177 -0.25167,3.57374 -1.33394,7.208038 -3.69839,9.967043 -1.68625,2.032584 -4.10932,3.430142 -6.71972,3.845218 -3.01416,0.512051 -6.11448,-0.02791 -8.96312,-1.055337 z m 8.37501,-13.187509 c 1.67822,0.03528 3.40401,-0.615235 4.47917,-1.937502 1.4851,-1.723951 1.79393,-4.132214 1.62597,-6.326095 -0.13164,-1.971106 -0.95268,-3.987227 -2.58411,-5.180271 -1.5574,-1.136758 -3.6656,-1.294928 -5.48197,-0.780752 -1.97159,0.571637 -3.39529,2.359557 -3.86988,4.310875 -0.44422,1.827822 -0.43366,3.781609 0.0711,5.596008 0.51348,1.852976 1.91532,3.507881 3.79876,4.045276 0.63432,0.192585 1.29921,0.272645 1.96094,0.272461 z"
         id="path94" />
    </g>
  </g>
</svg>
